<?xml version="1.0" encoding="UTF-8"?>
<svg width="9px" height="6px" viewBox="0 0 9 6" version="1.1" xmlns="http://www.w3.org/2000/svg" xmlns:xlink="http://www.w3.org/1999/xlink">
    <!-- Generator: Sketch 52.5 (67469) - http://www.bohemiancoding.com/sketch -->
    <title>Fill 1 Copy</title>
    <desc>Created with Sketch.</desc>
    <g id="Visual-Logistics" stroke="none" stroke-width="1" fill="none" fill-rule="evenodd">
        <g id="06.1.-Quản-lý-sản-phẩm---Thêm-mới" transform="translate(-1136.000000, -227.000000)" fill="#444444">
            <path d="M1136.08437,227.78125 C1136.02812,227.71875 1136,227.625 1136,227.5 C1136,227.354166 1136.04687,227.234376 1136.14062,227.140624 C1136.23438,227.046874 1136.34687,227 1136.47813,227 L1144.52187,227 C1144.65313,227 1144.76562,227.046874 1144.85938,227.140624 C1144.95313,227.234376 1145,227.354166 1145,227.5 C1145,227.604168 1144.97187,227.6875 1144.91563,227.75 L1144.85938,227.84375 L1141.03437,232.71875 C1140.86562,232.906251 1140.6875,233 1140.5,233 C1140.3125,233 1140.13438,232.906251 1139.96563,232.71875 L1136.14062,227.84375 L1136.08437,227.78125 Z" id="Fill-1-Copy" transform="translate(1140.500000, 230.000000) scale(1, -1) rotate(-180.000000) translate(-1140.500000, -230.000000) "></path>
        </g>
    </g>
</svg>