<?xml version="1.0" encoding="UTF-8"?>
<svg width="4px" height="6px" viewBox="0 0 4 6" version="1.1" xmlns="http://www.w3.org/2000/svg" xmlns:xlink="http://www.w3.org/1999/xlink">
    <!-- Generator: Sketch 52.5 (67469) - http://www.bohemiancoding.com/sketch -->
    <title>Fill 1</title>
    <desc>Created with Sketch.</desc>
    <g id="Visual-Logistics" stroke="none" stroke-width="1" fill="none" fill-rule="evenodd">
        <g id="02.-Chi-tiết-đơn-hàng-chờ-vận-chuyển" transform="translate(-299.000000, -27.000000)" fill="#717286">
            <g id="Group-8" transform="translate(290.000000, 18.000000)">
                <path d="M8.05625,10.5208333 C8.01874981,10.4791667 8,10.4166667 8,10.3333333 C8,10.2361107 8.03124969,10.1562507 8.09375,10.0937493 C8.15625032,10.0312493 8.2312496,10 8.31875,10 L13.68125,10 C13.7687504,10 13.8437492,10.0312493 13.90625,10.0937493 C13.9687508,10.1562507 14,10.2361107 14,10.3333333 C14,10.4027787 13.98125,10.4583333 13.94375,10.5 L13.90625,10.5625 L11.35625,13.8125 C11.24375,13.9375006 11.1250004,14 11,14 C10.8749996,14 10.75625,13.9375006 10.64375,13.8125 L8.09375,10.5625 L8.05625,10.5208333 Z" id="Fill-1" transform="translate(11.000000, 12.000000) rotate(-270.000000) translate(-11.000000, -12.000000) "></path>
            </g>
        </g>
    </g>
</svg>