<?xml version="1.0" encoding="UTF-8"?>
<svg width="6px" height="4px" viewBox="0 0 6 4" version="1.1" xmlns="http://www.w3.org/2000/svg" xmlns:xlink="http://www.w3.org/1999/xlink">
    <!-- Generator: Sketch 52.5 (67469) - http://www.bohemiancoding.com/sketch -->
    <title>Fill 1</title>
    <desc>Created with Sketch.</desc>
    <g id="Visual-Logistics" stroke="none" stroke-width="1" fill="none" fill-rule="evenodd">
        <g id="01.-Tài-khoản-Logistic" transform="translate(-1464.000000, -29.000000)" fill="#717286">
            <g id="Group" transform="translate(1365.000000, 23.000000)">
                <path d="M99.05625,6.52083333 C99.0187498,6.47916667 99,6.41666667 99,6.33333333 C99,6.23611067 99.0312497,6.15625067 99.09375,6.09374933 C99.1562503,6.03124933 99.2312496,6 99.31875,6 L104.68125,6 C104.76875,6 104.843749,6.03124933 104.90625,6.09374933 C104.968751,6.15625067 105,6.23611067 105,6.33333333 C105,6.40277867 104.98125,6.45833333 104.94375,6.5 L104.90625,6.5625 L102.35625,9.8125 C102.24375,9.93750063 102.125,10 102,10 C101.875,10 101.75625,9.93750063 101.64375,9.8125 L99.09375,6.5625 L99.05625,6.52083333 Z" id="Fill-1"></path>
            </g>
        </g>
    </g>
</svg>