<?xml version="1.0" encoding="UTF-8"?>
<svg width="6px" height="4px" viewBox="0 0 6 4" version="1.1" xmlns="http://www.w3.org/2000/svg" xmlns:xlink="http://www.w3.org/1999/xlink">
    <!-- Generator: Sketch 52.5 (67469) - http://www.bohemiancoding.com/sketch -->
    <title>Fill 1</title>
    <desc>Created with Sketch.</desc>
    <g id="Visual-Logistics" stroke="none" stroke-width="1" fill="none" fill-rule="evenodd">
        <g id="02.-Chi-tiết-đơn-hàng-chờ-vận-chuyển" transform="translate(-840.000000, -103.000000)" fill="#717286">
            <g id="Group-8-Copy-10" transform="translate(831.000000, 93.000000)">
                <path d="M9.05625,10.5208333 C9.01874981,10.4791667 9,10.4166667 9,10.3333333 C9,10.2361107 9.03124969,10.1562507 9.09375,10.0937493 C9.15625032,10.0312493 9.2312496,10 9.31875,10 L14.68125,10 C14.7687504,10 14.8437492,10.0312493 14.90625,10.0937493 C14.9687508,10.1562507 15,10.2361107 15,10.3333333 C15,10.4027787 14.98125,10.4583333 14.94375,10.5 L14.90625,10.5625 L12.35625,13.8125 C12.24375,13.9375006 12.1250004,14 12,14 C11.8749996,14 11.75625,13.9375006 11.64375,13.8125 L9.09375,10.5625 L9.05625,10.5208333 Z" id="Fill-1" transform="translate(12.000000, 12.000000) rotate(-180.000000) translate(-12.000000, -12.000000) "></path>
            </g>
        </g>
    </g>
</svg>