<?xml version="1.0" encoding="UTF-8"?>
<svg width="6px" height="4px" viewBox="0 0 6 4" version="1.1" xmlns="http://www.w3.org/2000/svg" xmlns:xlink="http://www.w3.org/1999/xlink">
    <!-- Generator: Sketch 52.5 (67469) - http://www.bohemiancoding.com/sketch -->
    <title>Fill 1</title>
    <desc>Created with Sketch.</desc>
    <g id="Visual-Logistics" stroke="none" stroke-width="1" fill="none" fill-rule="evenodd">
        <g id="01.-Quản-lý-vận-chuyển" transform="translate(-1464.000000, -29.000000)" fill="#717286">
            <g id="Group" transform="translate(1372.000000, 23.000000)">
                <path d="M92.05625,6.52083333 C92.0187498,6.47916667 92,6.41666667 92,6.33333333 C92,6.23611067 92.0312497,6.15625067 92.09375,6.09374933 C92.1562503,6.03124933 92.2312496,6 92.31875,6 L97.68125,6 C97.7687504,6 97.8437492,6.03124933 97.90625,6.09374933 C97.9687508,6.15625067 98,6.23611067 98,6.33333333 C98,6.40277867 97.98125,6.45833333 97.94375,6.5 L97.90625,6.5625 L95.35625,9.8125 C95.24375,9.93750063 95.1250004,10 95,10 C94.8749996,10 94.75625,9.93750063 94.64375,9.8125 L92.09375,6.5625 L92.05625,6.52083333 Z" id="Fill-1"></path>
            </g>
        </g>
    </g>
</svg>