<?xml version="1.0" encoding="UTF-8"?>
<svg width="14px" height="14px" viewBox="0 0 14 14" version="1.1" xmlns="http://www.w3.org/2000/svg" xmlns:xlink="http://www.w3.org/1999/xlink">
    <!-- Generator: Sketch 52.5 (67469) - http://www.bohemiancoding.com/sketch -->
    <title>Combined Shape Copy 2</title>
    <desc>Created with Sketch.</desc>
    <g id="Visual-Logistics" stroke="none" stroke-width="1" fill="none" fill-rule="evenodd">
        <g id="02.1.-Tài-khoản-quản-lý-vận-chuyện---Thêm-mới" transform="translate(-1426.000000, -137.000000)" fill="#444444" fill-rule="nonzero">
            <path d="M1436.55469,143.289062 C1436.25266,143.289062 1436.00781,143.044218 1436.00781,142.742188 C1436.00781,142.440157 1436.25266,142.195312 1436.55469,142.195312 C1436.85672,142.195312 1437.10156,142.440157 1437.10156,142.742188 C1437.10156,143.044218 1436.85672,143.289062 1436.55469,143.289062 Z M1437.8125,138.09375 C1439.01869,138.09375 1440,139.075063 1440,140.28125 L1440,143.398438 C1440,143.700477 1439.75516,143.945312 1439.45312,143.945312 C1439.15109,143.945312 1438.90625,143.700477 1438.90625,143.398438 L1438.90625,140.28125 C1438.90625,139.678156 1438.41559,139.1875 1437.8125,139.1875 L1437.10156,139.1875 L1437.10156,139.734375 C1437.10156,140.036414 1436.85673,140.28125 1436.55469,140.28125 C1436.25265,140.28125 1436.00781,140.036414 1436.00781,139.734375 L1436.00781,139.1875 L1433.51953,139.1875 L1433.51953,139.734375 C1433.51953,140.036414 1433.2747,140.28125 1432.97266,140.28125 C1432.67062,140.28125 1432.42578,140.036414 1432.42578,139.734375 L1432.42578,139.1875 L1429.96484,139.1875 L1429.96484,139.734375 C1429.96484,140.036414 1429.72001,140.28125 1429.41797,140.28125 C1429.11593,140.28125 1428.87109,140.036414 1428.87109,139.734375 L1428.87109,139.1875 L1428.1875,139.1875 C1427.58441,139.1875 1427.09375,139.678156 1427.09375,140.28125 L1427.09375,148.8125 C1427.09375,149.415594 1427.58441,149.90625 1428.1875,149.90625 L1432.37109,149.90625 C1432.67313,149.90625 1432.91797,150.151086 1432.91797,150.453125 C1432.91797,150.755164 1432.67313,151 1432.37109,151 L1428.1875,151 C1426.98131,151 1426,150.018687 1426,148.8125 L1426,140.28125 C1426,139.075063 1426.98131,138.09375 1428.1875,138.09375 L1428.87109,138.09375 L1428.87109,137.546875 C1428.87109,137.244836 1429.11593,137 1429.41797,137 C1429.72001,137 1429.96484,137.244836 1429.96484,137.546875 L1429.96484,138.09375 L1432.42578,138.09375 L1432.42578,137.546875 C1432.42578,137.244836 1432.67062,137 1432.97266,137 C1433.2747,137 1433.51953,137.244836 1433.51953,137.546875 L1433.51953,138.09375 L1436.00781,138.09375 L1436.00781,137.546875 C1436.00781,137.244836 1436.25265,137 1436.55469,137 C1436.85673,137 1437.10156,137.244836 1437.10156,137.546875 L1437.10156,138.09375 L1437.8125,138.09375 Z M1436.69141,144.382812 C1438.51578,144.382812 1440,145.867031 1440,147.691406 C1440,149.515781 1438.51578,151 1436.69141,151 C1434.86703,151 1433.38281,149.515781 1433.38281,147.691406 C1433.38281,145.867031 1434.86703,144.382812 1436.69141,144.382812 Z M1436.69141,149.90625 C1437.91266,149.90625 1438.90625,148.912688 1438.90625,147.691406 C1438.90625,146.470125 1437.91266,145.476562 1436.69141,145.476562 C1435.47015,145.476562 1434.47656,146.470125 1434.47656,147.691406 C1434.47656,148.912688 1435.47015,149.90625 1436.69141,149.90625 Z M1437.48438,147.144531 C1437.78641,147.144531 1438.03125,147.389367 1438.03125,147.691406 C1438.03125,147.993445 1437.78641,148.238281 1437.48438,148.238281 L1436.69141,148.238281 C1436.38937,148.238281 1436.14453,147.993445 1436.14453,147.691406 L1436.14453,146.570312 C1436.14453,146.268273 1436.38937,146.023438 1436.69141,146.023438 C1436.99345,146.023438 1437.23828,146.268273 1437.23828,146.570312 L1437.23828,147.144531 L1437.48438,147.144531 Z M1434.17578,143.289062 C1433.87375,143.289062 1433.62891,143.044218 1433.62891,142.742188 C1433.62891,142.440157 1433.87375,142.195312 1434.17578,142.195312 C1434.47781,142.195312 1434.72266,142.440157 1434.72266,142.742188 C1434.72266,143.044218 1434.47781,143.289062 1434.17578,143.289062 Z M1431.79688,145.667969 C1431.49484,145.667969 1431.25,145.423124 1431.25,145.121094 C1431.25,144.819063 1431.49484,144.574219 1431.79688,144.574219 C1432.09891,144.574219 1432.34375,144.819063 1432.34375,145.121094 C1432.34375,145.423124 1432.09891,145.667969 1431.79688,145.667969 Z M1429.41797,143.289062 C1429.11594,143.289062 1428.87109,143.044218 1428.87109,142.742188 C1428.87109,142.440157 1429.11594,142.195312 1429.41797,142.195312 C1429.72,142.195312 1429.96484,142.440157 1429.96484,142.742188 C1429.96484,143.044218 1429.72,143.289062 1429.41797,143.289062 Z M1429.41797,145.667969 C1429.11594,145.667969 1428.87109,145.423124 1428.87109,145.121094 C1428.87109,144.819063 1429.11594,144.574219 1429.41797,144.574219 C1429.72,144.574219 1429.96484,144.819063 1429.96484,145.121094 C1429.96484,145.423124 1429.72,145.667969 1429.41797,145.667969 Z M1429.41797,148.046875 C1429.11594,148.046875 1428.87109,147.802031 1428.87109,147.5 C1428.87109,147.197969 1429.11594,146.953125 1429.41797,146.953125 C1429.72,146.953125 1429.96484,147.197969 1429.96484,147.5 C1429.96484,147.802031 1429.72,148.046875 1429.41797,148.046875 Z M1431.79688,148.046875 C1431.49484,148.046875 1431.25,147.802031 1431.25,147.5 C1431.25,147.197969 1431.49484,146.953125 1431.79688,146.953125 C1432.09891,146.953125 1432.34375,147.197969 1432.34375,147.5 C1432.34375,147.802031 1432.09891,148.046875 1431.79688,148.046875 Z M1431.79688,143.289062 C1431.49484,143.289062 1431.25,143.044218 1431.25,142.742188 C1431.25,142.440157 1431.49484,142.195312 1431.79688,142.195312 C1432.09891,142.195312 1432.34375,142.440157 1432.34375,142.742188 C1432.34375,143.044218 1432.09891,143.289062 1431.79688,143.289062 Z" id="Combined-Shape-Copy-2"></path>
        </g>
    </g>
</svg>