<?xml version="1.0" encoding="UTF-8"?>
<svg width="14px" height="14px" viewBox="0 0 14 14" version="1.1" xmlns="http://www.w3.org/2000/svg" xmlns:xlink="http://www.w3.org/1999/xlink">
    <!-- Generator: Sketch 52.5 (67469) - http://www.bohemiancoding.com/sketch -->
    <title>Combined Shape</title>
    <desc>Created with Sketch.</desc>
    <g id="Visual-Logistics" stroke="none" stroke-width="1" fill="none" fill-rule="evenodd">
        <g id="08.-Quản-lý-đơn-hàng---Chi-tiết-chưa-thanh-toán" transform="translate(-1193.000000, -392.000000)" fill="#3466E6" fill-rule="nonzero">
            <path d="M1203.55469,398.289062 C1203.25266,398.289062 1203.00781,398.044218 1203.00781,397.742188 C1203.00781,397.440157 1203.25266,397.195312 1203.55469,397.195312 C1203.85672,397.195312 1204.10156,397.440157 1204.10156,397.742188 C1204.10156,398.044218 1203.85672,398.289062 1203.55469,398.289062 Z M1204.8125,393.09375 C1206.01869,393.09375 1207,394.075063 1207,395.28125 L1207,398.398438 C1207,398.700477 1206.75516,398.945312 1206.45312,398.945312 C1206.15109,398.945312 1205.90625,398.700477 1205.90625,398.398438 L1205.90625,395.28125 C1205.90625,394.678156 1205.41559,394.1875 1204.8125,394.1875 L1204.10156,394.1875 L1204.10156,394.734375 C1204.10156,395.036414 1203.85673,395.28125 1203.55469,395.28125 C1203.25265,395.28125 1203.00781,395.036414 1203.00781,394.734375 L1203.00781,394.1875 L1200.51953,394.1875 L1200.51953,394.734375 C1200.51953,395.036414 1200.2747,395.28125 1199.97266,395.28125 C1199.67062,395.28125 1199.42578,395.036414 1199.42578,394.734375 L1199.42578,394.1875 L1196.96484,394.1875 L1196.96484,394.734375 C1196.96484,395.036414 1196.72001,395.28125 1196.41797,395.28125 C1196.11593,395.28125 1195.87109,395.036414 1195.87109,394.734375 L1195.87109,394.1875 L1195.1875,394.1875 C1194.58441,394.1875 1194.09375,394.678156 1194.09375,395.28125 L1194.09375,403.8125 C1194.09375,404.415594 1194.58441,404.90625 1195.1875,404.90625 L1199.37109,404.90625 C1199.67313,404.90625 1199.91797,405.151086 1199.91797,405.453125 C1199.91797,405.755164 1199.67313,406 1199.37109,406 L1195.1875,406 C1193.98131,406 1193,405.018687 1193,403.8125 L1193,395.28125 C1193,394.075063 1193.98131,393.09375 1195.1875,393.09375 L1195.87109,393.09375 L1195.87109,392.546875 C1195.87109,392.244836 1196.11593,392 1196.41797,392 C1196.72001,392 1196.96484,392.244836 1196.96484,392.546875 L1196.96484,393.09375 L1199.42578,393.09375 L1199.42578,392.546875 C1199.42578,392.244836 1199.67062,392 1199.97266,392 C1200.2747,392 1200.51953,392.244836 1200.51953,392.546875 L1200.51953,393.09375 L1203.00781,393.09375 L1203.00781,392.546875 C1203.00781,392.244836 1203.25265,392 1203.55469,392 C1203.85673,392 1204.10156,392.244836 1204.10156,392.546875 L1204.10156,393.09375 L1204.8125,393.09375 Z M1203.69141,399.382812 C1205.51578,399.382812 1207,400.867031 1207,402.691406 C1207,404.515781 1205.51578,406 1203.69141,406 C1201.86703,406 1200.38281,404.515781 1200.38281,402.691406 C1200.38281,400.867031 1201.86703,399.382812 1203.69141,399.382812 Z M1203.69141,404.90625 C1204.91266,404.90625 1205.90625,403.912688 1205.90625,402.691406 C1205.90625,401.470125 1204.91266,400.476562 1203.69141,400.476562 C1202.47015,400.476562 1201.47656,401.470125 1201.47656,402.691406 C1201.47656,403.912688 1202.47015,404.90625 1203.69141,404.90625 Z M1204.48438,402.144531 C1204.78641,402.144531 1205.03125,402.389367 1205.03125,402.691406 C1205.03125,402.993445 1204.78641,403.238281 1204.48438,403.238281 L1203.69141,403.238281 C1203.38937,403.238281 1203.14453,402.993445 1203.14453,402.691406 L1203.14453,401.570312 C1203.14453,401.268273 1203.38937,401.023438 1203.69141,401.023438 C1203.99345,401.023438 1204.23828,401.268273 1204.23828,401.570312 L1204.23828,402.144531 L1204.48438,402.144531 Z M1201.17578,398.289062 C1200.87375,398.289062 1200.62891,398.044218 1200.62891,397.742188 C1200.62891,397.440157 1200.87375,397.195312 1201.17578,397.195312 C1201.47781,397.195312 1201.72266,397.440157 1201.72266,397.742188 C1201.72266,398.044218 1201.47781,398.289062 1201.17578,398.289062 Z M1198.79688,400.667969 C1198.49484,400.667969 1198.25,400.423124 1198.25,400.121094 C1198.25,399.819063 1198.49484,399.574219 1198.79688,399.574219 C1199.09891,399.574219 1199.34375,399.819063 1199.34375,400.121094 C1199.34375,400.423124 1199.09891,400.667969 1198.79688,400.667969 Z M1196.41797,398.289062 C1196.11594,398.289062 1195.87109,398.044218 1195.87109,397.742188 C1195.87109,397.440157 1196.11594,397.195312 1196.41797,397.195312 C1196.72,397.195312 1196.96484,397.440157 1196.96484,397.742188 C1196.96484,398.044218 1196.72,398.289062 1196.41797,398.289062 Z M1196.41797,400.667969 C1196.11594,400.667969 1195.87109,400.423124 1195.87109,400.121094 C1195.87109,399.819063 1196.11594,399.574219 1196.41797,399.574219 C1196.72,399.574219 1196.96484,399.819063 1196.96484,400.121094 C1196.96484,400.423124 1196.72,400.667969 1196.41797,400.667969 Z M1196.41797,403.046875 C1196.11594,403.046875 1195.87109,402.802031 1195.87109,402.5 C1195.87109,402.197969 1196.11594,401.953125 1196.41797,401.953125 C1196.72,401.953125 1196.96484,402.197969 1196.96484,402.5 C1196.96484,402.802031 1196.72,403.046875 1196.41797,403.046875 Z M1198.79688,403.046875 C1198.49484,403.046875 1198.25,402.802031 1198.25,402.5 C1198.25,402.197969 1198.49484,401.953125 1198.79688,401.953125 C1199.09891,401.953125 1199.34375,402.197969 1199.34375,402.5 C1199.34375,402.802031 1199.09891,403.046875 1198.79688,403.046875 Z M1198.79688,398.289062 C1198.49484,398.289062 1198.25,398.044218 1198.25,397.742188 C1198.25,397.440157 1198.49484,397.195312 1198.79688,397.195312 C1199.09891,397.195312 1199.34375,397.440157 1199.34375,397.742188 C1199.34375,398.044218 1199.09891,398.289062 1198.79688,398.289062 Z" id="Combined-Shape"></path>
        </g>
    </g>
</svg>