<?xml version="1.0" encoding="UTF-8"?>
<svg width="15px" height="16px" viewBox="0 0 15 16" version="1.1" xmlns="http://www.w3.org/2000/svg" xmlns:xlink="http://www.w3.org/1999/xlink">
    <!-- Generator: Sketch 52.5 (67469) - http://www.bohemiancoding.com/sketch -->
    <title>Combined Shape</title>
    <desc>Created with Sketch.</desc>
    <g id="Visual-Logistics" stroke="none" stroke-width="1" fill="none" fill-rule="evenodd">
        <g id="11.-Trưởng-phòng---Tạo-đơn-hàng" transform="translate(-840.000000, -291.000000)" fill="#3466E6">
            <g id="Group-10" transform="translate(290.000000, 80.000000)">
                <path d="M562.917514,221.196811 L565,221.196811 L565,225.926146 C565,226.519648 564.533949,227 563.957205,227 L551.042795,227 C550.465533,227 550,226.519114 550,225.926146 L550,221.196811 L552.082486,221.196811 L552.082486,224.851758 L562.917514,224.851758 L562.917514,221.196811 Z M557.30939,220.834412 L554.327908,217.117019 C554.327908,217.117019 553.874272,216.675095 554.366185,216.675095 C554.858099,216.675095 556.046243,216.675095 556.046243,216.675095 C556.046243,216.675095 556.046243,216.37781 556.046243,215.919341 C556.046243,214.612249 556.046243,212.233438 556.046243,211.26366 C556.046243,211.26366 555.979517,211 556.364357,211 C556.752302,211 558.451498,211 558.729267,211 C559.006517,211 559.00031,211.222029 559.00031,211.222029 C559.00031,212.162452 559.00031,214.623457 559.00031,215.887851 C559.00031,216.297752 559.00031,216.563547 559.00031,216.563547 C559.00031,216.563547 559.953102,216.563547 560.551053,216.563547 C561.147971,216.563547 560.698472,217.026286 560.698472,217.026286 C560.698472,217.026286 558.161833,220.500834 557.808028,220.865368 C557.553536,221.129562 557.30939,220.834412 557.30939,220.834412 Z" id="Combined-Shape"></path>
            </g>
        </g>
    </g>
</svg>