<?xml version="1.0" encoding="UTF-8"?>
<svg width="14px" height="13px" viewBox="0 0 14 13" version="1.1" xmlns="http://www.w3.org/2000/svg" xmlns:xlink="http://www.w3.org/1999/xlink">
    <!-- Generator: Sketch 52.5 (67469) - http://www.bohemiancoding.com/sketch -->
    <title>excel (1)</title>
    <desc>Created with Sketch.</desc>
    <g id="Visual-Logistics" stroke="none" stroke-width="1" fill="none" fill-rule="evenodd">
        <g id="01.-Quản-lý-hợp-đồng" transform="translate(-1268.000000, -234.000000)">
            <g id="excel-(1)" transform="translate(1268.000000, 234.000000)">
                <path d="M13.5625,11.2471846 L7.4375,11.2471846 C7.196,11.2471846 7,11.0538568 7,10.8156494 C7,10.5774419 7,2.42315145 7,2.18494398 C7,1.94673651 7.196,1.75340871 7.4375,1.75340871 L13.5625,1.75340871 C13.804,1.75340871 14,1.94673651 14,2.18494398 L14,10.8156494 C14,11.0538568 13.804,11.2471846 13.5625,11.2471846 Z" id="Path" fill="#ECEFF1"></path>
                <g id="Group" transform="translate(7.000000, 3.479253)" fill="#388E3C">
                    <path d="M2.1875,0.86336722 L0.4375,0.86336722 C0.196,0.86336722 0,0.670039419 0,0.43183195 C0,0.193624481 0.196,0.000296680498 0.4375,0.000296680498 L2.1875,0.000296680498 C2.429,0.000296680498 2.625,0.193624481 2.625,0.43183195 C2.625,0.670039419 2.429,0.86336722 2.1875,0.86336722 Z" id="Path"></path>
                    <path d="M2.1875,2.5895083 L0.4375,2.5895083 C0.196,2.5895083 0,2.3961805 0,2.15797303 C0,1.91976556 0.196,1.72643776 0.4375,1.72643776 L2.1875,1.72643776 C2.429,1.72643776 2.625,1.91976556 2.625,2.15797303 C2.625,2.3961805 2.429,2.5895083 2.1875,2.5895083 Z" id="Path"></path>
                    <path d="M2.1875,4.31564938 L0.4375,4.31564938 C0.196,4.31564938 0,4.12232158 0,3.88411411 C0,3.64590664 0.196,3.45257884 0.4375,3.45257884 L2.1875,3.45257884 C2.429,3.45257884 2.625,3.64590664 2.625,3.88411411 C2.625,4.12232158 2.429,4.31564938 2.1875,4.31564938 Z" id="Path"></path>
                    <path d="M2.1875,6.04179046 L0.4375,6.04179046 C0.196,6.04179046 0,5.84846266 0,5.61025519 C0,5.37204772 0.196,5.17871992 0.4375,5.17871992 L2.1875,5.17871992 C2.429,5.17871992 2.625,5.37204772 2.625,5.61025519 C2.625,5.84846266 2.429,6.04179046 2.1875,6.04179046 Z" id="Path"></path>
                    <path d="M4.8125,0.86336722 L3.9375,0.86336722 C3.696,0.86336722 3.5,0.670039419 3.5,0.43183195 C3.5,0.193624481 3.696,0.000296680498 3.9375,0.000296680498 L4.8125,0.000296680498 C5.054,0.000296680498 5.25,0.193624481 5.25,0.43183195 C5.25,0.670039419 5.054,0.86336722 4.8125,0.86336722 Z" id="Path"></path>
                    <path d="M4.8125,2.5895083 L3.9375,2.5895083 C3.696,2.5895083 3.5,2.3961805 3.5,2.15797303 C3.5,1.91976556 3.696,1.72643776 3.9375,1.72643776 L4.8125,1.72643776 C5.054,1.72643776 5.25,1.91976556 5.25,2.15797303 C5.25,2.3961805 5.054,2.5895083 4.8125,2.5895083 Z" id="Path"></path>
                    <path d="M4.8125,4.31564938 L3.9375,4.31564938 C3.696,4.31564938 3.5,4.12232158 3.5,3.88411411 C3.5,3.64590664 3.696,3.45257884 3.9375,3.45257884 L4.8125,3.45257884 C5.054,3.45257884 5.25,3.64590664 5.25,3.88411411 C5.25,4.12232158 5.054,4.31564938 4.8125,4.31564938 Z" id="Path"></path>
                    <path d="M4.8125,6.04179046 L3.9375,6.04179046 C3.696,6.04179046 3.5,5.84846266 3.5,5.61025519 C3.5,5.37204772 3.696,5.17871992 3.9375,5.17871992 L4.8125,5.17871992 C5.054,5.17871992 5.25,5.37204772 5.25,5.61025519 C5.25,5.84846266 5.054,6.04179046 4.8125,6.04179046 Z" id="Path"></path>
                </g>
                <path d="M7.716625,0.126520747 C7.616875,0.0445290456 7.483,0.00914315353 7.357,0.0350352697 L0.357,1.32964108 C0.149625,1.36761618 0,1.54540871 0,1.75340871 L0,11.2471846 C0,11.4543216 0.149625,11.6329772 0.357,11.6709523 L7.357,12.9655581 C7.38325,12.9707365 7.410375,12.9733257 7.4375,12.9733257 C7.539,12.9733257 7.637875,12.9388029 7.716625,12.8740726 C7.81725,12.7920809 7.875,12.6695249 7.875,12.5417905 L7.875,0.458802905 C7.875,0.330205394 7.81725,0.208512448 7.716625,0.126520747 Z" id="Path" fill="#2E7D32"></path>
                <path d="M6.0165,7.94248755 L4.633125,6.38291909 L6.03225,4.60844606 C6.181,4.42029668 6.146,4.14929253 5.956125,4.00257054 C5.76625,3.85584855 5.4915,3.89037137 5.341875,4.07765768 L4.046,5.72094398 L2.954,4.49020539 C2.793875,4.30896058 2.517375,4.29256224 2.337125,4.44964108 C2.155125,4.60671992 2.13675,4.87945021 2.296,5.05810581 L3.499125,6.4148527 L2.279375,7.9614751 C2.130625,8.14962448 2.165625,8.42062863 2.3555,8.56735062 C2.436,8.62862863 2.531375,8.65797303 2.625,8.65797303 C2.755375,8.65797303 2.884,8.60101037 2.970625,8.49140041 L4.08625,7.07596473 L5.3585,8.5095249 C5.445125,8.60791494 5.565875,8.65797303 5.6875,8.65797303 C5.789875,8.65797303 5.89225,8.62258714 5.975375,8.55095228 C6.157375,8.39387344 6.17575,8.12114315 6.0165,7.94248755 Z" id="Path" fill="#FAFAFA"></path>
            </g>
        </g>
    </g>
</svg>