<?xml version="1.0" encoding="UTF-8"?>
<svg width="16px" height="16px" viewBox="0 0 16 16" version="1.1" xmlns="http://www.w3.org/2000/svg" xmlns:xlink="http://www.w3.org/1999/xlink">
    <!-- Generator: Sketch 52.5 (67469) - http://www.bohemiancoding.com/sketch -->
    <title>giaohang-active</title>
    <desc>Created with Sketch.</desc>
    <g id="Visual-Logistics" stroke="none" stroke-width="1" fill="none" fill-rule="evenodd">
        <path d="M15.8168945,6.32885744 L13.3586426,3.87048341 C13.2414551,3.75329591 13.0823975,3.6875 12.916626,3.6875 L11.083374,3.6875 L11.083374,1.85412597 C11.083374,1.50903319 10.8034668,1.22912597 10.458374,1.22912597 L8.625,1.22912597 L8.625,0.625 C8.625,0.279785156 8.34521484,0 8,0 C7.65478516,0 7.375,0.279785156 7.375,0.625 L7.375,1.22912597 L3.08337403,1.22912597 C2.91760253,1.22912597 2.75854494,1.29504394 2.64135744,1.41223144 L0.183105469,3.87060547 C-0.0610351562,4.11462403 -0.0610351562,4.51037597 0.183105469,4.75439453 L2.64135744,7.21276856 C2.75854494,7.32995606 2.91760253,7.39587403 3.08337403,7.39587403 L4.91674806,7.39587403 L4.91674806,9.22924806 C4.91674806,9.57434081 5.19653319,9.85424806 5.54174806,9.85424806 L7.375,9.85424806 L7.375,14.75 L4.3125,14.75 C3.96728516,14.75 3.6875,15.0297852 3.6875,15.375 C3.6875,15.7202148 3.96728516,16 4.3125,16 L11.6875,16 C12.0327148,16 12.3125,15.7202148 12.3125,15.375 C12.3125,15.0297852 12.0327148,14.75 11.6875,14.75 L8.625,14.75 L8.625,9.85412597 L12.916626,9.85412597 C13.0823975,9.85412597 13.2414551,9.78833006 13.3586426,9.67114256 L15.8168945,7.21276856 C16.0610352,6.96875 16.0610352,6.57299806 15.8168945,6.32885744 Z M3.34228516,6.14587403 L1.50891113,4.3125 L3.34228516,2.47912597 L9.83337403,2.47912597 L9.83337403,3.6875 L5.54162597,3.6875 C5.19653319,3.6875 4.91662597,3.96728516 4.91662597,4.3125 L4.91662597,6.14587403 L3.34228516,6.14587403 Z M12.6578369,8.60412597 L6.16662597,8.60412597 L6.16662597,4.9375 L12.6578369,4.9375 L14.4910889,6.77087403 L12.6578369,8.60412597 Z" id="giaohang-active" fill="#3466E6"></path>
    </g>
</svg>