<?xml version="1.0" encoding="UTF-8"?>
<svg width="16px" height="16px" viewBox="0 0 16 16" version="1.1" xmlns="http://www.w3.org/2000/svg" xmlns:xlink="http://www.w3.org/1999/xlink">
    <!-- Generator: Sketch 52.5 (67469) - http://www.bohemiancoding.com/sketch -->
    <title>hoadondaura-active</title>
    <desc>Created with Sketch.</desc>
    <g id="Visual-Logistics" stroke="none" stroke-width="1" fill="none" fill-rule="evenodd">
        <path d="M15.9999678,0.537890706 L16,0.537890706 L16,12.9907108 C16,13.139273 15.9400283,13.2737295 15.8433018,13.370916 L15.8427873,13.3714337 L13.3863271,15.8418292 L13.3858126,15.8423468 C13.2892469,15.939501 13.1556049,16 13.0079105,16 L4.74146247,16 C4.44655605,16 4.20683002,15.7592983 4.20683002,15.4621093 L4.20683002,10.9078968 L5.27609493,10.9078968 L5.27609493,14.9242833 L12.4733102,14.9242833 L12.4733102,12.9907108 C12.4733102,12.6933601 12.7128433,12.4527878 13.0079105,12.4527878 L14.9307029,12.4527878 L14.9307029,1.07578141 L5.27609493,1.07578141 L5.27609493,5.12568496 L4.20683002,5.12568496 L4.20683002,0.537890706 C4.20683002,0.240734076 4.44655605,0 4.74146247,0 L15.4653675,0 C15.7602418,0 15.9999678,0.240734076 15.9999678,0.537890706 Z M3.49225031,10.5890964 C3.49225031,10.7791667 3.37848093,10.9509902 3.20358222,11.0235242 C3.14560422,11.0475944 3.08495723,11.0592413 3.02450318,11.0592413 C2.90237314,11.0592413 2.78271915,11.0115538 2.69354942,10.9215819 L0.137372178,8.34930867 C0.0496494951,8.26105137 0,8.14141226 0,8.01682324 C0,7.89178128 0.0496494951,7.77214217 0.137372178,7.68388487 L2.69354942,5.11212931 C2.78323365,5.0217044 2.90285549,4.97398464 3.02450318,4.97398464 C3.08498939,4.97398464 3.14563638,4.98559915 3.20358222,5.00960461 C3.37848093,5.082721 3.49225031,5.25451215 3.49225031,5.44458239 L3.49225031,6.20149872 L7.63560358,6.20149872 C7.89356229,6.20149872 8.10341501,6.41204803 8.10341501,6.67212883 L8.10341501,9.36155 C8.10341501,9.6215661 7.89359444,9.83224481 7.63560358,9.83224481 L3.49225031,9.83224481 L3.49225031,10.5890964 Z" id="hoadondaura-active" fill="#3466E6"></path>
    </g>
</svg>