<?xml version="1.0" encoding="UTF-8"?>
<svg width="13px" height="12px" viewBox="0 0 13 12" version="1.1" xmlns="http://www.w3.org/2000/svg" xmlns:xlink="http://www.w3.org/1999/xlink">
    <!-- Generator: Sketch 52.5 (67469) - http://www.bohemiancoding.com/sketch -->
    <title>Shape</title>
    <desc>Created with Sketch.</desc>
    <g id="Visual-Logistics" stroke="none" stroke-width="1" fill="none" fill-rule="evenodd">
        <g id="01.-Quản-lý-hợp-đồng" transform="translate(-1283.000000, -93.000000)" fill="#3466E6" fill-rule="nonzero">
            <g id="Group-6" transform="translate(1268.000000, 81.000000)">
                <g id="Group-3">
                    <g id="Group-7" transform="translate(15.000000, 10.000000)">
                        <path d="M12.5589208,7.44136855 C12.2645123,7.14698907 11.9116545,6.99988142 11.5002104,6.99988142 L11.0003262,6.99988142 L11.0003262,4.99989054 C11.0003262,4.79162486 10.9480611,4.5623438 10.8438319,4.31245781 C10.7396848,4.06246237 10.6147685,3.86456756 10.4689735,3.71871865 L9.28129692,2.53118558 C9.13550192,2.38547348 8.93760599,2.26042104 8.68771861,2.15619242 C8.43766704,2.05207326 8.20863097,2 8.00017257,2 L2.75007471,2 C2.54172577,2 2.36459907,2.07286973 2.21874933,2.21871865 C2.07298169,2.36448547 2.0000021,2.54158382 2.0000021,2.74995895 L2.0000021,6.99988142 L1.50003578,6.99988142 C1.0885644,6.99988142 0.735706554,7.14707116 0.44138015,7.44136855 C0.147108474,7.73558385 0,8.08846708 0,8.49996351 L0,11.750041 C0,11.8178485 0.0247643544,11.8761607 0.0742109713,11.9258807 C0.123712316,11.9752449 0.182325849,11.9999544 0.249969478,11.9999544 L2.0000021,11.9999544 L2.0000021,13.2499316 C2.0000021,13.4583615 2.0728996,13.6354598 2.21874933,13.781254 C2.36459907,13.9269661 2.54172577,14 2.75007471,14 L10.250062,14 C10.4583289,14 10.6357019,13.9269661 10.7814148,13.781254 C10.9272098,13.6353503 11.000162,13.4583615 11.000162,13.2499316 L11.000162,11.9999544 L12.7501673,11.9999544 C12.8177835,11.9999544 12.8763971,11.9752449 12.9258437,11.9258807 C12.9752903,11.876188 12.9999999,11.8178485 12.9999999,11.750041 L12.9999999,8.49996351 C13.0001094,8.08846708 12.8530556,7.73558385 12.5589208,7.44136855 Z M10.0001199,12.9999909 L3.00007155,12.9999909 L3.00007155,11.0000547 L10.0001199,11.0000547 L10.0001199,12.9999909 Z M10.0001199,7.99994527 L3.00007155,7.99994527 L3.00007155,3.00000912 L8.00017257,3.00000912 L8.00017257,4.24995895 C8.00017257,4.45830673 8.07320689,4.63532298 8.21883771,4.78119926 C8.36463272,4.92704818 8.54170469,4.99991791 8.75016309,4.99991791 L10.0001199,4.99991791 L10.0001199,7.99994527 Z M11.8517548,8.85147856 C11.7528616,8.95037124 11.6356345,9.00000912 11.5002104,9.00000912 C11.3647864,9.00000912 11.2475593,8.9503986 11.1486387,8.85147856 C11.0497728,8.75269533 11.0003262,8.63535947 11.0003262,8.49993615 C11.0003262,8.36451283 11.0497728,8.24731379 11.1486387,8.14839375 C11.2475319,8.04941898 11.364759,7.99991791 11.5002104,7.99991791 C11.6356072,7.99991791 11.7528342,8.04941898 11.8517548,8.14839375 C11.9506207,8.24728643 12.0002588,8.36451283 12.0002588,8.49993615 C12.0002588,8.63535947 11.9507301,8.75269533 11.8517548,8.85147856 Z" id="Shape"></path>
                    </g>
                </g>
            </g>
        </g>
    </g>
</svg>