<?xml version="1.0" encoding="UTF-8"?>
<svg width="16px" height="16px" viewBox="0 0 16 16" version="1.1" xmlns="http://www.w3.org/2000/svg" xmlns:xlink="http://www.w3.org/1999/xlink">
    <!-- Generator: Sketch 52.5 (67469) - http://www.bohemiancoding.com/sketch -->
    <title>hohanghethong-active</title>
    <desc>Created with Sketch.</desc>
    <g id="Visual-Logistics" stroke="none" stroke-width="1" fill="none" fill-rule="evenodd">
        <path d="M14.145874,8.8817842e-16 L1.85412597,8.8817842e-16 C0.831787125,8.8817842e-16 0,0.831787125 0,1.85412597 L0,11.6875 C0,12.7098389 0.831787125,13.541626 1.85412597,13.541626 L4.91662597,13.541626 L4.91662597,14.75 L4.3125,14.75 C3.96728516,14.75 3.6875,15.0297852 3.6875,15.375 C3.6875,15.7202148 3.96728516,16 4.3125,16 L11.6875,16 C12.0327148,16 12.3125,15.7202148 12.3125,15.375 C12.3125,15.0297852 12.0327148,14.75 11.6875,14.75 L11.083374,14.75 L11.083374,13.541626 L14.145874,13.541626 C15.1682129,13.541626 16,12.7098389 16,11.6875 L16,1.85412597 C16,0.831787125 15.1682129,0 14.145874,8.8817842e-16 Z M1.85412597,1.25 L14.1457519,1.25 C14.4790039,1.25 14.75,1.52099609 14.75,1.85412597 L14.75,9.83325194 L1.25,9.83325194 L1.25,1.85412597 C1.25,1.52099609 1.52099609,1.25 1.85412597,1.25 Z M9.83337403,14.75 L6.16662597,14.75 L6.16662597,13.541626 L9.83325194,13.541626 L9.83325194,14.75 L9.83337403,14.75 Z M14.145874,12.291626 L1.85412597,12.291626 C1.52099609,12.291626 1.25,12.0206299 1.25,11.6875 L1.25,11.083374 L14.75,11.083374 L14.75,11.6875 C14.75,12.0206299 14.4790039,12.291626 14.145874,12.291626 Z M5.54174806,8.625 L10.4582519,8.625 C10.8034668,8.625 11.0832519,8.34521484 11.0832519,8 L11.0832519,5.54174806 C11.0832519,5.37597656 11.0174561,5.21691894 10.9002686,5.09973144 L8.44177247,2.64135744 C8.32458497,2.52416994 8.16564941,2.45825194 7.99975588,2.45825194 C7.83398438,2.45825194 7.67504881,2.52416994 7.55786131,2.64135744 L5.09973144,5.0998535 C4.98254394,5.217041 4.91674806,5.37597656 4.91674806,5.54174806 L4.91674806,8 C4.91674806,8.34521484 5.19653319,8.625 5.54174806,8.625 Z M6.16674806,5.80053713 L7.99987794,3.96716309 L9.83325194,5.80065919 L9.83325194,7.375 L6.16674806,7.375 L6.16674806,5.80053713 Z" id="hohanghethong-active" fill="#3466E6"></path>
    </g>
</svg>