<?xml version="1.0" encoding="UTF-8"?>
<svg width="16px" height="16px" viewBox="0 0 16 16" version="1.1" xmlns="http://www.w3.org/2000/svg" xmlns:xlink="http://www.w3.org/1999/xlink">
    <!-- Generator: Sketch 52.5 (67469) - http://www.bohemiancoding.com/sketch -->
    <title>khohang-active</title>
    <desc>Created with Sketch.</desc>
    <g id="Visual-Logistics" stroke="none" stroke-width="1" fill="none" fill-rule="evenodd">
        <path d="M15.8154655,7.94360562 C15.6936351,8.06469934 15.5342056,8.1252462 15.3750204,8.1252462 C15.2143702,8.1252462 15.0538421,8.06372278 14.9316455,7.94079803 L14.4374875,7.44336163 L14.4374875,9.87524574 C14.4374875,10.2203384 14.1576926,10.5001235 13.8124656,10.5001235 L12.937557,10.5001235 C12.5923301,10.5001235 12.3125351,10.2203384 12.3125351,9.87524574 C12.3125351,9.53003102 12.5923301,9.2502459 12.937557,9.2502459 L13.1875658,9.2502459 L13.1875658,6.18518324 L8.43410325,1.40063859 C8.20081873,1.20080955 7.85742291,1.20007715 7.62328383,1.39892962 L2.81159174,6.20105239 C2.81171381,6.20703383 2.81244627,6.21301526 2.81244627,6.21911879 L2.81244627,9.2502459 L3.09370613,9.2502459 C3.43893308,9.2502459 3.71872804,9.53003102 3.71872804,9.87524574 C3.71872804,10.2203384 3.43893308,10.5001235 3.09370613,10.5001235 L2.18754643,10.5001235 C1.84231949,10.5001235 1.56252453,10.2203384 1.56252453,9.87524574 L1.56252453,7.44763409 L1.06653545,7.94262906 C0.822142138,8.18640343 0.426498395,8.18615928 0.182593346,7.94177459 C-0.0611896045,7.69751194 -0.060823373,7.3017601 0.183447876,7.05786367 L6.75508934,0.499515799 C6.76351248,0.491092957 6.77205771,0.483036303 6.78096915,0.475101743 C7.49473929,-0.160396121 8.56936193,-0.15807681 9.28044641,0.480350772 C9.28923579,0.488285333 9.29790309,0.496464049 9.30620413,0.504886891 L15.8183953,7.05981679 C16.0616899,7.30468979 16.0603471,7.70031956 15.8154655,7.94360562 Z M13.8124656,11.7501232 C13.4673607,11.7501232 13.1875658,12.0299083 13.1875658,12.375123 L13.1875658,14.7500003 L12.937557,14.7500003 C12.5923301,14.7500003 12.3125351,15.0297854 12.3125351,15.3750002 C12.3125351,15.7202149 12.5923301,16 12.937557,16 L13.8124656,16 C14.1576926,16 14.4374875,15.7202149 14.4374875,15.3750002 L14.4374875,12.375123 C14.4374875,12.0299083 14.1576926,11.7501232 13.8124656,11.7501232 Z M3.09370613,14.7500003 L2.81244627,14.7500003 L2.81244627,12.375123 C2.81244627,12.0299083 2.53265131,11.7501232 2.18754643,11.7501232 C1.84231949,11.7501232 1.56252453,12.0299083 1.56252453,12.375123 L1.56252453,15.3750002 C1.56252453,15.7202149 1.84231949,16 2.18754643,16 L3.09370613,16 C3.43893308,16 3.71872804,15.7202149 3.71872804,15.3750002 C3.71872804,15.0297854 3.43893308,14.7500003 3.09370613,14.7500003 Z M8.00000604,14.7500003 C7.65477906,14.7500003 7.37498413,15.0297854 7.37498413,15.3750002 C7.37498413,15.7202149 7.65477906,16 8.00000604,16 C8.34523295,16 8.62502794,15.7202149 8.62502794,15.3750002 C8.62502794,15.0297854 8.34523295,14.7500003 8.00000604,14.7500003 Z M10.4374694,14.7500003 C10.0923645,14.7500003 9.81244747,15.0297854 9.81244747,15.3750002 C9.81244747,15.7202149 10.0923645,16 10.4374694,16 C10.7826963,16 11.0624913,15.7202149 11.0624913,15.3750002 C11.0624913,15.0297854 10.7826963,14.7500003 10.4374694,14.7500003 Z M5.56254266,14.7500003 C5.21731572,14.7500003 4.93752076,15.0297854 4.93752076,15.3750002 C4.93752076,15.7202149 5.21731572,16 5.56254266,16 C5.90764751,16 6.1874425,15.7202149 6.1874425,15.3750002 C6.1874425,15.0297854 5.90764751,14.7500003 5.56254266,14.7500003 Z M8.00000604,9.2502459 C7.65477906,9.2502459 7.37498413,9.53003102 7.37498413,9.87524574 C7.37498413,10.2203384 7.65477906,10.5001235 8.00000604,10.5001235 C8.34523295,10.5001235 8.62502794,10.2203384 8.62502794,9.87524574 C8.62502794,9.53003102 8.34523295,9.2502459 8.00000604,9.2502459 Z M10.4374694,9.2502459 C10.0923645,9.2502459 9.81244747,9.53003102 9.81244747,9.87524574 C9.81244747,10.2203384 10.0923645,10.5001235 10.4374694,10.5001235 C10.7826963,10.5001235 11.0624913,10.2203384 11.0624913,9.87524574 C11.0624913,9.53003102 10.7826963,9.2502459 10.4374694,9.2502459 Z M5.56254266,9.2502459 C5.21731572,9.2502459 4.93752076,9.53003102 4.93752076,9.87524574 C4.93752076,10.2203384 5.21731572,10.5001235 5.56254266,10.5001235 C5.90764751,10.5001235 6.1874425,10.2203384 6.1874425,9.87524574 C6.1874425,9.53003102 5.90764751,9.2502459 5.56254266,9.2502459 Z" id="khohang-active" fill="#3466E6"></path>
    </g>
</svg>