<?xml version="1.0" encoding="UTF-8"?>
<svg width="13px" height="16px" viewBox="0 0 13 16" version="1.1" xmlns="http://www.w3.org/2000/svg" xmlns:xlink="http://www.w3.org/1999/xlink">
    <!-- Generator: Sketch 52.5 (67469) - http://www.bohemiancoding.com/sketch -->
    <title>Fill 1</title>
    <desc>Created with Sketch.</desc>
    <g id="Visual-Logistics" stroke="none" stroke-width="1" fill="none" fill-rule="evenodd">
        <g id="01.-Tài-khoản-Logistic" transform="translate(-1448.000000, -240.000000)" fill="#979EAF">
            <g id="Group-3" transform="translate(1438.000000, 232.000000)">
                <path d="M21.3797642,12.8018761 L20.5601173,12.8018761 L20.5601173,11.1887434 C20.5601173,10.3133974 20.2424275,9.56311151 19.6070381,8.93786402 C18.9716488,8.31261894 18.2091927,8 17.3196481,8 L15.6803519,8 C14.7908073,8 14.0283512,8.31261894 13.3929619,8.93786402 C12.7575725,9.56311151 12.4398827,10.3133974 12.4398827,11.1887434 L12.4398827,12.8018761 L11.6202346,12.8018761 C11.175462,12.8018761 10.7942343,12.9581844 10.4765396,13.2708081 C10.158845,13.5834318 10,13.9585736 10,14.3962478 L10,22.4056271 C10,22.8433003 10.158845,23.218443 10.4765396,23.5310668 C10.7942343,23.8436905 11.175462,24 11.6202346,24 L21.3797642,24 C21.8245377,24 22.2057669,23.8436905 22.5234592,23.5310668 C22.8411539,23.218443 23,22.8433003 23,22.4056271 L23,14.3962478 C23,13.9585736 22.8411539,13.5834318 22.5234592,13.2708081 C22.2057669,12.9581844 21.8245377,12.8018761 21.3797642,12.8018761 Z M14.0601161,11.1887434 C14.0601161,10.7510716 14.2189622,10.3759275 14.5366569,10.0633037 C14.8543516,9.75068239 15.2355784,9.59437172 15.6803519,9.59437172 L17.3196481,9.59437172 C17.7644216,9.59437172 18.1456484,9.75068239 18.4633431,10.0633037 C18.7810378,10.3759275 18.9398815,10.7510716 18.9398815,11.1887434 L18.9398815,12.8018761 L14.0601161,12.8018761 L14.0601161,11.1887434 Z M17.3196481,20.0046902 L15.6803519,20.0046902 L15.6803519,16.7971859 L17.3196481,16.7971859 L17.3196481,20.0046902 Z" id="Fill-1"></path>
            </g>
        </g>
    </g>
</svg>