<?xml version="1.0" encoding="UTF-8"?>
<svg width="15px" height="4px" viewBox="0 0 15 4" version="1.1" xmlns="http://www.w3.org/2000/svg" xmlns:xlink="http://www.w3.org/1999/xlink">
    <!-- Generator: Sketch 52.5 (67469) - http://www.bohemiancoding.com/sketch -->
    <title>Shape Copy</title>
    <desc>Created with Sketch.</desc>
    <g id="Visual-Logistics" stroke="none" stroke-width="1" fill="none" fill-rule="evenodd">
        <g id="11.-Trưởng-phòng---Tạo-đơn-hàng" transform="translate(-682.000000, -982.000000)" fill="#3466E6">
            <g id="Group-13-Copy-4" transform="translate(659.000000, 964.000000)">
                <g id="Group-12">
                    <g id="Group-8">
                        <path d="M36.6807684,18 L23.7199409,18 C23.5099877,18 23.3370758,18.0842388 23.2023873,18.2530119 C23.0675413,18.4217849 23,18.6375544 23,18.9000246 L23,20.7001724 C23,20.9628397 23.0673048,21.1785106 23.2023873,21.3467911 C23.337391,21.5150716 23.5099877,21.6 23.7199409,21.6 L36.6807684,21.6 C36.890564,21.6 37.0632395,21.5150716 37.1980067,21.3467911 C37.3329316,21.1785106 37.4,20.9628397 37.4,20.7001724 L37.4,18.9000246 C37.4,18.6375544 37.3328528,18.4214894 37.1980067,18.2530119 C37.0632395,18.0846329 36.890564,18 36.6807684,18 Z" id="Shape-Copy"></path>
                    </g>
                </g>
            </g>
        </g>
    </g>
</svg>