<?xml version="1.0" encoding="UTF-8"?>
<svg width="12px" height="8px" viewBox="0 0 12 8" version="1.1" xmlns="http://www.w3.org/2000/svg" xmlns:xlink="http://www.w3.org/1999/xlink">
    <!-- Generator: Sketch 52.5 (67469) - http://www.bohemiancoding.com/sketch -->
    <title>Path</title>
    <desc>Created with Sketch.</desc>
    <g id="Visual-Logistics" stroke="none" stroke-width="1" fill="none" fill-rule="evenodd">
        <g id="01.-Quản-lý-vận-chuyển" transform="translate(-1437.000000, -897.000000)" fill="#505057">
            <g id="Group-8" transform="translate(1162.000000, 884.000000)">
                <path d="M286.83656,16.6177671 L283.265563,13.1583029 C283.047688,12.9472324 282.694338,12.9472324 282.476462,13.1583029 C282.258542,13.3694167 282.258542,13.7116442 282.476462,13.922758 L285.09494,16.4594533 L275.557968,16.4594533 C275.249836,16.4594533 275,16.7014861 275,16.9999946 C275,17.2984599 275.249836,17.5405359 275.557968,17.5405359 L285.09494,17.5405359 L282.476551,20.0772312 C282.258631,20.288345 282.258631,20.6305725 282.476551,20.8416863 C282.585467,20.9471567 282.728307,21 282.871102,21 C283.013897,21 283.156692,20.9471567 283.265652,20.8416863 L286.83656,17.3822221 C287.05448,17.1711083 287.05448,16.8288808 286.83656,16.6177671 Z" id="Path"></path>
            </g>
        </g>
    </g>
</svg>