<?xml version="1.0" encoding="UTF-8"?>
<svg width="14px" height="16px" viewBox="0 0 14 16" version="1.1" xmlns="http://www.w3.org/2000/svg" xmlns:xlink="http://www.w3.org/1999/xlink">
    <!-- Generator: Sketch 52.5 (67469) - http://www.bohemiancoding.com/sketch -->
    <title> nhapkho-active</title>
    <desc>Created with Sketch.</desc>
    <g id="Visual-Logistics" stroke="none" stroke-width="1" fill="none" fill-rule="evenodd">
        <path d="M13.9999678,0.537890706 L14,0.537890706 L14,12.9907108 C14,13.139273 13.9400283,13.2737295 13.8433018,13.370916 L13.8427873,13.3714337 L11.3863271,15.8418292 L11.3858126,15.8423468 C11.2892469,15.939501 11.1556049,16 11.0079105,16 L2.74146247,16 C2.44655605,16 2.20683002,15.7592983 2.20683002,15.4621093 L2.20683002,10.9078968 L3.27609493,10.9078968 L3.27609493,14.9242833 L10.4733102,14.9242833 L10.4733102,12.9907108 C10.4733102,12.6933601 10.7128433,12.4527878 11.0079105,12.4527878 L12.9307029,12.4527878 L12.9307029,1.07578141 L3.27609493,1.07578141 L3.27609493,5.12568496 L2.20683002,5.12568496 L2.20683002,0.537890706 C2.20683002,0.240734076 2.44655605,5.68434189e-14 2.74146247,5.68434189e-14 L13.4653675,5.68434189e-14 C13.7602418,5.68434189e-14 13.9999678,0.240734076 13.9999678,0.537890706 Z M4.61116471,10.5890964 L4.61116471,9.83224481 L0.467811435,9.83224481 C0.209820567,9.83224481 0,9.6215661 0,9.36155 L0,6.67212883 C0,6.41204803 0.209852724,6.20149872 0.467811435,6.20149872 L4.61116471,6.20149872 L4.61116471,5.44458239 C4.61116471,5.25451215 4.72493408,5.082721 4.89983279,5.00960461 C4.95777864,4.98559915 5.01842562,4.97398464 5.07891183,4.97398464 C5.20055952,4.97398464 5.32018136,5.0217044 5.40986559,5.11212931 L7.96604283,7.68388487 C8.05376552,7.77214217 8.10341501,7.89178128 8.10341501,8.01682324 C8.10341501,8.14141226 8.05376552,8.26105137 7.96604283,8.34930867 L5.40986559,10.9215819 C5.32069586,11.0115538 5.20104187,11.0592413 5.07891183,11.0592413 C5.01845778,11.0592413 4.95781079,11.0475944 4.89983279,11.0235242 C4.72493408,10.9509902 4.61116471,10.7791667 4.61116471,10.5890964 Z" id="-nhapkho-active" fill="#3466E6"></path>
    </g>
</svg>