<?xml version="1.0" encoding="UTF-8"?>
<svg width="12px" height="8px" viewBox="0 0 12 8" version="1.1" xmlns="http://www.w3.org/2000/svg" xmlns:xlink="http://www.w3.org/1999/xlink">
    <!-- Generator: Sketch 52.5 (67469) - http://www.bohemiancoding.com/sketch -->
    <title>Path</title>
    <desc>Created with Sketch.</desc>
    <g id="Visual-Logistics" stroke="none" stroke-width="1" fill="none" fill-rule="evenodd">
        <g id="01.-Tài-khoản-Logistic" transform="translate(-1173.000000, -848.000000)" fill="#505057">
            <g id="Group-8" transform="translate(1162.000000, 835.000000)">
                <path d="M22.8365599,16.6177671 L19.2655631,13.1583029 C19.0476877,12.9472324 18.6943376,12.9472324 18.4764621,13.1583029 C18.258542,13.3694167 18.258542,13.7116442 18.4764621,13.922758 L21.0949402,16.4594533 L11.5579683,16.4594533 C11.2498359,16.4594533 11,16.7014861 11,16.9999946 C11,17.2984599 11.2498359,17.5405359 11.5579683,17.5405359 L21.0949402,17.5405359 L18.4765514,20.0772312 C18.2586313,20.288345 18.2586313,20.6305725 18.4765514,20.8416863 C18.5854668,20.9471567 18.7283067,21 18.8711019,21 C19.0138971,21 19.1566924,20.9471567 19.2656524,20.8416863 L22.8365599,17.3822221 C23.05448,17.1711083 23.05448,16.8288808 22.8365599,16.6177671 Z" id="Path" transform="translate(17.000000, 17.000000) scale(-1, 1) translate(-17.000000, -17.000000) "></path>
            </g>
        </g>
    </g>
</svg>