<?xml version="1.0" encoding="UTF-8"?>
<svg width="15px" height="15px" viewBox="0 0 15 15" version="1.1" xmlns="http://www.w3.org/2000/svg" xmlns:xlink="http://www.w3.org/1999/xlink">
    <!-- Generator: Sketch 52.5 (67469) - http://www.bohemiancoding.com/sketch -->
    <title>Shape Copy 2</title>
    <desc>Created with Sketch.</desc>
    <g id="Visual-Logistics" stroke="none" stroke-width="1" fill="none" fill-rule="evenodd">
        <g id="11.-Trưởng-phòng---Tạo-đơn-hàng" transform="translate(-798.000000, -977.000000)" fill="#3466E6">
            <g id="Group-13-Copy-4" transform="translate(659.000000, 964.000000)">
                <g id="Group-12">
                    <g id="Group-8">
                        <path d="M152.680753,18.7603153 L147.640426,18.7603153 L147.640426,13.7199606 C147.640426,13.5097652 147.57304,13.3374003 147.43764,13.2023929 C147.303342,13.0673067 147.130663,13 146.920311,13 L145.480319,13 C145.270125,13 145.097761,13.0673067 144.962754,13.2023929 C144.827669,13.3374003 144.760363,13.5100016 144.760363,13.7199606 L144.760363,18.7603941 L139.719957,18.7603941 C139.509999,18.7603941 139.337162,18.8277795 139.202392,18.9627869 C139.067543,19.0977943 139,19.2703957 139,19.4803547 L139,20.9203547 C139,21.1304712 139.067306,21.3029938 139.202392,21.4376071 C139.33732,21.5722205 139.509999,21.6401576 139.719957,21.6401576 L144.760363,21.6401576 L144.760363,26.6805123 C144.760363,26.8906289 144.827669,27.0631514 144.962754,27.1977648 C145.097761,27.3326145 145.270361,27.4 145.480319,27.4 L146.920311,27.4 C147.130742,27.4 147.303342,27.3326145 147.43764,27.1977648 C147.57304,27.0631514 147.640426,26.8906289 147.640426,26.6805123 L147.640426,21.6402364 L152.680753,21.6402364 C152.890553,21.6402364 153.063232,21.5722993 153.198002,21.437686 C153.33293,21.3030726 153.4,21.1305501 153.4,20.9204335 L153.4,19.4804335 C153.4,19.2704745 153.332851,19.0976367 153.198002,18.9628657 C153.063232,18.828016 152.890553,18.7603153 152.680753,18.7603153 Z" id="Shape-Copy-2"></path>
                    </g>
                </g>
            </g>
        </g>
    </g>
</svg>