<?xml version="1.0" encoding="UTF-8"?>
<svg width="14px" height="16px" viewBox="0 0 14 16" version="1.1" xmlns="http://www.w3.org/2000/svg" xmlns:xlink="http://www.w3.org/1999/xlink">
    <!-- Generator: Sketch 52.5 (67469) - http://www.bohemiancoding.com/sketch -->
    <title>quanlyhopdong-df</title>
    <desc>Created with Sketch.</desc>
    <g id="Visual-Logistics" stroke="none" stroke-width="1" fill="none" fill-rule="evenodd">
        <path d="M11.0994475,12.2336851 C11.4198679,12.2336851 11.679558,12.4606113 11.679558,12.7406058 C11.679558,13.0206002 11.4198679,13.2475265 11.0994475,13.2475265 L2.90055249,13.2475265 C2.58013209,13.2475265 2.32044199,13.0206002 2.32044199,12.7406058 C2.32044199,12.4606113 2.58013209,12.2336851 2.90055249,12.2336851 L11.0994475,12.2336851 Z M11.0994475,10.2060025 C11.4198679,10.2060025 11.679558,10.4329287 11.679558,10.7129232 C11.679558,10.9929176 11.4198679,11.2198438 11.0994475,11.2198438 L2.90055249,11.2198438 C2.58013209,11.2198438 2.32044199,10.9929176 2.32044199,10.7129232 C2.32044199,10.4329287 2.58013209,10.2060025 2.90055249,10.2060025 L11.0994475,10.2060025 Z M2.32044199,8.68524056 C2.32044199,8.40524611 2.58013209,8.1783199 2.90055249,8.1783199 L11.0994475,8.1783199 C11.4198679,8.1783199 11.679558,8.40524611 11.679558,8.68524056 C11.679558,8.965235 11.4198679,9.19216121 11.0994475,9.19216121 L2.90055249,9.19216121 C2.58013209,9.19216121 2.32044199,8.965235 2.32044199,8.68524056 Z M2.90055249,7.16447859 C2.58013209,7.16447859 2.32044199,6.93755238 2.32044199,6.65755794 C2.32044199,6.37756349 2.58013209,6.15063728 2.90055249,6.15063728 L6.38121547,6.15063728 C6.70163587,6.15063728 6.96132597,6.37756349 6.96132597,6.65755794 C6.96132597,6.93755238 6.70163587,7.16447859 6.38121547,7.16447859 L2.90055249,7.16447859 Z M13.4198895,1.6221461 C13.7403099,1.6221461 14,1.8490723 14,2.12906675 L14,15.4930793 C14,15.7730738 13.7403099,16 13.4198895,16 L0.580110497,16 C0.259690099,16 0,15.7730738 0,15.4930793 L2.20881053e-29,2.12906675 C2.20881053e-29,1.8490723 0.259690099,1.6221461 0.580110497,1.6221461 L1.82568628,1.6221461 C2.04126381,0.697675945 2.97880699,0 4.09944751,0 C5.22008803,0 6.15763122,0.697675945 6.37320875,1.6221461 L7.62679125,1.6221461 C7.84236878,0.697675945 8.77991197,0 9.90055249,0 C11.021193,0 11.9587362,0.697675945 12.1743137,1.6221461 L13.4198895,1.6221461 Z M9.90055249,1.01384131 C9.42573808,1.01384131 9.01694148,1.26439739 8.8374698,1.6221461 L10.9636352,1.6221461 C10.7841635,1.26439739 10.3753669,1.01384131 9.90055249,1.01384131 Z M4.09944751,1.01384131 C3.6246331,1.01384131 3.21583651,1.26439739 3.03636482,1.6221461 L5.1625302,1.6221461 C4.98305852,1.26439739 4.57426192,1.01384131 4.09944751,1.01384131 Z M12.839779,14.9861587 L12.839779,2.63598741 L8.97297997,2.63598741 C9.18493181,2.88205514 9.52181888,3.04152393 9.90055249,3.04152393 C10.2209729,3.04152393 10.480663,3.26845014 10.480663,3.54844459 C10.480663,3.82843903 10.2209729,4.05536524 9.90055249,4.05536524 C8.86345391,4.05536524 7.9833175,3.4577533 7.68691731,2.63598741 L3.171875,2.63598741 C3.38382684,2.88205514 3.72071391,3.04152393 4.09944751,3.04152393 C4.41986791,3.04152393 4.67955801,3.26845014 4.67955801,3.54844459 C4.67955801,3.82843903 4.41986791,4.05536524 4.09944751,4.05536524 C3.06234894,4.05536524 2.18221252,3.4577533 1.88581234,2.63598741 L1.16022099,2.63598741 L1.16022099,14.9861587 L12.839779,14.9861587 Z" id="quanlyhopdong-df" fill="#5F606D" fill-rule="nonzero"></path>
    </g>
</svg>