<?xml version="1.0" encoding="UTF-8"?>
<svg width="18px" height="18px" viewBox="0 0 18 18" version="1.1" xmlns="http://www.w3.org/2000/svg" xmlns:xlink="http://www.w3.org/1999/xlink">
    <!-- Generator: Sketch 52.5 (67469) - http://www.bohemiancoding.com/sketch -->
    <title>quanlyvayno-df</title>
    <desc>Created with Sketch.</desc>
    <g id="Visual-Logistics" stroke="none" stroke-width="1" fill="none" fill-rule="evenodd">
        <path d="M6.88499452,13.9357452 C7.17572021,13.9357452 7.41233827,13.6991272 7.41233827,13.4084015 C7.41233827,13.1175385 7.17572021,12.8810577 6.88499452,12.8810577 C6.01268006,12.8810577 5.30296327,12.1713409 5.30296327,11.2990265 C5.30296327,10.6093597 5.74653625,10.0218658 6.36328125,9.80570985 L6.36328125,9.03515625 C6.36328125,8.74388123 6.59934998,8.5078125 6.890625,8.5078125 C7.18190002,8.5078125 7.41796875,8.74388123 7.41796875,9.03515625 L7.41796875,9.80955506 C8.02880859,10.0288696 8.46702577,10.613617 8.46702577,11.2990265 C8.46702577,11.5903015 8.23095703,11.8263702 7.93968202,11.8263702 C7.648407,11.8263702 7.41233827,11.5903015 7.41233827,11.2990265 C7.41233827,11.0081635 7.17572021,10.7716827 6.88499452,10.7716827 C6.59426878,10.7716827 6.35765077,11.0081635 6.35765077,11.2990265 C6.35765077,11.5897522 6.59426878,11.8263702 6.88499452,11.8263702 C7.75730897,11.8263702 8.46702577,12.536087 8.46702577,13.4084015 C8.46702577,14.093811 8.02880859,14.6785584 7.41796875,14.8977356 L7.41796875,15.3632812 C7.41796875,15.6545563 7.18190002,15.890625 6.890625,15.890625 C6.59934998,15.890625 6.36328125,15.6545563 6.36328125,15.3632812 L6.36328125,14.9015808 C5.74653625,14.6854248 5.30296327,14.0979309 5.30296327,13.4084015 C5.30296327,13.1171265 5.539032,12.8810577 5.83030702,12.8810577 C6.12158203,12.8810577 6.35765077,13.1171265 6.35765077,13.4084015 C6.35765077,13.6991272 6.59426878,13.9357452 6.88499452,13.9357452 Z M2.1494751,17.1388092 C0.723175031,16.3751221 0,15.068161 0,13.2539062 C0,10.6276245 1.48699951,8.20225526 3.60282899,6.92523193 C3.35206603,6.64521789 3.19921875,6.27566527 3.19921875,5.87109375 C3.19921875,5.24089051 3.56973265,4.69569396 4.10435487,4.44149782 L3.22517394,1.74559022 C3.17285156,1.58491515 3.20059202,1.40899658 3.29974365,1.27235412 C3.3990326,1.13557433 3.55764769,1.0546875 3.7265625,1.0546875 L5.39895628,1.0546875 C5.61662293,0.440826398 6.20301818,0 6.890625,0 C7.5780945,0 8.16421507,0.440826398 8.38201904,1.0546875 L10.0546875,1.0546875 C10.2236023,1.0546875 10.3822174,1.13557433 10.4815063,1.27235412 C10.580658,1.40899658 10.6083984,1.58491515 10.5560761,1.74559022 L9.67689513,4.44149782 C10.2115174,4.69569396 10.5820312,5.24089051 10.5820312,5.87109375 C10.5820312,6.27539062 10.4293213,6.64466857 10.1789703,6.9245453 C10.8623199,7.33680724 11.4824982,7.87431336 12.0117645,8.51536561 C12.0618896,8.51042176 12.1127014,8.5078125 12.1640625,8.5078125 L16.4179688,8.5078125 C17.2902832,8.5078125 18,9.2175293 18,10.0898438 C18,10.4946899 17.8470154,10.8643799 17.5958404,11.1445312 C17.846878,11.4246826 18,11.7943726 18,12.1992188 C18,12.6040649 17.8470154,12.9737549 17.5958404,13.2539062 C17.846878,13.5340576 18,13.9037476 18,14.3085938 C18,14.7134399 17.8470154,15.0831299 17.5958404,15.3632812 C17.846878,15.6434326 18,16.0131226 18,16.4179688 C18,17.2902832 17.2902832,18 16.4179688,18 L12.1640625,18 C11.6795654,18 11.2454681,17.7808228 10.9550171,17.436676 C9.93823242,17.8198242 8.6294861,18 6.890625,18 C4.75350954,18 3.24687196,17.7263031 2.1494751,17.1388092 Z M16.9453125,12.1992188 C16.9453125,11.9084931 16.7086944,11.671875 16.4179688,11.671875 L12.1640625,11.671875 C11.8733368,11.671875 11.6367188,11.9084931 11.6367188,12.1992188 C11.6367188,12.4899444 11.8733368,12.7265625 12.1640625,12.7265625 L16.4179688,12.7265625 C16.7086944,12.7265625 16.9453125,12.4899444 16.9453125,12.1992188 Z M16.9453125,14.3085938 C16.9453125,14.0178681 16.7086944,13.78125 16.4179688,13.78125 L12.1640625,13.78125 C11.8733368,13.78125 11.6367188,14.0178681 11.6367188,14.3085938 C11.6367188,14.5993194 11.8733368,14.8359375 12.1640625,14.8359375 L16.4179688,14.8359375 C16.7086944,14.8359375 16.9453125,14.5993194 16.9453125,14.3085938 Z M16.4179688,16.9453125 C16.7086944,16.9453125 16.9453125,16.7086944 16.9453125,16.4179688 C16.9453125,16.1272431 16.7086944,15.890625 16.4179688,15.890625 L12.1640625,15.890625 C11.8733368,15.890625 11.6367188,16.1272431 11.6367188,16.4179688 C11.6367188,16.7086944 11.8733368,16.9453125 12.1640625,16.9453125 L16.4179688,16.9453125 Z M16.9453125,10.0898438 C16.9453125,9.79911805 16.7086944,9.5625 16.4179688,9.5625 L12.1640625,9.5625 C11.8733368,9.5625 11.6367188,9.79911805 11.6367188,10.0898438 C11.6367188,10.3805694 11.8733368,10.6171875 12.1640625,10.6171875 L16.4179688,10.6171875 C16.7086944,10.6171875 16.9453125,10.3805694 16.9453125,10.0898438 Z M8.98489378,6.3984375 C8.98942567,6.39830018 8.99395752,6.3984375 8.99835205,6.3984375 L9,6.3984375 C9.2907257,6.3984375 9.52734375,6.16181945 9.52734375,5.87109375 C9.52734375,5.58091737 9.29168701,5.34471131 9.00164795,5.34388732 L9.00013732,5.34388732 C8.99890137,5.34388732 8.99752809,5.34375 8.99629211,5.34375 L4.78482054,5.34375 C4.78358459,5.34375 4.78234863,5.34388732 4.78111268,5.34388732 L4.77960205,5.34388732 C4.48956299,5.34471131 4.25390625,5.58091737 4.25390625,5.87109375 C4.25390625,6.16181945 4.4905243,6.3984375 4.78125,6.3984375 L4.78248595,6.3984375 C4.78715516,6.3984375 4.79182433,6.39830018 4.79649354,6.3984375 L8.98489378,6.3984375 Z M5.8359375,2.109375 L4.45317079,2.109375 L5.16398621,4.2890625 L8.61726379,4.2890625 L9.32807921,2.109375 L8.47265625,2.109375 L8.47265625,2.63671875 C8.47265625,2.92799377 8.23658752,3.1640625 7.9453125,3.1640625 C7.65403748,3.1640625 7.41796875,2.92799377 7.41796875,2.63671875 L7.41796875,1.58203125 C7.41796875,1.29130555 7.1813507,1.0546875 6.890625,1.0546875 C6.5998993,1.0546875 6.36328125,1.29130555 6.36328125,1.58203125 C6.36328125,1.87330627 6.12721252,2.109375 5.8359375,2.109375 Z M4.88410949,7.453125 C2.62463379,8.39630127 1.0546875,10.7666016 1.0546875,13.2539062 C1.0546875,14.6883087 1.56074523,15.6272278 2.64729308,16.2089539 C3.5855255,16.7113037 4.93395996,16.9453125 6.890625,16.9453125 C8.50259398,16.9453125 9.6907654,16.7871094 10.5828552,16.4502411 C10.5825806,16.4395294 10.5820312,16.4288178 10.5820312,16.4179688 C10.5820312,16.0131226 10.7351532,15.6434326 10.9861908,15.3632812 C10.7351532,15.0831299 10.5820312,14.7134399 10.5820312,14.3085938 C10.5820312,13.9037476 10.7351532,13.5340576 10.9861908,13.2539062 C10.7351532,12.9737549 10.5820312,12.6040649 10.5820312,12.1992188 C10.5820312,11.7943726 10.7351532,11.4246826 10.9861908,11.1445312 C10.7351532,10.8643799 10.5820312,10.4946899 10.5820312,10.0898438 C10.5820312,9.66275023 10.7524567,9.27493284 11.0284882,8.98997498 C10.4214935,8.31198122 9.6936493,7.78669738 8.89508057,7.453125 L4.88410949,7.453125 Z" id="quanlyvayno-df" fill="#5F606D" fill-rule="nonzero"></path>
    </g>
</svg>