<?xml version="1.0" encoding="UTF-8"?>
<svg width="14px" height="16px" viewBox="0 0 14 16" version="1.1" xmlns="http://www.w3.org/2000/svg" xmlns:xlink="http://www.w3.org/1999/xlink">
    <!-- Generator: Sketch 52.5 (67469) - http://www.bohemiancoding.com/sketch -->
    <title>quanlydonhang-df</title>
    <desc>Created with Sketch.</desc>
    <g id="Visual-Logistics" stroke="none" stroke-width="1" fill="none" fill-rule="evenodd">
        <path d="M9.9429941,6.875 C9.9429941,7.2201875 9.66980424,7.5 9.33278669,7.5 L3.04765039,7.5 C2.71063284,7.5 2.43744298,7.2201875 2.43744298,6.875 C2.43744298,6.5298125 2.71063284,6.25 3.04765039,6.25 L9.33278669,6.25 C9.66980424,6.25 9.9429941,6.5298125 9.9429941,6.875 Z M3.04765039,8.75 L6.86483334,8.75 C7.20185089,8.75 7.47504075,9.0298125 7.47504075,9.375 C7.47504075,9.7201875 7.20185089,10 6.86483334,10 L3.04765039,10 C2.71063284,10 2.43744298,9.7201875 2.43744298,9.375 C2.43744298,9.0298125 2.71063284,8.75 3.04765039,8.75 Z M4.4816378,14.75 C4.81865535,14.75 5.0918452,15.0298125 5.0918452,15.375 C5.0918452,15.7201875 4.81865535,16 4.4816378,16 L2.44082963,16 C1.09495617,16 5.68434189e-14,14.8785 5.68434189e-14,13.5 L5.68434189e-14,2.5 C5.68434189e-14,1.1215 1.09495617,0 2.44082963,0 L9.9429941,0 C11.2888676,0 12.3838237,1.1215 12.3838237,2.5 L12.3838237,6.34375 C12.3838237,6.6889375 12.1106339,6.96875 11.7736163,6.96875 C11.4365988,6.96875 11.1634089,6.6889375 11.1634089,6.34375 L11.1634089,2.5 C11.1634089,1.81075 10.6159308,1.25 9.9429941,1.25 L2.44082963,1.25 C1.7678929,1.25 1.22041482,1.81075 1.22041482,2.5 L1.22041482,13.5 C1.22041482,14.18925 1.7678929,14.75 2.44082963,14.75 L4.4816378,14.75 Z M13.4646536,9.049125 C14.1784437,9.78025 14.1784437,10.96975 13.4646841,11.7008125 L10.1215713,15.1185312 C10.047126,15.1946562 9.95474059,15.24975 9.85338514,15.2785 L7.39043549,15.9772812 C7.33664571,15.9925625 7.28184908,16 7.22757113,16 C7.06534749,16 6.90718173,15.9336562 6.79075416,15.8114375 C6.63533433,15.6482812 6.57898168,15.4114375 6.64366366,15.1933125 L7.37325815,12.7331562 C7.40248709,12.6346562 7.45496492,12.5450937 7.52611511,12.472375 L10.8762453,9.048625 C11.5895473,8.31803125 12.750894,8.3180625 13.4646536,9.049125 Z M9.37296885,14.11775 L11.6201186,11.8204375 L10.7569803,10.936375 L8.49649744,13.2465312 L8.13388168,14.4693125 L9.37296885,14.11775 Z M12.6021559,10.8165625 C12.8396487,10.57325 12.8396487,10.17675 12.6017288,9.9330625 C12.3638089,9.689375 11.9766933,9.689375 11.7387735,9.9330625 L11.6209424,10.0535 L12.4839283,10.9374062 L12.6021559,10.8165625 Z M9.33278669,3.75 C9.66980424,3.75 9.9429941,4.0298125 9.9429941,4.375 C9.9429941,4.7201875 9.66980424,5 9.33278669,5 L3.04765039,5 C2.71063284,5 2.43744298,4.7201875 2.43744298,4.375 C2.43744298,4.0298125 2.71063284,3.75 3.04765039,3.75 L9.33278669,3.75 Z" id="quanlydonhang-df" fill="#5F606D" fill-rule="nonzero"></path>
    </g>
</svg>