<?xml version="1.0" encoding="UTF-8"?>
<svg width="16px" height="16px" viewBox="0 0 16 16" version="1.1" xmlns="http://www.w3.org/2000/svg" xmlns:xlink="http://www.w3.org/1999/xlink">
    <!-- Generator: Sketch 52.5 (67469) - http://www.bohemiancoding.com/sketch -->
    <title>quanlysanpham-df</title>
    <desc>Created with Sketch.</desc>
    <g id="Visual-Logistics" stroke="none" stroke-width="1" fill="none" fill-rule="evenodd">
        <path d="M14.75,12.875 C15.0951875,12.875 15.375,13.1548125 15.375,13.5 C15.375,14.8785 14.2535,16 12.875,16 L3.125,16 C1.7465,16 0.625,14.8785 0.625,13.5 L0.625,6.5625 C0.625,6.2173125 0.9048125,5.9375 1.25,5.9375 C1.5951875,5.9375 1.875,6.2173125 1.875,6.5625 L1.875,13.5 C1.875,14.18925 2.43575,14.75 3.125,14.75 L12.875,14.75 C13.56425,14.75 14.125,14.18925 14.125,13.5 C14.125,13.1548125 14.4048125,12.875 14.75,12.875 Z M14.125,0 C15.158875,0 16,0.841125 16,1.875 L16,3.75 C16,4.0951875 15.7201875,4.375 15.375,4.375 L15.375,10.34375 C15.375,10.6889375 15.0951875,10.96875 14.75,10.96875 C14.4048125,10.96875 14.125,10.6889375 14.125,10.34375 L14.125,4.375 L0.625,4.375 C0.2798125,4.375 0,4.0951875 0,3.75 L0,1.875 C0,0.841125 0.841125,0 1.875,0 L14.125,0 Z M14.75,3.125 L14.75,1.875 C14.75,1.530375 14.469625,1.25 14.125,1.25 L1.875,1.25 C1.530375,1.25 1.25,1.530375 1.25,1.875 L1.25,3.125 L14.75,3.125 Z M9.375,6.875 L6.5625,6.875 C6.2173125,6.875 5.9375,6.5951875 5.9375,6.25 C5.9375,5.9048125 6.2173125,5.625 6.5625,5.625 L9.375,5.625 C9.7201875,5.625 10,5.9048125 10,6.25 C10,6.5951875 9.7201875,6.875 9.375,6.875 Z" id="quanlysanpham-df" fill="#5F606D" fill-rule="nonzero"></path>
    </g>
</svg>