<?xml version="1.0" encoding="UTF-8"?>
<svg width="16px" height="16px" viewBox="0 0 16 16" version="1.1" xmlns="http://www.w3.org/2000/svg" xmlns:xlink="http://www.w3.org/1999/xlink">
    <!-- Generator: Sketch 52.5 (67469) - http://www.bohemiancoding.com/sketch -->
    <title>quanlycongno-active</title>
    <desc>Created with Sketch.</desc>
    <g id="Visual-Logistics" stroke="none" stroke-width="1" fill="none" fill-rule="evenodd">
        <path d="M6.13228125,2.22255337 C6.47615625,2.22255337 6.75484375,2.50236075 6.75484375,2.84754749 C6.75484375,3.19273423 6.476125,3.47254161 6.13228125,3.47254161 L4.88715625,3.47254161 C4.5433125,3.47254161 4.26459375,3.19273423 4.26459375,2.84754749 C4.26459375,2.50236075 4.5433125,2.22255337 4.88715625,2.22255337 L6.13228125,2.22255337 Z M5.50971875,13.7850387 C5.16588698,13.7850387 4.88715625,13.5052193 4.88715625,13.1600445 C4.88715625,12.8148698 5.16588698,12.5350504 5.50971875,12.5350504 C5.85355052,12.5350504 6.13228125,12.8148698 6.13228125,13.1600445 C6.13228125,13.5052193 5.85355052,13.7850387 5.50971875,13.7850387 Z M11.0194687,2.82122633 C13.7851875,2.93629904 16,5.23075716 16,8.03507396 C16,8.77052909 15.8504687,9.48185911 15.5555625,10.1492369 C15.4161562,10.4647457 15.048375,10.6069866 14.734,10.4670986 C14.4197187,10.3271478 14.2779687,9.95786733 14.417375,9.64232718 C14.6413437,9.13557434 14.754875,8.59478283 14.754875,8.03504259 C14.754875,5.84665339 12.9814375,4.06628916 10.8015625,4.06628916 C8.6216875,4.06628916 6.84825,5.84665339 6.84825,8.03504259 C6.84825,10.2234318 8.62171875,12.003796 10.8015625,12.003796 C11.4469375,12.003796 12.0870937,11.8443632 12.65275,11.542815 C12.9564062,11.3809352 13.3333125,11.496855 13.4945937,11.8016972 C13.655875,12.1065395 13.5404062,12.4849179 13.2367187,12.6468291 C12.55575,13.0098665 11.7934375,13.2158554 11.0194687,13.2486079 L11.0194687,13.4999922 C11.0194687,14.8785117 9.9023125,16 8.5291875,16 L2.49028125,16 C1.117125,16 0,14.8784803 0,13.4999922 L0,2.50000784 C0,1.12148829 1.117125,-1.1397941e-13 2.49028125,-1.13686838e-13 L8.5291875,-1.13686838e-13 C9.90234375,-1.13686838e-13 11.0194687,1.12151966 11.0194687,2.50000784 L11.0194687,2.82122633 Z M9.7743125,2.91885617 L9.7743125,2.50000784 C9.7743125,1.81076375 9.21575,1.25001961 8.5291875,1.25001961 L2.49028125,1.25001961 C1.80371875,1.25001961 1.24515625,1.81076375 1.24515625,2.50000784 L1.24515625,13.5000235 C1.24515625,14.1892676 1.80371875,14.7500118 2.49028125,14.7500118 L8.5291875,14.7500118 C9.21575,14.7500118 9.7743125,14.1892676 9.7743125,13.5000235 L9.7743125,13.1512917 C7.39821875,12.6712365 5.603125,10.5597716 5.603125,8.03507396 C5.603125,5.51037631 7.39821875,3.39888002 9.7743125,2.91885617 Z M10.8015625,11.1600759 C10.4577187,11.1600759 10.179,10.8802372 10.179,10.5351445 L10.179,10.4726514 L9.80546875,10.4726514 C9.461625,10.4726514 9.18290625,10.192844 9.18290625,9.84765729 C9.18290625,9.50247055 9.461625,9.22266317 9.80546875,9.22266317 L11.0692187,9.22266317 C11.1828437,9.22266317 11.2685,9.14071936 11.2685,9.03204656 L11.2685,8.78150931 C11.2685,8.67462471 11.1828437,8.59399853 11.0692187,8.59399853 L10.6550312,8.59399853 C9.8599375,8.59399853 9.21309375,7.93672256 9.21309375,7.12886072 L9.21309375,7.10247682 C9.21309375,6.47396904 9.61715625,5.93838528 10.179,5.7412119 L10.179,5.56634406 C10.179,5.22115732 10.4577187,4.94134994 10.8015625,4.94134994 C11.1454062,4.94134994 11.424125,5.22115732 11.424125,5.56634406 L11.424125,5.66008376 C11.7679687,5.66008376 12.0466875,5.93989114 12.0466875,6.28507788 C12.0466875,6.63026462 11.7679687,6.910072 11.424125,6.910072 L10.655,6.910072 C10.5428125,6.910072 10.4582187,6.99276874 10.4582187,7.10244545 L10.4582187,7.12882935 C10.4582187,7.24343148 10.5501562,7.34394755 10.655,7.34394755 L11.0692187,7.34394755 C11.8656562,7.34394755 12.513625,7.98883155 12.513625,8.78144657 L12.513625,9.03198381 C12.513625,9.70419288 12.0495312,10.2702703 11.424125,10.4284482 L11.424125,10.5350818 C11.424125,10.8802685 11.1454062,11.1600759 10.8015625,11.1600759 Z" id="quanlycongno-active" fill="#3466E6"></path>
    </g>
</svg>