<?xml version="1.0" encoding="UTF-8"?>
<svg width="44px" height="44px" viewBox="0 0 44 44" version="1.1" xmlns="http://www.w3.org/2000/svg" xmlns:xlink="http://www.w3.org/1999/xlink">
    <!-- Generator: Sketch 52.5 (67469) - http://www.bohemiancoding.com/sketch -->
    <title>sap het han</title>
    <desc>Created with Sketch.</desc>
    <g id="Visual-Logistics" stroke="none" stroke-width="1" fill="none" fill-rule="evenodd">
        <path d="M0.0474663969,34.8503446 L3.95462399e-06,14.8532254 C-0.00230424925,13.8692655 1.00623658,13.2040897 1.91393776,13.5908148 L20.1780337,21.3728404 C20.6827369,21.5878795 21.010574,22.0816568 21.0118724,22.6287086 L21.0593348,42.6258278 C21.061643,43.6098596 20.0531022,44.2750354 19.145401,43.8883103 L0.881305048,36.1062846 C0.376601844,35.8912456 0.0486926302,35.3974683 0.0474663969,34.8503446 Z M41.8941929,15.7944795 L25.0397603,23.0700023 L25.0836162,41.5762993 L41.9381209,34.3007765 L41.8941929,15.7944795 Z M42.576195,13.3819588 C43.3006104,13.3801614 43.9507304,13.961004 43.9525337,14.7495523 L43.9999961,34.7466715 C44.0012945,35.2937233 43.6757656,35.7891542 43.1720723,36.0064939 L24.9451961,43.8745783 C24.7653726,43.9521534 24.581149,43.9883886 24.4017583,43.9888919 C23.6772708,43.9905455 23.0270786,43.4097748 23.0252754,42.6212984 L22.9778129,22.6241073 C22.9764424,22.0770555 23.3020434,21.5816246 23.8058089,21.3642849 L42.0326851,13.4962724 C42.2125086,13.4185535 42.39666,13.3823902 42.576195,13.3819588 Z M21.8667013,2.11847223 L4.38313886,9.89934755 L21.9034161,17.5975432 L39.3870507,9.81673978 L21.8667013,2.11847223 Z M21.8617242,3.56177648e-06 C22.051574,-0.000427810382 22.241568,0.0383237886 22.4191554,0.116330254 L41.6351691,8.55964942 C42.7252184,9.0386882 42.7288971,10.5790463 41.6410839,11.0631177 L22.4653195,19.5970251 C22.2881649,19.6758943 22.0983151,19.7155086 21.9083932,19.7160119 C21.7185434,19.7164433 21.5285494,19.6776917 21.350962,19.5996852 L2.13502041,11.156366 C1.044899,10.6773991 1.04129243,9.13696916 2.12903351,8.6528977 L21.3047258,0.118990382 C21.4819525,0.0401211726 21.6717302,0.000434933935 21.8617242,3.56177648e-06 Z" id="sap-het-han" fill="#C17800"></path>
    </g>
</svg>