<?xml version="1.0" encoding="UTF-8"?>
<svg width="16px" height="16px" viewBox="0 0 16 16" version="1.1" xmlns="http://www.w3.org/2000/svg" xmlns:xlink="http://www.w3.org/1999/xlink">
    <!-- Generator: Sketch 52.5 (67469) - http://www.bohemiancoding.com/sketch -->
    <title>Fill 1</title>
    <desc>Created with Sketch.</desc>
    <g id="Visual-Logistics" stroke="none" stroke-width="1" fill="none" fill-rule="evenodd">
        <g id="01.-Quản-lý-vận-chuyển" transform="translate(-859.000000, -91.000000)" fill="#3466E6">
            <path d="M874.756439,105.630715 L871.159249,102.029309 C871.596411,101.479091 871.946135,100.835095 872.20843,100.097303 C872.470727,99.3595117 872.601874,98.5904696 872.601874,97.7901505 C872.601874,96.8522817 872.420767,95.9706957 872.058547,95.1453684 C871.708818,94.3200411 871.224829,93.6010178 870.606558,92.9882744 C869.988287,92.3755334 869.266984,91.8878477 868.442623,91.5252052 C867.618262,91.1750644 866.737709,91 865.800938,91 C864.864165,91 863.983611,91.1750644 863.159251,91.5252052 C862.33489,91.8878477 861.613586,92.3755334 860.995316,92.9882744 C860.377046,93.6010178 859.893054,94.3200411 859.543326,95.1453684 C859.181107,95.9706957 859,96.8522817 859,97.7901505 C859,98.7405282 859.181107,99.6283663 859.543326,100.453694 C859.893054,101.279018 860.377046,101.998042 860.995316,102.610785 C861.613586,103.223529 862.33489,103.711214 863.159251,104.073857 C863.983611,104.423995 864.864165,104.599062 865.800938,104.599062 C866.600315,104.599062 867.355969,104.467762 868.067916,104.205159 C868.779862,103.942554 869.435594,103.592421 870.035128,103.154749 L873.632317,106.756155 C873.719751,106.843689 873.816549,106.906213 873.922716,106.943728 C874.028883,106.981243 874.119437,107 874.194381,107 C874.269322,107 874.359875,106.981243 874.466043,106.943728 C874.57221,106.906213 874.669008,106.843689 874.756439,106.756155 C874.918814,106.59359 875,106.406019 875,106.193435 C875,105.980851 874.918814,105.793279 874.756439,105.630715 Z M860.611241,97.7901505 C860.611241,97.0773696 860.742388,96.402113 861.004684,95.764359 C861.279471,95.139114 861.651052,94.588903 862.119437,94.1137141 C862.587825,93.6385277 863.140512,93.2696379 863.777519,93.0070329 C864.402032,92.7319239 865.0765,92.5943717 865.800938,92.5943717 C866.525374,92.5943717 867.199842,92.7319239 867.824357,93.0070329 C868.461362,93.2696379 869.014049,93.6385277 869.482436,94.1137141 C869.950821,94.588903 870.322404,95.139114 870.597191,95.764359 C870.859486,96.402113 870.990632,97.0773696 870.990632,97.7901505 C870.990632,98.5154379 870.859486,99.1906969 870.597191,99.815942 C870.334893,100.441189 869.960191,100.997652 869.473069,101.485345 C869.473069,101.485345 869.473069,101.485345 869.473069,101.485345 C869.473069,101.485345 869.473069,101.485345 869.473069,101.485345 C868.998437,101.960534 868.44887,102.33255 867.824357,102.601407 C867.199842,102.870262 866.525374,103.00469 865.800938,103.00469 C865.0765,103.00469 864.402032,102.867136 863.777519,102.592027 C863.140512,102.31692 862.587825,101.944902 862.119437,101.475967 C861.651052,101.007031 861.279471,100.453696 861.004684,99.815942 C860.742388,99.1906969 860.611241,98.5154379 860.611241,97.7901505 Z" id="Fill-1"></path>
        </g>
    </g>
</svg>