<?xml version="1.0" encoding="UTF-8"?>
<svg width="16px" height="11px" viewBox="0 0 16 11" version="1.1" xmlns="http://www.w3.org/2000/svg" xmlns:xlink="http://www.w3.org/1999/xlink">
    <!-- Generator: Sketch 52.5 (67469) - http://www.bohemiancoding.com/sketch -->
    <title>Fill 1</title>
    <desc>Created with Sketch.</desc>
    <g id="Visual-Logistics" stroke="none" stroke-width="1" fill="none" fill-rule="evenodd">
        <g id="03.1.-Tài-khoản-thủ-kho---Thêm-mới" transform="translate(-325.000000, -461.000000)" fill="#3466E6">
            <g id="Group-2" transform="translate(310.000000, 448.000000)">
                <path d="M27.90625,17.0312517 C27.791666,16.4583317 27.585938,15.9244818 27.289062,15.4296878 C26.992186,14.9348938 26.627606,14.5078159 26.195312,14.1484379 C25.763018,13.7890619 25.27344,13.507814 24.726562,13.304688 C24.179684,13.101562 23.60417,13 23,13 C22.52083,13 22.059898,13.065104 21.617188,13.195314 C21.174476,13.325522 20.760418,13.510416 20.375,13.7499999 C19.989582,13.9895859 19.64323,14.2734359 19.335938,14.6015639 C19.028644,14.9296898 18.770834,15.2916658 18.5625,15.6874998 C18.062498,15.7395838 17.596356,15.8802078 17.164062,16.1093757 C16.7317686,16.3385437 16.3541682,16.6302077 16.03125,16.9843757 C15.7083318,17.3385436 15.45573,17.7447896 15.2734376,18.2031256 C15.0911449,18.6614615 15,19.1510395 15,19.6718754 C15,20.2239614 15.1041656,20.7421854 15.3125,21.2265633 C15.5208344,21.7109403 15.8072898,22.132811 16.171875,22.4921876 C16.5364602,22.8515644 16.960935,23.13802 17.445312,23.3515627 C17.92969,23.5651054 18.447914,23.6718751 19,23.6718751 L20.328124,23.6718751 L20.328124,22.3281252 L19,22.3281252 C18.260412,22.3281252 17.63021,22.0677112 17.109376,21.5468753 C16.588539,21.0260393 16.328125,20.4010454 16.328125,19.6718754 C16.328125,18.9843715 16.5546852,18.3880236 17.007812,17.8828136 C17.46094,17.3776016 18.026038,17.0885437 18.703124,17.0156257 L19.421876,16.9374997 L19.75,16.3124997 C20.062502,15.6979138 20.510414,15.2135438 21.09375,14.8593758 C21.677086,14.5052079 22.312496,14.3281259 23,14.3281259 C23.437502,14.3281259 23.854164,14.4036459 24.25,14.5546879 C24.645836,14.7057299 25.002602,14.9114578 25.320312,15.1718758 C25.638022,15.4322938 25.908854,15.7421858 26.132812,16.1015637 C26.356772,16.4609397 26.510416,16.8541657 26.59375,17.2812516 L26.78125,18.2812516 L27.8125,18.3593756 C28.333336,18.3906256 28.773436,18.5989575 29.132812,18.9843755 C29.49219,19.3697935 29.671876,19.8177054 29.671876,20.3281254 C29.671876,20.8802113 29.476564,21.3515613 29.085938,21.7421877 C28.69531,22.1328146 28.223962,22.3281252 27.671876,22.3281252 L25.671876,22.3281252 L25.671876,23.6718751 L27.671876,23.6718751 C28.13021,23.6718751 28.562498,23.5833343 28.96875,23.4062501 C29.375002,23.2291659 29.726562,22.989585 30.023438,22.6875002 C30.320314,22.3854154 30.55729,22.0312522 30.734376,21.6249993 C30.91146,21.2187473 31,20.7864614 31,20.3281254 C31,19.8906234 30.919272,19.4791695 30.757812,19.0937515 C30.596354,18.7083315 30.377606,18.3671896 30.101562,18.0703136 C29.82552,17.7734376 29.497398,17.5338556 29.117188,17.3515636 C28.736978,17.1692697 28.333336,17.0625017 27.90625,17.0312517 Z M25.671876,20.3281254 L23,17.6718756 L20.328124,20.3281254 L22.328124,20.3281254 L22.328124,23.6718751 L23.671876,23.6718751 L23.671876,20.3281254 L25.671876,20.3281254 Z" id="Fill-1"></path>
            </g>
        </g>
    </g>
</svg>