<?xml version="1.0" encoding="UTF-8"?>
<svg width="17px" height="16px" viewBox="0 0 17 16" version="1.1" xmlns="http://www.w3.org/2000/svg" xmlns:xlink="http://www.w3.org/1999/xlink">
    <!-- Generator: Sketch 52.5 (67469) - http://www.bohemiancoding.com/sketch -->
    <title>taikhoankhachhang-active</title>
    <desc>Created with Sketch.</desc>
    <g id="Visual-Logistics" stroke="none" stroke-width="1" fill="none" fill-rule="evenodd">
        <path d="M8.47209059,8.97932165 C5.95976075,8.97932165 3.92201161,6.95174059 3.92201161,4.48277302 C3.92201161,2.01380544 5.95979092,1.13686838e-13 8.47209059,1.13686838e-13 C10.9843903,1.13686838e-13 13.0221696,2.00002982 13.0221696,4.48277302 C13.0221696,6.96551621 10.9844204,8.97932165 8.47209059,8.97932165 Z M8.47209059,1.17241893 C6.62970733,1.17241893 5.12232753,2.66203504 5.12232753,4.4827432 C5.12232753,6.30345136 6.6297375,7.79309728 8.47209059,7.79309728 C10.3144437,7.79309728 11.8218536,6.30348118 11.8218536,4.48277302 C11.8218536,2.66206485 10.3144437,1.17241893 8.47209059,1.17241893 Z M0.600157961,16 C0.265184672,16 1.70530257e-13,15.7379351 1.70530257e-13,15.4069027 C1.70530257e-13,12.2896459 2.56814866,9.76551621 5.70854587,9.76551621 L11.2914541,9.76551621 C14.4458211,9.76551621 17,12.3034514 17,15.4069027 C17,15.7379351 16.7348153,16 16.399842,16 L0.600157961,16 Z M5.70854587,10.9517108 C3.41955167,10.9517108 1.53528921,12.6482892 1.24219513,14.8137756 L15.7578049,14.8137756 C15.4646806,12.6344838 13.5804483,10.9517108 11.2914541,10.9517108 L5.70854587,10.9517108 Z" id="taikhoankhachhang-active" fill="#3466E6"></path>
    </g>
</svg>