<?xml version="1.0" encoding="UTF-8"?>
<svg width="20px" height="14px" viewBox="0 0 20 14" version="1.1" xmlns="http://www.w3.org/2000/svg" xmlns:xlink="http://www.w3.org/1999/xlink">
    <!-- Generator: Sketch 52.5 (67469) - http://www.bohemiancoding.com/sketch -->
    <title>taikhoanqlvanchuyen-df</title>
    <desc>Created with Sketch.</desc>
    <g id="Visual-Logistics" stroke="none" stroke-width="1" fill="none" fill-rule="evenodd">
        <path d="M17.5408213,12.1120245 C17.2530933,13.1979781 16.2702657,14 15.1050391,14 C13.9400511,14 12.9571198,13.1980364 12.6693037,12.1121428 L8.92733695,12.1121428 C8.63952082,13.1980364 7.65658949,14 6.49160156,14 C5.32659953,14 4.3436585,13.198017 4.05585572,12.1121034 L2.41597656,12.1121034 C2.06789063,12.1121034 1.78574219,11.8272584 1.78574219,11.4757577 C1.78574219,11.1242964 2.06785156,10.839412 2.41597656,10.839412 L4.04499845,10.839412 C4.31816547,9.73201963 5.3114739,8.90907657 6.49160156,8.90907657 C7.67172922,8.90907657 8.66503766,9.73201963 8.93820468,10.839412 L12.6584359,10.839412 C12.931603,9.73201963 13.9249114,8.90907657 15.1050391,8.90907657 C16.2851387,8.90907657 17.278428,9.73198055 17.5516227,10.8393331 L18.7394922,10.8393331 L18.7394922,7.55738425 L17.8216406,6.36357541 L12.9201562,6.36357541 C12.5720703,6.36357541 12.2899219,6.07873044 12.2899219,5.7272297 L12.2899219,1.27269142 L2.41597656,1.27269142 C2.06789063,1.27269142 1.78574219,0.987807008 1.78574219,0.636345709 C1.78574219,0.284884409 2.06785156,2.84217094e-14 2.41597656,2.84217094e-14 L12.9201953,2.84217094e-14 C13.2682812,2.84217094e-14 13.5504297,0.284844968 13.5504297,0.636345709 L13.5504297,1.27273086 L16.2394922,1.27273086 C16.4777344,1.27273086 16.6955859,1.40829056 16.8027344,1.62316668 L18.6934766,5.42010041 L18.6923451,5.42067486 L19.8676562,6.9490813 C19.9533594,7.0606607 20,7.19811358 20,7.33939227 L20,11.4756788 C19.9999609,11.8271401 19.7178516,12.1120245 19.3697266,12.1120245 L17.5408213,12.1120245 Z M17.1182902,5.09088399 L15.8508203,2.54546172 L13.5504297,2.54546172 L13.5504297,5.09088399 L17.1182902,5.09088399 Z M15.1050391,12.7272691 C15.8001953,12.7272691 16.3655469,12.1564749 16.3655469,11.4545383 C16.3655469,10.7526412 15.8001953,10.1818074 15.1050391,10.1818074 C14.4098828,10.1818074 13.8445313,10.7526412 13.8445313,11.4545383 C13.8445313,12.1564354 14.4098828,12.7272691 15.1050391,12.7272691 Z M6.49160156,12.7272691 C7.18675781,12.7272691 7.75210937,12.1564749 7.75210937,11.4545383 C7.75210937,10.7526412 7.1865625,10.1818074 6.49160156,10.1818074 C5.79644531,10.1818074 5.23109375,10.7526412 5.23109375,11.4545383 C5.23109375,12.1564354 5.79644531,12.7272691 6.49160156,12.7272691 Z M4.55882812,7.61516574 C4.90691406,7.61516574 5.1890625,7.90005015 5.18902344,8.25151145 C5.18902344,8.60297275 4.90691406,8.88785715 4.55878906,8.88785715 L1.65964844,8.88785715 C1.3115625,8.88785715 1.02941406,8.60301219 1.02941406,8.25151145 C1.02941406,7.90005015 1.31152344,7.61516574 1.65964844,7.61516574 L4.55882812,7.61516574 Z M6.00839844,5.1121034 C6.35652344,5.1121034 6.63863281,5.39702725 6.63863281,5.74848855 C6.63863281,6.09994985 6.35652344,6.38483426 6.00839844,6.38483426 L0.630234375,6.38483426 C0.282148438,6.38483426 2.55795385e-13,6.09998929 2.55795385e-13,5.74848855 C2.55795385e-13,5.39698781 0.282148438,5.1121034 0.630234375,5.1121034 L6.00839844,5.1121034 Z M7.0378125,2.60908051 C7.3859375,2.60908051 7.66808594,2.89396492 7.66804687,3.24542622 C7.66804687,3.59688752 7.3859375,3.88177193 7.0378125,3.88177193 L1.65964844,3.88177193 C1.3115625,3.88177193 1.02941406,3.59692696 1.02941406,3.24542622 C1.02941406,2.89396492 1.31152344,2.60908051 1.65964844,2.60908051 L7.0378125,2.60908051 Z" id="taikhoanqlvanchuyen-df" fill="#5F606D" fill-rule="nonzero"></path>
    </g>
</svg>