<?xml version="1.0" encoding="UTF-8"?>
<svg width="16px" height="16px" viewBox="0 0 16 16" version="1.1" xmlns="http://www.w3.org/2000/svg" xmlns:xlink="http://www.w3.org/1999/xlink">
    <!-- Generator: Sketch 52.5 (67469) - http://www.bohemiancoding.com/sketch -->
    <title>taikhoanlog-active</title>
    <desc>Created with Sketch.</desc>
    <g id="Visual-Logistics" stroke="none" stroke-width="1" fill="none" fill-rule="evenodd">
        <path d="M0.017260508,12.6728526 L1.43804509e-06,5.40117288 C-0.00083790882,5.04336928 0.365904212,4.80148715 0.695977367,4.94211447 L7.33746681,7.77194198 C7.52099525,7.85013799 7.64020874,8.02969338 7.64068087,8.22862131 L7.65793994,15.500301 C7.65877929,15.8581307 7.29203716,16.1000129 6.96196401,15.9593856 L0.320474563,13.1295581 C0.136946125,13.051362 0.017706411,12.8718067 0.017260508,12.6728526 Z M15.234252,5.74344708 L9.10536738,8.38909175 L9.12131497,15.1186543 L15.2502258,12.4730096 L15.234252,5.74344708 Z M15.4822527,4.86616683 C15.7456765,4.86551324 15.9820838,5.07672873 15.9827395,5.36347357 L15.9999986,12.6351533 C16.0004707,12.8340812 15.8820966,13.0142379 15.6989354,13.0932705 L9.07098039,15.9543921 C9.00559002,15.9826012 8.93859965,15.9957777 8.87336666,15.9959607 C8.60991666,15.996562 8.37348314,15.7853726 8.3728274,15.4986539 L8.35556833,8.2269481 C8.35506997,8.02802018 8.47347034,7.84786348 8.65665779,7.76883087 L15.2846128,4.90773542 C15.3500031,4.87947401 15.4169673,4.86632369 15.4822527,4.86616683 Z M7.95152773,0.77035354 L1.59386868,3.59976275 L7.9648786,6.39910662 L14.3225639,3.56972356 L7.95152773,0.77035354 Z M7.94971789,1.29519145e-06 C8.01875417,-0.000155567412 8.08784291,0.0139359231 8.15242016,0.0423019105 L15.1400615,3.11259979 C15.5364431,3.28679571 15.5377808,3.84692592 15.1422123,4.02295191 L8.1692071,7.12619093 C8.10478723,7.15487064 8.03575095,7.16927586 7.96668844,7.16945886 C7.89765216,7.16961573 7.82856342,7.15552424 7.76398617,7.12715825 L0.776371059,4.05686037 C0.379963272,3.88269059 0.378651793,3.32253424 0.774194003,3.14650825 L7.747173,0.0432692299 C7.8116191,0.0145895173 7.88062915,0.000158157795 7.94971789,1.29519145e-06 Z" id="taikhoanlog-active" fill="#3466E6"></path>
    </g>
</svg>