<?xml version="1.0" encoding="UTF-8"?>
<svg width="16px" height="16px" viewBox="0 0 16 16" version="1.1" xmlns="http://www.w3.org/2000/svg" xmlns:xlink="http://www.w3.org/1999/xlink">
    <!-- Generator: Sketch 52.5 (67469) - http://www.bohemiancoding.com/sketch -->
    <title>taikhoanketoan-df</title>
    <desc>Created with Sketch.</desc>
    <g id="Visual-Logistics" stroke="none" stroke-width="1" fill="none" fill-rule="evenodd">
        <path d="M16,1.875 C16,0.841064438 15.1589356,0 14.125,0 C13.7459717,0 3.26037597,0 1.875,0 C0.841064438,0 0,0.841064438 0,1.875 L0,14.125 C0,15.1589356 0.841064438,16 1.875,16 L14.125,16 C15.1589356,16 16,15.1589356 16,14.125 C16,13.7459717 16,3.26037597 16,1.875 Z M14.75,1.875 L14.75,7.375 L8.625,7.375 L8.625,1.25 L14.125,1.25 C14.4696045,1.25 14.75,1.5303955 14.75,1.875 Z M1.875,1.25 L7.375,1.25 L7.375,7.375 L1.25,7.375 L1.25,1.875 C1.25,1.5303955 1.5303955,1.25 1.875,1.25 Z M1.25,14.125 L1.25,8.625 L7.375,8.625 L7.375,14.75 L1.875,14.75 C1.5303955,14.75 1.25,14.4696045 1.25,14.125 Z M14.125,14.75 L8.625,14.75 L8.625,8.625 L14.75,8.625 L14.75,14.125 C14.75,14.4696045 14.4696045,14.75 14.125,14.75 Z M2.45837403,4.3125 C2.45837403,3.96728516 2.73815919,3.6875 3.08337403,3.6875 L3.6875,3.6875 L3.6875,3.08337403 C3.6875,2.73815919 3.96728516,2.45837403 4.3125,2.45837403 C4.65771484,2.45837403 4.9375,2.73815919 4.9375,3.08337403 L4.9375,3.6875 L5.54162597,3.6875 C5.88684081,3.6875 6.16662597,3.96728516 6.16662597,4.3125 C6.16662597,4.65771484 5.88684081,4.9375 5.54162597,4.9375 L4.9375,4.9375 L4.9375,5.54162597 C4.9375,5.88684081 4.65771484,6.16662597 4.3125,6.16662597 C3.96728516,6.16662597 3.6875,5.88684081 3.6875,5.54162597 L3.6875,4.9375 L3.08337403,4.9375 C2.73815919,4.9375 2.45837403,4.65771484 2.45837403,4.3125 Z M10.3764648,3.88525391 C10.1323242,3.64123534 10.1323242,3.24548341 10.3764648,3.00146484 C10.6204834,2.75732422 11.0162353,2.75732422 11.2602539,3.00146484 L11.6875,3.42858887 L12.1147461,3.00146484 C12.3587647,2.75732422 12.7545166,2.75732422 12.9985352,3.00146484 C13.2426758,3.24548341 13.2426758,3.64123534 12.9985352,3.88525391 L12.5714111,4.3125 L12.9985352,4.73974609 C13.2426758,4.98376466 13.2426758,5.37951659 12.9985352,5.62353516 C12.7545166,5.86767578 12.3587647,5.86767578 12.1147461,5.62353516 L11.6875,5.19641113 L11.2602539,5.62353516 C11.0162353,5.86767578 10.6204834,5.86767578 10.3764648,5.62353516 C10.1323242,5.37951659 10.1323242,4.98376466 10.3764648,4.73974609 L10.8035889,4.3125 L10.3764648,3.88525391 Z M6.16662597,11.6875 C6.16662597,12.0327148 5.88684081,12.3125 5.54162597,12.3125 L3.08337403,12.3125 C2.73815919,12.3125 2.45837403,12.0327148 2.45837403,11.6875 C2.45837403,11.3422852 2.73815919,11.0625 3.08337403,11.0625 L5.54174806,11.0625 C5.88684081,11.0625 6.16662597,11.3422852 6.16662597,11.6875 Z M13.541626,12.916626 C13.541626,13.2618408 13.2618408,13.541626 12.916626,13.541626 L10.458374,13.541626 C10.1131592,13.541626 9.83337403,13.2618408 9.83337403,12.916626 C9.83337403,12.5714111 10.1131592,12.291626 10.458374,12.291626 L12.916626,12.291626 C13.2618408,12.291626 13.541626,12.5714111 13.541626,12.916626 Z M13.541626,10.458374 C13.541626,10.8035889 13.2618408,11.083374 12.916626,11.083374 L10.458374,11.083374 C10.1131592,11.083374 9.83337403,10.8035889 9.83337403,10.458374 C9.83337403,10.1131592 10.1131592,9.83337403 10.458374,9.83337403 L12.916626,9.83337403 C13.2618408,9.83337403 13.541626,10.1131592 13.541626,10.458374 Z" id="taikhoanketoan-df" fill="#5F606D" fill-rule="nonzero"></path>
    </g>
</svg>