<?xml version="1.0" encoding="UTF-8"?>
<svg width="11px" height="12px" viewBox="0 0 11 12" version="1.1" xmlns="http://www.w3.org/2000/svg" xmlns:xlink="http://www.w3.org/1999/xlink">
    <!-- Generator: Sketch 52.5 (67469) - http://www.bohemiancoding.com/sketch -->
    <title>Combined Shape</title>
    <desc>Created with Sketch.</desc>
    <g id="Visual-Logistics" stroke="none" stroke-width="1" fill="none" fill-rule="evenodd">
        <g id="01.-Tài-khoản-Logistic" transform="translate(-1412.000000, -93.000000)" fill="#3466E6">
            <g id="Group-6" transform="translate(1258.000000, 81.000000)">
                <g id="Group-4" transform="translate(139.000000, 0.000000)">
                    <path d="M15.948944,17.0154793 C15.6305978,17.0154793 15.3336181,16.8524845 15.1579246,16.5821563 C14.9822311,16.3119266 14.9509548,15.9699033 15.0750448,15.6712025 C15.9685219,13.5162121 18.0634291,12 20.5000068,12 C22.1069652,12 23.5643823,12.659516 24.6279937,13.7263962 L25.0269235,13.1154732 C25.1273992,12.961591 25.3150086,12.8931962 25.4886718,12.9470845 C25.6620449,13.0009728 25.7803099,13.1644603 25.7792948,13.3493258 L25.764285,16.5989533 C25.7635116,16.7405702 25.6925961,16.8721877 25.5758539,16.9488825 C25.4589182,17.0254541 25.311939,17.036611 25.1850694,16.9785604 L22.2907799,15.6517456 C22.1249962,15.5758389 22.0278802,15.3977218 22.0522921,15.2141371 C22.0766557,15.0304538 22.2165047,14.8851179 22.396283,14.8567206 L22.92259,14.7736962 C22.2511165,14.2444923 21.4135694,13.9254233 20.5000068,13.9254233 C18.8424601,13.9254233 17.4206458,14.9599901 16.8159789,16.4279786 C16.6695314,16.7838434 16.3275467,17.0154793 15.948944,17.0154793 Z M25.8421132,19.4178684 C26.0177825,19.6881227 26.0490588,20.0301213 25.9248963,20.3288221 C25.0314434,22.4838126 22.9366087,24 20.4999827,24 C18.8930243,24 17.435583,23.340484 16.3719957,22.2735546 L15.9730659,22.8844776 C15.8726144,23.0383843 15.6849809,23.1068038 15.5113177,23.0529155 C15.3379204,22.9990272 15.2196796,22.8355397 15.2206947,22.6506742 L15.2357286,19.4010467 C15.2364779,19.2594545 15.3074175,19.127837 15.4241356,19.0511422 C15.5410954,18.9745459 15.6880505,18.9634382 15.8149442,19.0214642 L18.7092338,20.348279 C18.8750174,20.4241857 18.9721093,20.6023274 18.9477215,20.7858876 C18.9233096,20.9695955 18.7834606,21.114956 18.6037065,21.1433532 L18.0773754,21.2263284 C18.748873,21.7555323 19.5864201,22.0746013 20.5000068,22.0746013 C22.1575294,22.0746013 23.5793437,21.0400345 24.1840348,19.5720461 C24.3304823,19.2161813 24.672467,18.9845453 25.0510696,18.9845453 C25.3693917,18.9845453 25.6663956,19.1475155 25.8421132,19.4178684 Z" id="Combined-Shape"></path>
                </g>
            </g>
        </g>
    </g>
</svg>