<?xml version="1.0" encoding="UTF-8"?>
<svg width="12px" height="12px" viewBox="0 0 12 12" version="1.1" xmlns="http://www.w3.org/2000/svg" xmlns:xlink="http://www.w3.org/1999/xlink">
    <!-- Generator: Sketch 52.5 (67469) - http://www.bohemiancoding.com/sketch -->
    <title>Path</title>
    <desc>Created with Sketch.</desc>
    <g id="Visual-Logistics" stroke="none" stroke-width="1" fill="none" fill-rule="evenodd">
        <g id="01.-Tài-khoản-Logistic" transform="translate(-1273.000000, -94.000000)" fill="#3466E6" fill-rule="nonzero">
            <g id="Group-6" transform="translate(1258.000000, 81.000000)">
                <g id="Group-2">
                    <path d="M25.9285714,17.9285714 L22.2857143,17.9285714 C22.1673758,17.9285714 22.0714286,17.8326242 22.0714286,17.7142857 L22.0714286,14.0714286 C22.0714286,13.4797363 21.5916923,13 21,13 C20.4083077,13 19.9285714,13.4797363 19.9285714,14.0714286 L19.9285714,17.7142857 C19.9285714,17.8326242 19.8326242,17.9285714 19.7142857,17.9285714 L16.0714286,17.9285714 C15.4797363,17.9285714 15,18.4083077 15,19 C15,19.5916923 15.4797363,20.0714286 16.0714286,20.0714286 L19.7142857,20.0714286 C19.8326242,20.0714286 19.9285714,20.1673758 19.9285714,20.2857143 L19.9285714,23.9285714 C19.9285714,24.5202637 20.4083077,25 21,25 C21.5916923,25 22.0714286,24.5202637 22.0714286,23.9285714 L22.0714286,20.2857143 C22.0714286,20.1673758 22.1673758,20.0714286 22.2857143,20.0714286 L25.9285714,20.0714286 C26.5202637,20.0714286 27,19.5916923 27,19 C27,18.4083077 26.5202637,17.9285714 25.9285714,17.9285714 Z" id="Path"></path>
                </g>
            </g>
        </g>
    </g>
</svg>