<?xml version="1.0" encoding="UTF-8"?>
<svg width="17px" height="14px" viewBox="0 0 17 14" version="1.1" xmlns="http://www.w3.org/2000/svg" xmlns:xlink="http://www.w3.org/1999/xlink">
    <!-- Generator: Sketch 52.5 (67469) - http://www.bohemiancoding.com/sketch -->
    <title>tongquan-active</title>
    <desc>Created with Sketch.</desc>
    <g id="Visual-Logistics" stroke="none" stroke-width="1" fill="none" fill-rule="evenodd">
        <path d="M14.4481074,2.64371674 C14.6737227,2.87751903 14.706959,3.24447546 14.5272969,3.5176977 C13.8499863,4.54708822 10.4443418,9.7103454 9.90874219,10.2652518 C9.52033203,10.6675692 9.01016602,10.8687623 8.5000332,10.8687623 C7.98990039,10.8687623 7.47970117,10.6675692 7.09132422,10.2652518 C6.31457031,9.46051371 6.31457031,8.15119336 7.09132422,7.3464553 C7.62695703,6.79158333 12.6108789,3.26335989 13.6045156,2.56171223 C13.8682812,2.37551658 14.222459,2.40998324 14.4481074,2.64371674 Z M8.96955859,9.29230815 C9.17515234,9.07677112 10.1843281,7.61090609 11.3944492,5.80728842 C9.65347656,7.06098742 8.23845898,8.10647614 8.0303418,8.31953651 C7.77152344,8.58777107 7.77155664,9.02410799 8.03047461,9.29230815 C8.28935937,9.5605771 8.71067383,9.5605771 8.96955859,9.29230815 Z M3.06235742,12.0056806 C3.39199805,11.8391605 3.78957227,11.9809141 3.950375,12.3223817 C4.11117773,12.6638837 3.97431445,13.0757294 3.64467383,13.2423182 L2.2833457,13.9302755 C2.19001172,13.977435 2.09066797,13.9999656 1.99258594,13.9999656 C1.77683203,13.9999656 1.56702148,13.89089 1.44011914,13.6943062 C0.497980469,12.2344264 5.68434189e-14,10.5439777 5.68434189e-14,8.80585353 C5.68434189e-14,6.4537275 0.884166016,4.24239193 2.48957031,2.57915195 C4.09504102,0.915946359 6.22957031,-1.42108547e-13 8.5,-1.42108547e-13 C9.71719336,-1.42108547e-13 10.8927168,0.261148594 11.9939316,0.776119036 C12.3282207,0.932457334 12.4768711,1.33990005 12.3259629,1.68621776 C12.1750547,2.03243227 11.7816973,2.18650031 11.4475078,2.03016201 C10.720791,1.6903111 9.95525977,1.48158486 9.1640957,1.40697589 L9.1640957,2.44221404 C9.1640957,2.82217286 8.86679492,3.13017135 8.5000332,3.13017135 C8.13327148,3.13017135 7.8359707,2.82217286 7.8359707,2.44221404 L7.8359707,1.40749186 C5.52838672,1.62798217 3.53397461,2.98583791 2.38126172,4.93344504 L3.30869141,5.39430764 C3.63939453,5.55862625 3.77884766,5.96957755 3.62026953,6.31214589 C3.50608398,6.55877858 3.26851563,6.70273365 3.02105273,6.70273365 C2.92473047,6.70273365 2.82694727,6.6809254 2.73431055,6.63490106 L1.79496094,6.16812202 C1.49337695,6.98820153 1.328125,7.87742075 1.328125,8.80585353 C1.328125,10.0730365 1.64272461,11.3109125 2.24257227,12.4199685 L3.06235742,12.0056806 Z M16.2508047,5.18623496 C16.7479219,6.32704016 17,7.54486219 17,8.80585353 C17,10.5439777 16.5020195,12.2344264 15.5598477,13.6943406 C15.4331113,13.8907868 15.2232676,14 15.0074473,14 C14.911291,14 14.8140391,13.9783637 14.7222988,13.9331305 L13.3277676,13.2451732 C12.9966328,13.0818178 12.8560176,12.6712793 13.0136992,12.3282637 C13.1714141,11.9851794 13.5676934,11.8395733 13.8987617,12.0028943 L14.7546387,12.4251281 C15.3562461,11.3147994 15.671875,10.0749284 15.671875,8.80585353 C15.671875,7.74137719 15.4594082,6.71401615 15.0403184,5.75232063 C14.8894102,5.40603732 15.0380605,4.9985946 15.3723164,4.8422563 C15.7067051,4.68584921 16.0999297,4.83995165 16.2508047,5.18623496 Z" id="tongquan-active" fill="#3466E6"></path>
    </g>
</svg>