<?xml version="1.0" encoding="UTF-8"?>
<svg width="16px" height="16px" viewBox="0 0 16 16" version="1.1" xmlns="http://www.w3.org/2000/svg" xmlns:xlink="http://www.w3.org/1999/xlink">
    <!-- Generator: Sketch 52.5 (67469) - http://www.bohemiancoding.com/sketch -->
    <title>tonkho-active</title>
    <desc>Created with Sketch.</desc>
    <g id="Visual-Logistics" stroke="none" stroke-width="1" fill="none" fill-rule="evenodd">
        <path d="M3.07287597,4.3125 C3.07287597,3.96728516 3.35266113,3.6875 3.69787597,3.6875 L9.84375,3.6875 C10.1889648,3.6875 10.46875,3.96728516 10.46875,4.3125 C10.46875,4.65771484 10.1889648,4.9375 9.84375,4.9375 L3.69787597,4.9375 C3.35278319,4.9375 3.07287597,4.65771484 3.07287597,4.3125 Z M3.69787597,8.625 L9.84375,8.625 C10.1889648,8.625 10.46875,8.34521484 10.46875,8 C10.46875,7.65478516 10.1889648,7.375 9.84375,7.375 L3.69787597,7.375 C3.35266113,7.375 3.07287597,7.65478516 3.07287597,8 C3.07287597,8.34521484 3.35278319,8.625 3.69787597,8.625 Z M7.38549806,11.0625 L3.69787597,11.0625 C3.35266112,11.0625 3.07287597,11.3422852 3.07287597,11.6875 C3.07287597,12.0327148 3.35266112,12.3125 3.69787597,12.3125 L7.38549806,12.3125 C7.73059081,12.3125 8.01049806,12.0327148 8.01049806,11.6875 C8.01049806,11.3422852 7.73071288,11.0625 7.38549806,11.0625 Z M16,11.6875 L16,15.375 C16,15.7202148 15.7202148,16 15.375,16 C14.9838867,16 2.22924806,16 1.85400391,16 C0.831665031,16 0,15.168335 0,14.1459961 L0,1.85400391 C0,0.831665031 0.831665031,0 1.85400391,0 L11.6876221,0 C12.7099609,0 13.5417481,0.831665031 13.5417481,1.85400391 L13.5417481,8.97033691 L15.8168945,11.2456055 C15.9342041,11.362793 16,11.5217285 16,11.6875 Z M1.85400391,14.75 L9.83349609,14.75 L9.83349609,11.6875 C9.83349609,11.5217285 9.899292,11.362793 10.0164795,11.2456055 L12.2917481,8.97009278 L12.2917481,1.85400391 C12.2917481,1.52099609 12.0207519,1.25 11.6876221,1.25 L1.85400391,1.25 C1.52099609,1.25 1.25,1.52099609 1.25,1.85400391 L1.25,14.1459961 C1.25,14.4790039 1.52099609,14.75 1.85400391,14.75 Z M14.75,11.9464111 L12.916626,10.112915 L11.0834961,11.9462891 L11.0834961,14.75 L14.75,14.75 L14.75,11.9464111 Z" id="tonkho-active" fill="#3466E6"></path>
    </g>
</svg>