<?xml version="1.0" encoding="UTF-8"?>
<svg width="16px" height="16px" viewBox="0 0 16 16" version="1.1" xmlns="http://www.w3.org/2000/svg" xmlns:xlink="http://www.w3.org/1999/xlink">
    <!-- Generator: Sketch 52.5 (67469) - http://www.bohemiancoding.com/sketch -->
    <title>Shape Copy 5</title>
    <desc>Created with Sketch.</desc>
    <g id="Visual-Logistics" stroke="none" stroke-width="1" fill="none" fill-rule="evenodd">
        <path d="M4.69372559,7.84326172 C3.84338378,6.97399903 3.375,5.83105469 3.375,4.625 C3.375,2.07470703 5.44970703,0 8,0 C10.550293,0 12.625,2.07470703 12.625,4.625 C12.625,6.80175781 11.1131592,8.631958 9.08447266,9.12121581 C8.8688965,9.49682619 8.46411131,9.75 8,9.75 C7.30969238,9.75 6.75,9.19030762 6.75,8.5 C6.75,7.80969238 7.30969238,7.25 8,7.25 C8.44409181,7.25 8.83374025,7.48181153 9.055542,7.83081056 C10.4011231,7.38659669 11.375,6.11755372 11.375,4.625 C11.375,2.76403809 9.86096191,1.25 8,1.25 C6.13903809,1.25 4.625,2.76403809 4.625,4.625 C4.625,5.50231934 4.96679688,6.33483887 5.58728028,6.96923828 C5.82861328,7.21594238 5.82434081,7.61157225 5.57763672,7.85302734 C5.33081056,8.09436034 4.93518066,8.09008788 4.69372559,7.84326172 Z M14.730835,10.1566162 C14.2005615,9.69067381 13.5574951,9.28808594 12.8193359,8.960083 C12.5039062,8.81994628 12.1346436,8.96203612 11.9943848,9.27746581 C11.8542481,9.5928955 11.9963379,9.96228028 12.3117676,10.102417 C12.9342041,10.3790283 13.4705811,10.7131347 13.9057617,11.0955811 C14.4422607,11.5670166 14.75,12.2496338 14.75,12.96875 L14.75,14.125 C14.75,14.4696045 14.4696045,14.75 14.125,14.75 L1.875,14.75 C1.5303955,14.75 1.25,14.4696045 1.25,14.125 L1.25,12.96875 C1.25,12.2496338 1.55773925,11.5670166 2.09423828,11.0955811 C2.618042,10.6352539 3.564209,10.0030517 5.09680175,9.60498047 C5.43090819,9.51818847 5.63134766,9.17687987 5.54455566,8.8428955 C5.45776369,8.50878906 5.11657716,8.30834962 4.78247069,8.39514159 C3.01232909,8.85498047 1.89489747,9.60681153 1.26916503,10.1566162 C0.462524406,10.8652344 0,11.8902588 0,12.96875 L0,14.125 C0,15.1589356 0.841064438,16 1.875,16 L14.125,16 C15.1589356,16 16,15.1589356 16,14.125 L16,12.96875 C16,11.8902588 15.5374756,10.8652344 14.730835,10.1566162 Z" id="Shape-Copy-5" fill="#3466E6" fill-rule="nonzero"></path>
    </g>
</svg>