<?xml version="1.0" encoding="UTF-8"?>
<svg width="24px" height="13px" viewBox="0 0 24 13" version="1.1" xmlns="http://www.w3.org/2000/svg" xmlns:xlink="http://www.w3.org/1999/xlink">
    <!-- Generator: Sketch 52.5 (67469) - http://www.bohemiancoding.com/sketch -->
    <title>vanchuyenthang-active</title>
    <desc>Created with Sketch.</desc>
    <g id="Visual-Logistics" stroke="none" stroke-width="1" fill="none" fill-rule="evenodd">
        <path d="M22.9443535,2.98504114 C23.6317512,3.72400898 24,4.78384443 24,6.04300673 L24,10.8900524 C24,11.21092 23.7348609,11.473448 23.410802,11.473448 L22.0949264,11.473448 C21.893617,12.3485415 21.1080196,13 20.1653028,13 C19.2225859,13 18.4369885,12.3436799 18.2356792,11.473448 L17.2929624,11.473448 L11.1751227,11.473448 C10.9738134,12.3485415 10.188216,13 9.24549918,13 C8.30278232,13 7.51227496,12.3485415 7.31587561,11.473448 C7.30114566,11.473448 7.2913257,11.473448 7.27659574,11.473448 L5.52373159,11.473448 C5.19967267,11.473448 4.93453355,11.21092 4.93453355,10.8900524 L4.93453355,8.8578908 L2.64157119,8.8578908 C2.31751227,8.8578908 2.05237316,8.59536275 2.05237316,8.27449514 C2.05237316,7.95362752 2.31751227,7.69109948 2.64157119,7.69109948 L5.47463175,7.69109948 C5.48445172,7.69109948 5.4893617,7.69109948 5.49918167,7.69109948 C5.50900164,7.69109948 5.5188216,7.69109948 5.52864157,7.69109948 C5.85270049,7.69109948 6.11783961,7.95362752 6.11783961,8.27449514 L6.11783961,10.3115183 L7.28150573,10.3115183 C7.32569558,10.3115183 7.36497545,10.31638 7.4091653,10.3261032 C7.69885434,9.60172027 8.41080196,9.08638743 9.24549918,9.08638743 C10.0752864,9.08638743 10.787234,9.59685864 11.0818331,10.31638 C11.106383,10.3115183 11.1309329,10.3115183 11.1554828,10.3115183 L16.7037643,10.3115183 L16.7037643,2.48915482 L16.7037643,1.16679132 L6.11783961,1.16679132 L6.11783961,3.19895288 C6.11783961,3.51982049 5.85270049,3.78234854 5.52864157,3.78234854 C5.52373159,3.78234854 5.52373159,3.78234854 5.52373159,3.78234854 C5.5188216,3.78234854 5.51391162,3.78234854 5.50900164,3.78234854 L2.64157119,3.78234854 C2.31751227,3.78234854 2.05237316,3.51982049 2.05237316,3.19895288 C2.05237316,2.87808527 2.31751227,2.61555722 2.64157119,2.61555722 L4.93453355,2.61555722 L4.93453355,0.583395662 C4.93453355,0.262528048 5.19967267,-5.68434189e-14 5.52373159,-5.68434189e-14 L17.2880524,-5.68434189e-14 C17.6121113,-5.68434189e-14 17.8772504,0.262528048 17.8772504,0.583395662 L17.8772504,1.90575916 L20.3469722,1.90575916 C21.3731588,1.90575916 22.2962357,2.28982797 22.9443535,2.98504114 Z M9.24549918,11.8380703 C9.68739771,11.8380703 10.0458265,11.4831713 10.0458265,11.0456245 C10.0458265,10.6080778 9.68739771,10.2531788 9.24549918,10.2531788 C8.80360065,10.2531788 8.44517185,10.6080778 8.44517185,11.0456245 C8.44517185,11.4831713 8.80360065,11.8380703 9.24549918,11.8380703 Z M20.1653028,11.8380703 C20.6022913,11.8380703 20.9607201,11.4831713 20.9656301,11.0456245 C20.9656301,10.6080778 20.6072013,10.2531788 20.1653028,10.2531788 C19.7234043,10.2531788 19.3649755,10.6080778 19.3649755,11.0456245 C19.3649755,11.4831713 19.7234043,11.8380703 20.1653028,11.8380703 Z M22.8216039,10.3115183 L22.8216039,6.04786836 C22.8216039,4.18586387 21.898527,3.07255049 20.3518822,3.07255049 L17.8821604,3.07255049 L17.8821604,10.3115183 L18.3338789,10.3115183 C18.6284779,9.59199701 19.3404255,9.08638743 20.1653028,9.08638743 C20.99018,9.08638743 21.7021277,9.59685864 21.9967267,10.3115183 L22.8216039,10.3115183 Z M10.1194763,6.83059088 L10.6252046,6.29581152 L0.589198036,6.29581152 C0.265139116,6.29581152 1.13686838e-13,6.03328347 1.13686838e-13,5.71241586 C1.13686838e-13,5.39154824 0.265139116,5.12902019 0.589198036,5.12902019 L10.6301146,5.12902019 L10.193126,4.69633508 C9.96235679,4.46783844 9.96235679,4.09835453 10.193126,3.86985789 C10.4238953,3.64136126 10.797054,3.64136126 11.0278232,3.86985789 L12.4713584,5.29917726 L12.4762684,5.30403889 C12.4860884,5.31862378 12.5008183,5.32834705 12.5106383,5.34293194 C12.5155483,5.3526552 12.5204583,5.35751683 12.5253682,5.36724009 C12.5351882,5.37696335 12.5400982,5.38182498 12.5450082,5.39154824 C12.5499182,5.4012715 12.5548282,5.41099476 12.5597381,5.42071803 C12.5646481,5.43044129 12.5695581,5.43530292 12.5744681,5.44502618 C12.5793781,5.45474944 12.5842881,5.4644727 12.589198,5.47419596 C12.589198,5.48391922 12.594108,5.48878085 12.599018,5.49850411 C12.603928,5.50822737 12.603928,5.51795064 12.608838,5.5276739 C12.613748,5.53253553 12.613748,5.54225879 12.6186579,5.55198205 C12.6186579,5.56170531 12.6235679,5.57142857 12.6235679,5.58115183 C12.6235679,5.59087509 12.6284779,5.60059835 12.6284779,5.61032162 C12.6284779,5.62490651 12.6333879,5.63462977 12.6333879,5.64435303 C12.6382979,5.65407629 12.6382979,5.65893792 12.6382979,5.66866118 C12.6432079,5.70755423 12.6432079,5.74644727 12.6382979,5.78534031 C12.6382979,5.79506358 12.6333879,5.79992521 12.6333879,5.80964847 C12.6333879,5.82423336 12.6284779,5.83395662 12.6284779,5.84367988 C12.6284779,5.85340314 12.6235679,5.8631264 12.6235679,5.87284966 C12.6235679,5.88257292 12.6235679,5.89229619 12.6186579,5.90201945 C12.613748,5.90688108 12.613748,5.91660434 12.608838,5.9263276 C12.603928,5.93605086 12.603928,5.94577412 12.599018,5.95549738 C12.599018,5.96522064 12.594108,5.97008227 12.589198,5.97980553 C12.5842881,5.9895288 12.5793781,5.99925206 12.5744681,6.00897532 C12.5695581,6.01869858 12.5646481,6.02356021 12.5597381,6.03328347 C12.5548282,6.04300673 12.5499182,6.05272999 12.5450082,6.06245325 C12.5351882,6.07217651 12.5302782,6.07703815 12.5253682,6.08676141 C12.5204583,6.09648467 12.5155483,6.1013463 12.5106383,6.11106956 C12.5008183,6.12565445 12.4860884,6.13537771 12.4762684,6.1499626 L12.4713584,6.15482423 L10.9541735,7.65706806 C10.8363339,7.76888556 10.6890344,7.82722513 10.5368249,7.82722513 C10.3846154,7.82722513 10.2324059,7.76888556 10.1194763,7.65706806 C9.88870704,7.42857143 9.88870704,7.05908751 10.1194763,6.83059088 Z" id="vanchuyenthang-active" fill="#3466E6"></path>
    </g>
</svg>