<?xml version="1.0" encoding="UTF-8"?>
<svg width="10px" height="12px" viewBox="0 0 10 12" version="1.1" xmlns="http://www.w3.org/2000/svg" xmlns:xlink="http://www.w3.org/1999/xlink">
    <!-- Generator: Sketch 52.5 (67469) - http://www.bohemiancoding.com/sketch -->
    <title>Combined Shape</title>
    <desc>Created with Sketch.</desc>
    <g id="Visual-Logistics" stroke="none" stroke-width="1" fill="none" fill-rule="evenodd">
        <g id="07.-Chi-tiết-đơn-hàng---Từ-nhà-cung-cấp---Hết-số-lượng-thiếu" transform="translate(-838.000000, -602.000000)" fill="#717286">
            <g id="Group-5" transform="translate(290.000000, 531.000000)">
                <g id="Group-8-Copy-3" transform="translate(541.000000, 65.000000)">
                    <path d="M14.0445392,10.742149 L13.8624723,15.8755673 L13.0226887,15.8438942 L13.2047557,10.7103462 L14.0445392,10.742149 Z M11.5798358,10.7262476 L12.4201642,10.7262476 L12.4201642,15.8598173 L11.5798358,15.8598173 L11.5798358,10.7262476 Z M10.9771646,15.8437644 L10.137402,15.8755673 L9.95531408,10.7420192 L10.7950977,10.7101947 L10.9771646,15.8437644 Z M7,8.5860649 L17,8.5860649 L17,9.45369952 L16.1102208,9.45369952 L15.4155418,17.6040649 C15.3966415,17.8280697 15.214847,18 14.9970539,18 L8.98878137,18 C8.77100926,18 8.58934042,17.8281995 8.57029348,17.6042163 L7.87563542,9.45369952 L7,9.45369952 L7,8.5860649 Z M14.6121967,17.1323654 L15.2666865,9.45369952 L8.71919068,9.45369952 L9.37353376,17.1323654 L14.6121967,17.1323654 Z M13.3725531,6 C13.7586885,6 14.0728268,6.32434615 14.0728268,6.72302885 L14.0728268,8.09680529 L13.2324984,8.09680529 L13.2324984,6.86763462 L10.7675016,6.86763462 L10.7675016,8.09680529 L9.92717322,8.09680529 L9.92717322,6.72302885 C9.92717322,6.32434615 10.2413115,6 10.6274469,6 L13.3725531,6 Z" id="Combined-Shape"></path>
                </g>
            </g>
        </g>
    </g>
</svg>