<?xml version="1.0" encoding="UTF-8"?>
<svg width="11px" height="13px" viewBox="0 0 11 13" version="1.1" xmlns="http://www.w3.org/2000/svg" xmlns:xlink="http://www.w3.org/1999/xlink">
    <!-- Generator: Sketch 52.5 (67469) - http://www.bohemiancoding.com/sketch -->
    <title>Combined Shape</title>
    <desc>Created with Sketch.</desc>
    <g id="Visual-Logistics" stroke="none" stroke-width="1" fill="none" fill-rule="evenodd">
        <g id="11.-Hoá-đơn-đầu-ra" transform="translate(-534.000000, -92.000000)" fill="#3466E6" fill-rule="nonzero">
            <g id="Group-3-Copy" transform="translate(518.000000, 80.000000)">
                <path d="M24.7209945,21.9398692 C24.9727534,21.9398692 25.1767956,22.1242467 25.1767956,22.3517422 C25.1767956,22.5792377 24.9727534,22.7636152 24.7209945,22.7636152 L18.2790055,22.7636152 C18.0272466,22.7636152 17.8232044,22.5792377 17.8232044,22.3517422 C17.8232044,22.1242467 18.0272466,21.9398692 18.2790055,21.9398692 L24.7209945,21.9398692 Z M24.7209945,20.292377 C24.9727534,20.292377 25.1767956,20.4767546 25.1767956,20.7042501 C25.1767956,20.9317456 24.9727534,21.1161231 24.7209945,21.1161231 L18.2790055,21.1161231 C18.0272466,21.1161231 17.8232044,20.9317456 17.8232044,20.7042501 C17.8232044,20.4767546 18.0272466,20.292377 18.2790055,20.292377 L24.7209945,20.292377 Z M17.8232044,19.056758 C17.8232044,18.8292625 18.0272466,18.6448849 18.2790055,18.6448849 L24.7209945,18.6448849 C24.9727534,18.6448849 25.1767956,18.8292625 25.1767956,19.056758 C25.1767956,19.2842534 24.9727534,19.468631 24.7209945,19.468631 L18.2790055,19.468631 C18.0272466,19.468631 17.8232044,19.2842534 17.8232044,19.056758 Z M18.2790055,17.8211389 C18.0272466,17.8211389 17.8232044,17.6367613 17.8232044,17.4092658 C17.8232044,17.1817703 18.0272466,16.9973928 18.2790055,16.9973928 L21.0138122,16.9973928 C21.265571,16.9973928 21.4696133,17.1817703 21.4696133,17.4092658 C21.4696133,17.6367613 21.265571,17.8211389 21.0138122,17.8211389 L18.2790055,17.8211389 Z M26.5441989,13.3179937 C26.7959578,13.3179937 27,13.5023712 27,13.7298667 L27,24.588127 C27,24.8156225 26.7959578,25 26.5441989,25 L16.4558011,25 C16.2040422,25 16,24.8156225 16,24.588127 L16,13.7298667 C16,13.5023712 16.2040422,13.3179937 16.4558011,13.3179937 L17.4344678,13.3179937 C17.6038501,12.5668617 18.3404912,12 19.2209945,12 C20.1014977,12 20.8381388,12.5668617 21.0075212,13.3179937 L21.9924788,13.3179937 C22.1618612,12.5668617 22.8985023,12 23.7790055,12 C24.6595088,12 25.3961499,12.5668617 25.5655322,13.3179937 L26.5441989,13.3179937 Z M23.7790055,12.8237461 C23.4059371,12.8237461 23.0847397,13.0273229 22.9437263,13.3179937 L24.6142848,13.3179937 C24.4732713,13.0273229 24.152074,12.8237461 23.7790055,12.8237461 Z M19.2209945,12.8237461 C18.847926,12.8237461 18.5267287,13.0273229 18.3857152,13.3179937 L20.0562737,13.3179937 C19.9152603,13.0273229 19.5940629,12.8237461 19.2209945,12.8237461 Z M26.0883978,24.1762539 L26.0883978,14.1417398 L23.0501985,14.1417398 C23.2167321,14.3416698 23.4814291,14.4712382 23.7790055,14.4712382 C24.0307644,14.4712382 24.2348066,14.6556157 24.2348066,14.8831112 C24.2348066,15.1106067 24.0307644,15.2949843 23.7790055,15.2949843 C22.9641424,15.2949843 22.2726066,14.8094246 22.0397207,14.1417398 L18.4921875,14.1417398 C18.6587211,14.3416698 18.9234181,14.4712382 19.2209945,14.4712382 C19.4727534,14.4712382 19.6767956,14.6556157 19.6767956,14.8831112 C19.6767956,15.1106067 19.4727534,15.2949843 19.2209945,15.2949843 C18.4061313,15.2949843 17.7145956,14.8094246 17.4817097,14.1417398 L16.9116022,14.1417398 L16.9116022,24.1762539 L26.0883978,24.1762539 Z" id="Combined-Shape"></path>
            </g>
        </g>
    </g>
</svg>