<?xml version="1.0" encoding="UTF-8"?>
<svg width="12px" height="13px" viewBox="0 0 12 13" version="1.1" xmlns="http://www.w3.org/2000/svg" xmlns:xlink="http://www.w3.org/1999/xlink">
    <!-- Generator: Sketch 52.5 (67469) - http://www.bohemiancoding.com/sketch -->
    <title>Shape</title>
    <desc>Created with Sketch.</desc>
    <g id="Visual-Logistics" stroke="none" stroke-width="1" fill="none" fill-rule="evenodd">
        <g id="11.-Hoá-đơn-đầu-ra" transform="translate(-413.000000, -92.000000)" fill="#3466E6" fill-rule="nonzero">
            <g id="Group-3" transform="translate(396.000000, 80.000000)">
                <path d="M26.094125,16.875 L24.2821786,16.875 L23.0000804,18.6654453 L21.7177946,16.875 L19.9059018,16.875 L22.0777143,19.9531562 L19.6271696,23.375 L23.1393125,23.375 L23.1393125,22.2124141 L22.3282946,22.2124141 L23.0000268,21.2603418 L24.4919375,23.375 L26.3728571,23.375 L23.9222857,19.9531562 L26.094125,16.875 Z M28.2424196,14.5318262 L26.3290089,12.7181484 C25.9123839,12.3231719 25.0892857,12 24.5,12 L18.0714286,12 C17.4821429,12 17,12.4570312 17,13.015625 L17,23.984375 C17,24.5429688 17.4821429,25 18.0714286,25 L27.9285714,25 C28.5178571,25 29,24.5429688 29,23.984375 L29,16.265625 C29,15.7070312 28.6590446,14.9268027 28.2424196,14.5318262 Z M27.6363393,15.1063652 C27.6782321,15.1461016 27.7200446,15.1949023 27.7605982,15.25 L25.5714286,15.25 L25.5714286,13.174875 C25.6295536,13.2133418 25.6810357,13.2529512 25.7229286,13.2926875 L27.6363393,15.1063652 Z M28.1428571,23.984375 C28.1428571,24.0944688 28.0447143,24.1875 27.9285714,24.1875 L18.0714286,24.1875 C17.9552857,24.1875 17.8571429,24.0944688 17.8571429,23.984375 L17.8571429,13.015625 C17.8571429,12.9055312 17.9552857,12.8125 18.0714286,12.8125 L24.5,12.8125 C24.5647143,12.8125 24.6373304,12.8202441 24.7142857,12.8341328 L24.7142857,16.0625 L28.1200357,16.0625 C28.1346875,16.1354473 28.1428571,16.2042559 28.1428571,16.265625 L28.1428571,23.984375 Z" id="Shape"></path>
            </g>
        </g>
    </g>
</svg>