<?xml version="1.0" encoding="UTF-8"?>
<svg width="6px" height="4px" viewBox="0 0 6 4" version="1.1" xmlns="http://www.w3.org/2000/svg" xmlns:xlink="http://www.w3.org/1999/xlink">
    <!-- Generator: Sketch 52.5 (67469) - http://www.bohemiancoding.com/sketch -->
    <title>Fill 1</title>
    <desc>Created with Sketch.</desc>
    <g id="Page-1" stroke="none" stroke-width="1" fill="none" fill-rule="evenodd">
        <g id="05.-Thông-tin-tài-khoản" transform="translate(-1464.000000, -29.000000)" fill="#717286">
            <g id="Group" transform="translate(1394.000000, 23.000000)">
                <path d="M70.05625,6.52083333 C70.0187498,6.47916667 70,6.41666667 70,6.33333333 C70,6.23611067 70.0312497,6.15625067 70.09375,6.09374933 C70.1562503,6.03124933 70.2312496,6 70.31875,6 L75.68125,6 C75.7687504,6 75.8437492,6.03124933 75.90625,6.09374933 C75.9687508,6.15625067 76,6.23611067 76,6.33333333 C76,6.40277867 75.98125,6.45833333 75.94375,6.5 L75.90625,6.5625 L73.35625,9.8125 C73.24375,9.93750063 73.1250004,10 73,10 C72.8749996,10 72.75625,9.93750063 72.64375,9.8125 L70.09375,6.5625 L70.05625,6.52083333 Z" id="Fill-1"></path>
            </g>
        </g>
    </g>
</svg>