<?xml version="1.0" encoding="UTF-8"?>
<svg width="9px" height="6px" viewBox="0 0 9 6" version="1.1" xmlns="http://www.w3.org/2000/svg" xmlns:xlink="http://www.w3.org/1999/xlink">
    <!-- Generator: Sketch 52.5 (67469) - http://www.bohemiancoding.com/sketch -->
    <title>Fill 1 Copy 2</title>
    <desc>Created with Sketch.</desc>
    <g id="Page-1" stroke="none" stroke-width="1" fill="none" fill-rule="evenodd">
        <g id="05.-Thông-tin-tài-khoản" transform="translate(-611.000000, -243.000000)" fill="#444444">
            <path d="M611.084375,243.78125 C611.028125,243.71875 611,243.625 611,243.5 C611,243.354166 611.046875,243.234376 611.140625,243.140624 C611.234375,243.046874 611.346874,243 611.478125,243 L619.521875,243 C619.653126,243 619.765624,243.046874 619.859375,243.140624 C619.953126,243.234376 620,243.354166 620,243.5 C620,243.604168 619.971875,243.6875 619.915625,243.75 L619.859375,243.84375 L616.034375,248.71875 C615.865625,248.906251 615.687501,249 615.5,249 C615.312499,249 615.134375,248.906251 614.965625,248.71875 L611.140625,243.84375 L611.084375,243.78125 Z" id="Fill-1-Copy-2" transform="translate(615.500000, 246.000000) scale(1, -1) rotate(-180.000000) translate(-615.500000, -246.000000) "></path>
        </g>
    </g>
</svg>