<?xml version="1.0" encoding="UTF-8"?>
<svg width="14px" height="14px" viewBox="0 0 14 14" version="1.1" xmlns="http://www.w3.org/2000/svg" xmlns:xlink="http://www.w3.org/1999/xlink">
    <!-- Generator: Sketch 52.5 (67469) - http://www.bohemiancoding.com/sketch -->
    <title>Combined Shape Copy</title>
    <desc>Created with Sketch.</desc>
    <g id="Page-1" stroke="none" stroke-width="1" fill="none" fill-rule="evenodd">
        <g id="05.-Thông-tin-tài-khoản" transform="translate(-956.000000, -147.000000)" fill="#444444" fill-rule="nonzero">
            <path d="M966.554688,153.289062 C966.252657,153.289062 966.007812,153.044218 966.007812,152.742188 C966.007812,152.440157 966.252657,152.195312 966.554688,152.195312 C966.856718,152.195312 967.101562,152.440157 967.101562,152.742188 C967.101562,153.044218 966.856718,153.289062 966.554688,153.289062 Z M967.8125,148.09375 C969.018688,148.09375 970,149.075063 970,150.28125 L970,153.398438 C970,153.700477 969.755164,153.945312 969.453125,153.945312 C969.151086,153.945312 968.90625,153.700477 968.90625,153.398438 L968.90625,150.28125 C968.90625,149.678156 968.415594,149.1875 967.8125,149.1875 L967.101562,149.1875 L967.101562,149.734375 C967.101562,150.036414 966.856727,150.28125 966.554688,150.28125 C966.252648,150.28125 966.007812,150.036414 966.007812,149.734375 L966.007812,149.1875 L963.519531,149.1875 L963.519531,149.734375 C963.519531,150.036414 963.274695,150.28125 962.972656,150.28125 C962.670617,150.28125 962.425781,150.036414 962.425781,149.734375 L962.425781,149.1875 L959.964844,149.1875 L959.964844,149.734375 C959.964844,150.036414 959.720008,150.28125 959.417969,150.28125 C959.11593,150.28125 958.871094,150.036414 958.871094,149.734375 L958.871094,149.1875 L958.1875,149.1875 C957.584406,149.1875 957.09375,149.678156 957.09375,150.28125 L957.09375,158.8125 C957.09375,159.415594 957.584406,159.90625 958.1875,159.90625 L962.371094,159.90625 C962.673133,159.90625 962.917969,160.151086 962.917969,160.453125 C962.917969,160.755164 962.673133,161 962.371094,161 L958.1875,161 C956.981312,161 956,160.018687 956,158.8125 L956,150.28125 C956,149.075063 956.981312,148.09375 958.1875,148.09375 L958.871094,148.09375 L958.871094,147.546875 C958.871094,147.244836 959.11593,147 959.417969,147 C959.720008,147 959.964844,147.244836 959.964844,147.546875 L959.964844,148.09375 L962.425781,148.09375 L962.425781,147.546875 C962.425781,147.244836 962.670617,147 962.972656,147 C963.274695,147 963.519531,147.244836 963.519531,147.546875 L963.519531,148.09375 L966.007812,148.09375 L966.007812,147.546875 C966.007812,147.244836 966.252648,147 966.554688,147 C966.856727,147 967.101562,147.244836 967.101562,147.546875 L967.101562,148.09375 L967.8125,148.09375 Z M966.691406,154.382812 C968.515781,154.382812 970,155.867031 970,157.691406 C970,159.515781 968.515781,161 966.691406,161 C964.867031,161 963.382812,159.515781 963.382812,157.691406 C963.382812,155.867031 964.867031,154.382812 966.691406,154.382812 Z M966.691406,159.90625 C967.91266,159.90625 968.90625,158.912688 968.90625,157.691406 C968.90625,156.470125 967.91266,155.476562 966.691406,155.476562 C965.470152,155.476562 964.476562,156.470125 964.476562,157.691406 C964.476562,158.912688 965.470152,159.90625 966.691406,159.90625 Z M967.484375,157.144531 C967.786414,157.144531 968.03125,157.389367 968.03125,157.691406 C968.03125,157.993445 967.786414,158.238281 967.484375,158.238281 L966.691406,158.238281 C966.389367,158.238281 966.144531,157.993445 966.144531,157.691406 L966.144531,156.570312 C966.144531,156.268273 966.389367,156.023438 966.691406,156.023438 C966.993445,156.023438 967.238281,156.268273 967.238281,156.570312 L967.238281,157.144531 L967.484375,157.144531 Z M964.175781,153.289062 C963.873751,153.289062 963.628906,153.044218 963.628906,152.742188 C963.628906,152.440157 963.873751,152.195312 964.175781,152.195312 C964.477812,152.195312 964.722656,152.440157 964.722656,152.742188 C964.722656,153.044218 964.477812,153.289062 964.175781,153.289062 Z M961.796875,155.667969 C961.494844,155.667969 961.25,155.423124 961.25,155.121094 C961.25,154.819063 961.494844,154.574219 961.796875,154.574219 C962.098906,154.574219 962.34375,154.819063 962.34375,155.121094 C962.34375,155.423124 962.098906,155.667969 961.796875,155.667969 Z M959.417969,153.289062 C959.115938,153.289062 958.871094,153.044218 958.871094,152.742188 C958.871094,152.440157 959.115938,152.195312 959.417969,152.195312 C959.719999,152.195312 959.964844,152.440157 959.964844,152.742188 C959.964844,153.044218 959.719999,153.289062 959.417969,153.289062 Z M959.417969,155.667969 C959.115938,155.667969 958.871094,155.423124 958.871094,155.121094 C958.871094,154.819063 959.115938,154.574219 959.417969,154.574219 C959.719999,154.574219 959.964844,154.819063 959.964844,155.121094 C959.964844,155.423124 959.719999,155.667969 959.417969,155.667969 Z M959.417969,158.046875 C959.115938,158.046875 958.871094,157.802031 958.871094,157.5 C958.871094,157.197969 959.115938,156.953125 959.417969,156.953125 C959.719999,156.953125 959.964844,157.197969 959.964844,157.5 C959.964844,157.802031 959.719999,158.046875 959.417969,158.046875 Z M961.796875,158.046875 C961.494844,158.046875 961.25,157.802031 961.25,157.5 C961.25,157.197969 961.494844,156.953125 961.796875,156.953125 C962.098906,156.953125 962.34375,157.197969 962.34375,157.5 C962.34375,157.802031 962.098906,158.046875 961.796875,158.046875 Z M961.796875,153.289062 C961.494844,153.289062 961.25,153.044218 961.25,152.742188 C961.25,152.440157 961.494844,152.195312 961.796875,152.195312 C962.098906,152.195312 962.34375,152.440157 962.34375,152.742188 C962.34375,153.044218 962.098906,153.289062 961.796875,153.289062 Z" id="Combined-Shape-Copy"></path>
        </g>
    </g>
</svg>