<?xml version="1.0" encoding="UTF-8"?>
<svg width="14px" height="12px" viewBox="0 0 14 12" version="1.1" xmlns="http://www.w3.org/2000/svg" xmlns:xlink="http://www.w3.org/1999/xlink">
    <!-- Generator: Sketch 52.5 (67469) - http://www.bohemiancoding.com/sketch -->
    <title>Combined Shape</title>
    <desc>Created with Sketch.</desc>
    <g id="Page-1" stroke="none" stroke-width="1" fill="none" fill-rule="evenodd">
        <g id="05.-Thông-tin-tài-khoản" transform="translate(-1217.000000, -315.000000)" fill="#3466E6">
            <g id="Group-2" transform="translate(1209.000000, 306.000000)">
                <path d="M21.4533215,11.3870676 C21.8177738,11.7476346 22.0001021,12.1826894 22,12.692333 L22,19.1538209 C22,19.6634897 21.8176716,20.098595 21.4531427,20.459061 C21.0884861,20.8196786 20.6486915,21 20.1333759,21 L9.86667517,21 C9.35133399,21 8.91146279,20.8196786 8.5468317,20.459061 C8.18227723,20.098595 8,19.6634897 8,19.1538209 L8,12.692333 C8,12.1826894 8.18227723,11.7476346 8.5468317,11.3870676 C8.91146279,11.0265258 9.35130845,10.8462044 9.86667517,10.8462044 L11.5000191,10.8462044 L11.871878,9.86551249 C11.9642553,9.62997569 12.1331241,9.42682046 12.3786378,9.25607207 C12.6241515,9.08539945 12.8757436,9 13.1333887,9 L16.8668156,9 C17.1244862,9 17.3760273,9.08539945 17.6215409,9.25607207 C17.8671568,9.42682046 18.0360001,9.62997569 18.1284029,9.86551249 L18.5002107,10.8462044 L20.1335546,10.8462044 C20.6488703,10.8462044 21.0886904,11.0265258 21.4533215,11.3870676 Z M17.3078617,18.2055864 C17.9471473,17.5733879 18.2667518,16.8125472 18.2667518,15.9232664 C18.2667518,15.0337077 17.9471217,14.272968 17.3078617,13.6407948 C16.6686271,13.0086216 15.8993952,12.6924845 15.0000383,12.6924845 C14.1006813,12.6924845 13.3314239,13.0085458 12.6922149,13.6407948 C12.0530315,14.2730438 11.7333503,15.0337077 11.7333503,15.9232664 C11.7333503,16.8125472 12.0529293,17.5734637 12.6922149,18.2055864 C13.3315005,18.8378101 14.1006558,19.1539977 15.0000383,19.1539977 C15.8994208,19.1539977 16.6686271,18.8378101 17.3078617,18.2055864 Z M15.0000383,13.846198 C15.5784627,13.846198 16.0731677,14.0493533 16.4839236,14.4556385 C16.894705,14.8619237 17.1001213,15.3510319 17.1001213,15.9232664 C17.1001213,16.495324 16.894705,16.9844828 16.4839236,17.3907427 C16.0731422,17.7969269 15.5784627,18.0000568 15.0000383,18.0000568 C14.4215118,18.0000568 13.9269089,17.7969269 13.5161274,17.3907427 C13.105346,16.9844828 12.8999553,16.4952987 12.8999553,15.9232664 C12.8999553,15.3510067 13.105346,14.8618984 13.5161274,14.4556385 C13.9269089,14.049328 14.4215373,13.846198 15.0000383,13.846198 Z" id="Combined-Shape"></path>
            </g>
        </g>
    </g>
</svg>