<?xml version="1.0" encoding="UTF-8"?>
<svg width="12px" height="9px" viewBox="0 0 12 9" version="1.1" xmlns="http://www.w3.org/2000/svg" xmlns:xlink="http://www.w3.org/1999/xlink">
    <!-- Generator: Sketch 52.5 (67469) - http://www.bohemiancoding.com/sketch -->
    <title>Path</title>
    <desc>Created with Sketch.</desc>
    <g id="Page-1" stroke="none" stroke-width="1" fill="none" fill-rule="evenodd">
        <g id="05.-Thông-tin-tài-khoản" transform="translate(-326.000000, -404.000000)" fill="#FFFFFF">
            <path d="M326.138462,408.95 C326.046154,408.86 326,408.725 326,408.635 C326,408.545 326.046154,408.41 326.138462,408.32 L326.784615,407.69 C326.969231,407.51 327.246154,407.51 327.430769,407.69 L327.476923,407.735 L330.015385,410.39 C330.107692,410.48 330.246154,410.48 330.338462,410.39 L336.523077,404.135 L336.569231,404.135 C336.753846,403.955 337.030769,403.955 337.215385,404.135 L337.861538,404.765 C338.046154,404.945 338.046154,405.215 337.861538,405.395 L330.476923,412.865 C330.384615,412.955 330.292308,413 330.153846,413 C330.015385,413 329.923077,412.955 329.830769,412.865 L326.230769,409.085 L326.138462,408.95 Z" id="Path"></path>
        </g>
    </g>
</svg>