<?xml version="1.0" encoding="UTF-8"?>
<svg width="150px" height="150px" viewBox="0 0 150 150" version="1.1" xmlns="http://www.w3.org/2000/svg" xmlns:xlink="http://www.w3.org/1999/xlink">
    <!-- Generator: Sketch 52.5 (67469) - http://www.bohemiancoding.com/sketch -->
    <title>review</title>
    <desc>Created with Sketch.</desc>
    <defs>
        <linearGradient x1="47.4358012%" y1="50.001154%" x2="134.365264%" y2="50.001154%" id="linearGradient-1">
            <stop stop-color="#FFF465" offset="0%"></stop>
            <stop stop-color="#FFE600" offset="100%"></stop>
        </linearGradient>
        <linearGradient x1="79.1359177%" y1="59.5850506%" x2="-1.38072464%" y2="1.22307375%" id="linearGradient-2">
            <stop stop-color="#FFE600" stop-opacity="0" offset="0%"></stop>
            <stop stop-color="#F59500" offset="100%"></stop>
        </linearGradient>
        <linearGradient x1="20.4029449%" y1="3.91310588%" x2="99.0450844%" y2="115.835277%" id="linearGradient-3">
            <stop stop-color="#FFB92D" offset="0%"></stop>
            <stop stop-color="#F59500" offset="100%"></stop>
        </linearGradient>
        <linearGradient x1="117.328401%" y1="10.0400192%" x2="-2.69663793%" y2="78.8650253%" id="linearGradient-4">
            <stop stop-color="#FFE600" stop-opacity="0" offset="0%"></stop>
            <stop stop-color="#F59500" offset="100%"></stop>
        </linearGradient>
    </defs>
    <g id="Page-1" stroke="none" stroke-width="1" fill="none" fill-rule="evenodd">
        <g id="03.-Thông-báo-đơn-hàng-mới" transform="translate(-675.000000, -289.000000)">
            <g id="review" transform="translate(675.000000, 289.000000)">
                <path d="M141.693544,149.785091 L7.80209974,149.785091 C3.49310448,149.785091 0,146.28646 0,141.969788 L0,7.85214824 C0,3.53586101 3.49310448,0.0368452585 7.80209974,0.0368452585 L141.69316,0.0368452585 C146.002155,0.0368452585 149.495259,3.53586101 149.495259,7.85214824 L149.495259,141.969788 C149.495644,146.28646 146.002155,149.785091 141.693544,149.785091 Z" id="Path" fill="url(#linearGradient-1)"></path>
                <path d="M52.2427706,55.7592006 L130.442557,134.091321 L131.920157,135.402345 C133.633835,136.922886 136.211466,136.923656 137.925528,135.403501 L137.928989,135.400419 C139.643052,133.880264 142.220682,133.880649 143.93436,135.401575 C145.506161,136.796559 147.802728,136.908251 149.495644,135.744736 L149.495644,50.8393958 L98.7789197,0.0364601164 L50.7167242,0.0364601164 L50.7167242,52.3630178 C50.7167242,53.6617169 51.2723143,54.8980229 52.2427706,55.7592006 Z" id="Path" fill="url(#linearGradient-2)"></path>
                <path d="M98.7789197,0.0364601164 L98.7789197,52.3622475 C98.7789197,53.6613317 98.2229452,54.8980229 97.2521043,55.7588155 L95.7714279,57.0717648 C94.0577497,58.5915354 91.4808882,58.5915354 89.76721,57.0717648 L89.7629806,57.0679134 C88.0489179,55.5477576 85.4712875,55.5481428 83.7576092,57.0690688 L83.7564558,57.0698391 C82.0427775,58.59038 79.4651471,58.5911503 77.7510844,57.0709945 L77.747624,57.0679134 C76.0335613,55.5477576 73.4559308,55.5481428 71.7422526,57.0690688 C70.0281899,58.5899949 67.4497905,58.5899949 65.7357278,57.0690688 C64.0220495,55.5485279 61.4444191,55.5477576 59.7303564,57.0679134 L59.726896,57.0709945 C58.0128333,58.5911503 55.4352028,58.5907651 53.7215246,57.0698391 L52.2439241,55.7588155 C51.2734678,54.8976378 50.7178777,53.6617169 50.7178777,52.3630178 L50.7178777,0.0364601164 L98.7789197,0.0364601164 Z" id="Path" fill="url(#linearGradient-3)"></path>
                <path d="M0,99.9777473 L0,141.969788 C0,146.286075 3.49310448,149.785091 7.80209974,149.785091 L141.69316,149.785091 C146.002155,149.785091 149.495259,146.286075 149.495259,141.969788 L149.495259,99.9777473 L0,99.9777473 Z" id="Path" fill="url(#linearGradient-4)"></path>
                <g id="Group" transform="translate(11.919234, 109.634372)" fill="#C57C00">
                    <rect id="Rectangle" x="0.180326472" y="20.50766" width="32.9797509" height="9.52456351" rx="4.76228175"></rect>
                    <rect id="Rectangle" x="0.180326472" y="0.305032523" width="52.3262053" height="9.52456351" rx="4.76228175"></rect>
                </g>
            </g>
        </g>
    </g>
</svg>