<?xml version="1.0" encoding="UTF-8"?>
<svg width="133px" height="150px" viewBox="0 0 133 150" version="1.1" xmlns="http://www.w3.org/2000/svg" xmlns:xlink="http://www.w3.org/1999/xlink">
    <!-- Generator: Sketch 52.5 (67469) - http://www.bohemiancoding.com/sketch -->
    <title>return</title>
    <desc>Created with Sketch.</desc>
    <defs>
        <linearGradient x1="49.9988889%" y1="33.7419381%" x2="49.9988889%" y2="83.3260843%" id="linearGradient-1">
            <stop stop-color="#FFF465" offset="0%"></stop>
            <stop stop-color="#FFE600" offset="100%"></stop>
        </linearGradient>
        <linearGradient x1="42.8598827%" y1="49.3584008%" x2="129.791763%" y2="56.2612915%" id="linearGradient-2">
            <stop stop-color="#FFF465" offset="0%"></stop>
            <stop stop-color="#FFE600" offset="100%"></stop>
        </linearGradient>
        <linearGradient x1="77.014029%" y1="59.7012741%" x2="4.48401947%" y2="-3.67887229%" id="linearGradient-3">
            <stop stop-color="#FFE600" stop-opacity="0" offset="0%"></stop>
            <stop stop-color="#F59500" offset="100%"></stop>
        </linearGradient>
        <linearGradient x1="28.8931015%" y1="-6.67833045%" x2="85.586486%" y2="127.810721%" id="linearGradient-4">
            <stop stop-color="#FFB92D" offset="0%"></stop>
            <stop stop-color="#F59500" offset="100%"></stop>
        </linearGradient>
        <linearGradient x1="86.9845111%" y1="21.8085928%" x2="-8.9142816%" y2="90.6288828%" id="linearGradient-5">
            <stop stop-color="#FFE600" stop-opacity="0" offset="0%"></stop>
            <stop stop-color="#F59500" offset="100%"></stop>
        </linearGradient>
        <linearGradient x1="49.9962628%" y1="33.7389681%" x2="49.9962628%" y2="83.3258704%" id="linearGradient-6">
            <stop stop-color="#FFB92D" offset="0%"></stop>
            <stop stop-color="#F59500" offset="100%"></stop>
        </linearGradient>
        <linearGradient x1="86.6705141%" y1="79.7090606%" x2="8.41892708%" y2="-17.871886%" id="linearGradient-7">
            <stop stop-color="#FFE600" stop-opacity="0" offset="0%"></stop>
            <stop stop-color="#F59500" offset="100%"></stop>
        </linearGradient>
        <linearGradient x1="56.4383702%" y1="41.2396597%" x2="103.342911%" y2="111.19859%" id="linearGradient-8">
            <stop stop-color="#FF4C54" offset="0%"></stop>
            <stop stop-color="#BE3F45" offset="100%"></stop>
        </linearGradient>
    </defs>
    <g id="Page-1" stroke="none" stroke-width="1" fill="none" fill-rule="evenodd">
        <g id="04.-Thông-báo-đơn-hàng-mới-từ-logistic-khác" transform="translate(-684.000000, -289.000000)">
            <g id="return" transform="translate(684.000000, 289.000000)">
                <path d="M18.9249626,1.48505859 L1.28957269,18.4886719 L65.4146145,18.4886719 L67.5850925,18.4886719 L131.710134,18.4886719 L113.888427,1.46777344 C112.902059,0.525585938 111.590515,0 110.226826,0 L22.6044339,0 C21.231663,0 19.9127952,0.532324219 18.9249626,1.48505859 Z" id="Path" fill="url(#linearGradient-1)"></path>
                <path d="M125.968284,150 L7.03171586,150 C3.20401101,150 0.101068282,146.896875 0.101068282,143.068945 L0.101068282,21.4807617 C0.101068282,19.1129883 2.02048678,17.194043 4.38753524,17.194043 L128.612465,17.194043 C130.980099,17.194043 132.898932,19.1135742 132.898932,21.4807617 L132.898932,143.068652 C132.898932,146.896875 129.795989,150 125.968284,150 Z" id="Path" fill="url(#linearGradient-2)"></path>
                <path d="M46.5084009,45.9694336 L115.973949,115.439062 L117.286665,116.602148 C118.808841,117.950977 121.098551,117.95127 122.621313,116.603027 L122.624242,116.600391 C124.147004,115.252148 126.436714,115.252441 127.95889,116.60127 C129.35539,117.838184 131.395211,117.937793 132.898932,116.905957 L132.898932,62.2488281 L87.846793,17.194043 L45.153207,17.194043 L45.153207,42.9577148 C45.153207,44.109375 45.6465374,45.2056641 46.5084009,45.9694336 Z" id="Path" fill="url(#linearGradient-3)"></path>
                <path d="M87.846793,17.194043 L87.846793,42.9571289 C87.846793,44.109082 87.3528767,45.205957 86.4904273,45.9694336 L85.1750749,47.1339844 C83.6526057,48.4819336 81.3637753,48.4819336 79.8413062,47.1339844 L79.8374978,47.1304688 C78.3147357,45.7822266 76.0250264,45.7825195 74.5028502,47.1313477 L74.5019714,47.1322266 C72.9797952,48.4810547 70.6900859,48.4813477 69.1673238,47.1331055 L69.1643943,47.1304688 C67.6416322,45.7822266 65.3519229,45.7825195 63.8297467,47.1313477 C62.3069846,48.4804688 60.0166894,48.4804688 58.4939273,47.1313477 C56.9717511,45.7825195 54.6820419,45.7822266 53.1592797,47.1304688 L53.1563502,47.1331055 C51.6335881,48.4813477 49.3438789,48.4810547 47.8217026,47.1322266 L46.5092797,45.9694336 C45.6471233,45.205957 45.1540859,44.109375 45.1540859,42.9580078 L45.1540859,17.194043 L87.846793,17.194043 Z" id="Path" fill="url(#linearGradient-4)"></path>
                <path d="M0.101068282,105.82793 L0.101068282,143.068945 C0.101068282,146.896875 3.20401101,150 7.03171586,150 L125.968284,150 C129.795989,150 132.898932,146.896875 132.898932,143.068945 L132.898932,105.82793 L0.101068282,105.82793 Z" id="Path" fill="url(#linearGradient-5)"></path>
                <rect id="Rectangle" fill="#C57C00" x="10.8491674" y="130.80293" width="29.2954471" height="8.44716797" rx="4.22358398"></rect>
                <polygon id="Path" fill="url(#linearGradient-6)" points="79.346511 0 53.653196 0 45.153207 17.194043 87.846793 17.194043"></polygon>
                <rect id="SVGCleanerId_0_1_" fill="#C57C00" x="10.8491674" y="112.891113" width="46.4826211" height="8.44716797" rx="4.22358398"></rect>
                <path d="M132.898932,143.068945 L132.898932,103.964355 L108.147749,79.2117187 C105.978736,76.5518555 102.676879,74.8523437 98.9774868,74.8523437 L52.0284868,74.8523437 L44.627359,67.66875 C43.4956872,65.4339844 40.3256586,64.6608398 38.3127885,66.6741211 L28.7013414,76.2861328 C27.1607093,77.8268555 27.1607093,80.3244141 28.7013414,81.8648438 L64.3242489,117.489844 L64.3242489,121.336523 L92.985163,150 L125.968284,150 C129.795989,150 132.898932,146.896875 132.898932,143.068945 Z" id="Path" fill="url(#linearGradient-7)"></path>
                <path d="M98.9774868,74.8523438 L45.0465727,74.8523438 L45.0465727,69.4634766 C45.0465727,65.9490234 40.7976035,64.1891602 38.3127885,66.6741211 L28.7013414,76.2861328 C27.1607093,77.8268555 27.1607093,80.3244141 28.7013414,81.8648437 L38.3127885,91.4768555 C40.7976035,93.9618164 45.0465727,92.2019531 45.0465727,88.6875 L45.0465727,83.2986328 L95.8982731,83.2986328 C99.4670088,83.2986328 102.359612,86.1916992 102.359612,89.7603516 L102.359612,106.427637 C102.359612,109.996582 99.4667159,112.889355 95.8982731,112.889355 L64.3239559,112.889355 L64.3239559,121.336523 L98.9777797,121.336523 C105.510306,121.336523 110.805991,116.040527 110.805991,109.507617 L110.805991,86.680957 C110.805991,80.1483398 105.510013,74.8523438 98.9774868,74.8523438 Z" id="Path" fill="url(#linearGradient-8)"></path>
            </g>
        </g>
    </g>
</svg>