<?xml version="1.0" encoding="UTF-8"?>
<svg width="16px" height="18px" viewBox="0 0 16 18" version="1.1" xmlns="http://www.w3.org/2000/svg" xmlns:xlink="http://www.w3.org/1999/xlink">
    <!-- Generator: Sketch 52.5 (67469) - http://www.bohemiancoding.com/sketch -->
    <title>Shape</title>
    <desc>Created with Sketch.</desc>
    <g id="Page-1" stroke="none" stroke-width="1" fill="none" fill-rule="evenodd">
        <g id="05.-Thông-tin-tài-khoản" transform="translate(-1348.000000, -21.000000)" fill="#717286" fill-rule="nonzero">
            <path d="M1356,39 C1357.03529,39 1357.88235,38.19 1357.88235,37.2 L1354.11765,37.2 C1354.11765,38.19 1354.96471,39 1356,39 Z M1362.11765,33.6 L1362.11765,28.65 C1362.11765,25.86 1360.14118,23.61 1357.41176,22.98 L1357.41176,22.35 C1357.41176,21.63 1356.75294,21 1356,21 C1355.24706,21 1354.58824,21.63 1354.58824,22.35 L1354.58824,22.98 C1351.85882,23.61 1349.88235,25.86 1349.88235,28.65 L1349.88235,33.6 L1348,35.4 L1348,36.3 L1364,36.3 L1364,35.4 L1362.11765,33.6 Z M1360.23529,34.5 L1351.76471,34.5 L1351.76471,28.65 C1351.76471,26.4 1353.64706,24.6 1356,24.6 C1358.35294,24.6 1360.23529,26.4 1360.23529,28.65 L1360.23529,34.5 Z" id="Shape"></path>
        </g>
    </g>
</svg>