<?xml version="1.0" encoding="UTF-8"?>
<svg width="16px" height="16px" viewBox="0 0 16 16" version="1.1" xmlns="http://www.w3.org/2000/svg" xmlns:xlink="http://www.w3.org/1999/xlink">
    <!-- Generator: Sketch 52.5 (67469) - http://www.bohemiancoding.com/sketch -->
    <title>Shape</title>
    <desc>Created with Sketch.</desc>
    <g id="Page-1" stroke="none" stroke-width="1" fill="none" fill-rule="evenodd">
        <g id="05.-Thông-tin-tài-khoản" transform="translate(-21.000000, -328.000000)" fill="#5F606D" fill-rule="nonzero">
            <path d="M36.8154655,335.943606 C36.6936351,336.064699 36.5342056,336.125246 36.3750204,336.125246 C36.2143702,336.125246 36.0538421,336.063723 35.9316455,335.940798 L35.4374875,335.443362 L35.4374875,337.875246 C35.4374875,338.220338 35.1576926,338.500124 34.8124656,338.500124 L33.937557,338.500124 C33.5923301,338.500124 33.3125351,338.220338 33.3125351,337.875246 C33.3125351,337.530031 33.5923301,337.250246 33.937557,337.250246 L34.1875658,337.250246 L34.1875658,334.185183 L29.4341033,329.400639 C29.2008187,329.20081 28.8574229,329.200077 28.6232838,329.39893 L23.8115917,334.201052 C23.8117138,334.207034 23.8124463,334.213015 23.8124463,334.219119 L23.8124463,337.250246 L24.0937061,337.250246 C24.4389331,337.250246 24.718728,337.530031 24.718728,337.875246 C24.718728,338.220338 24.4389331,338.500124 24.0937061,338.500124 L23.1875464,338.500124 C22.8423195,338.500124 22.5625245,338.220338 22.5625245,337.875246 L22.5625245,335.447634 L22.0665355,335.942629 C21.8221421,336.186403 21.4264984,336.186159 21.1825933,335.941775 C20.9388104,335.697512 20.9391766,335.30176 21.1834479,335.057864 L27.7550893,328.499516 C27.7635125,328.491093 27.7720577,328.483036 27.7809692,328.475102 C28.4947393,327.839604 29.5693619,327.841923 30.2804464,328.480351 C30.2892358,328.488285 30.2979031,328.496464 30.3062041,328.504887 L36.8183953,335.059817 C37.0616899,335.30469 37.0603471,335.70032 36.8154655,335.943606 Z M34.8124656,339.750123 C34.4673607,339.750123 34.1875658,340.029908 34.1875658,340.375123 L34.1875658,342.75 L33.937557,342.75 C33.5923301,342.75 33.3125351,343.029785 33.3125351,343.375 C33.3125351,343.720215 33.5923301,344 33.937557,344 L34.8124656,344 C35.1576926,344 35.4374875,343.720215 35.4374875,343.375 L35.4374875,340.375123 C35.4374875,340.029908 35.1576926,339.750123 34.8124656,339.750123 Z M24.0937061,342.75 L23.8124463,342.75 L23.8124463,340.375123 C23.8124463,340.029908 23.5326513,339.750123 23.1875464,339.750123 C22.8423195,339.750123 22.5625245,340.029908 22.5625245,340.375123 L22.5625245,343.375 C22.5625245,343.720215 22.8423195,344 23.1875464,344 L24.0937061,344 C24.4389331,344 24.718728,343.720215 24.718728,343.375 C24.718728,343.029785 24.4389331,342.75 24.0937061,342.75 Z M29.000006,342.75 C28.6547791,342.75 28.3749841,343.029785 28.3749841,343.375 C28.3749841,343.720215 28.6547791,344 29.000006,344 C29.3452329,344 29.6250279,343.720215 29.6250279,343.375 C29.6250279,343.029785 29.3452329,342.75 29.000006,342.75 Z M31.4374694,342.75 C31.0923645,342.75 30.8124475,343.029785 30.8124475,343.375 C30.8124475,343.720215 31.0923645,344 31.4374694,344 C31.7826963,344 32.0624913,343.720215 32.0624913,343.375 C32.0624913,343.029785 31.7826963,342.75 31.4374694,342.75 Z M26.5625427,342.75 C26.2173157,342.75 25.9375208,343.029785 25.9375208,343.375 C25.9375208,343.720215 26.2173157,344 26.5625427,344 C26.9076475,344 27.1874425,343.720215 27.1874425,343.375 C27.1874425,343.029785 26.9076475,342.75 26.5625427,342.75 Z M29.000006,337.250246 C28.6547791,337.250246 28.3749841,337.530031 28.3749841,337.875246 C28.3749841,338.220338 28.6547791,338.500124 29.000006,338.500124 C29.3452329,338.500124 29.6250279,338.220338 29.6250279,337.875246 C29.6250279,337.530031 29.3452329,337.250246 29.000006,337.250246 Z M31.4374694,337.250246 C31.0923645,337.250246 30.8124475,337.530031 30.8124475,337.875246 C30.8124475,338.220338 31.0923645,338.500124 31.4374694,338.500124 C31.7826963,338.500124 32.0624913,338.220338 32.0624913,337.875246 C32.0624913,337.530031 31.7826963,337.250246 31.4374694,337.250246 Z M26.5625427,337.250246 C26.2173157,337.250246 25.9375208,337.530031 25.9375208,337.875246 C25.9375208,338.220338 26.2173157,338.500124 26.5625427,338.500124 C26.9076475,338.500124 27.1874425,338.220338 27.1874425,337.875246 C27.1874425,337.530031 26.9076475,337.250246 26.5625427,337.250246 Z" id="Shape"></path>
        </g>
    </g>
</svg>