<?xml version="1.0" encoding="UTF-8"?>
<svg width="14px" height="16px" viewBox="0 0 14 16" version="1.1" xmlns="http://www.w3.org/2000/svg" xmlns:xlink="http://www.w3.org/1999/xlink">
    <!-- Generator: Sketch 52.5 (67469) - http://www.bohemiancoding.com/sketch -->
    <title>Combined Shape</title>
    <desc>Created with Sketch.</desc>
    <g id="Page-1" stroke="none" stroke-width="1" fill="none" fill-rule="evenodd">
        <g id="05.-Thông-tin-tài-khoản" transform="translate(-22.000000, -185.000000)" fill="#5F606D" fill-rule="nonzero">
            <path d="M33.0994475,197.233685 C33.4198679,197.233685 33.679558,197.460611 33.679558,197.740606 C33.679558,198.0206 33.4198679,198.247526 33.0994475,198.247526 L24.9005525,198.247526 C24.5801321,198.247526 24.320442,198.0206 24.320442,197.740606 C24.320442,197.460611 24.5801321,197.233685 24.9005525,197.233685 L33.0994475,197.233685 Z M33.0994475,195.206003 C33.4198679,195.206003 33.679558,195.432929 33.679558,195.712923 C33.679558,195.992918 33.4198679,196.219844 33.0994475,196.219844 L24.9005525,196.219844 C24.5801321,196.219844 24.320442,195.992918 24.320442,195.712923 C24.320442,195.432929 24.5801321,195.206003 24.9005525,195.206003 L33.0994475,195.206003 Z M24.320442,193.685241 C24.320442,193.405246 24.5801321,193.17832 24.9005525,193.17832 L33.0994475,193.17832 C33.4198679,193.17832 33.679558,193.405246 33.679558,193.685241 C33.679558,193.965235 33.4198679,194.192161 33.0994475,194.192161 L24.9005525,194.192161 C24.5801321,194.192161 24.320442,193.965235 24.320442,193.685241 Z M24.9005525,192.164479 C24.5801321,192.164479 24.320442,191.937552 24.320442,191.657558 C24.320442,191.377563 24.5801321,191.150637 24.9005525,191.150637 L28.3812155,191.150637 C28.7016359,191.150637 28.961326,191.377563 28.961326,191.657558 C28.961326,191.937552 28.7016359,192.164479 28.3812155,192.164479 L24.9005525,192.164479 Z M35.4198895,186.622146 C35.7403099,186.622146 36,186.849072 36,187.129067 L36,200.493079 C36,200.773074 35.7403099,201 35.4198895,201 L22.5801105,201 C22.2596901,201 22,200.773074 22,200.493079 L22,187.129067 C22,186.849072 22.2596901,186.622146 22.5801105,186.622146 L23.8256863,186.622146 C24.0412638,185.697676 24.978807,185 26.0994475,185 C27.220088,185 28.1576312,185.697676 28.3732087,186.622146 L29.6267913,186.622146 C29.8423688,185.697676 30.779912,185 31.9005525,185 C33.021193,185 33.9587362,185.697676 34.1743137,186.622146 L35.4198895,186.622146 Z M31.9005525,186.013841 C31.4257381,186.013841 31.0169415,186.264397 30.8374698,186.622146 L32.9636352,186.622146 C32.7841635,186.264397 32.3753669,186.013841 31.9005525,186.013841 Z M26.0994475,186.013841 C25.6246331,186.013841 25.2158365,186.264397 25.0363648,186.622146 L27.1625302,186.622146 C26.9830585,186.264397 26.5742619,186.013841 26.0994475,186.013841 Z M34.839779,199.986159 L34.839779,187.635987 L30.97298,187.635987 C31.1849318,187.882055 31.5218189,188.041524 31.9005525,188.041524 C32.2209729,188.041524 32.480663,188.26845 32.480663,188.548445 C32.480663,188.828439 32.2209729,189.055365 31.9005525,189.055365 C30.8634539,189.055365 29.9833175,188.457753 29.6869173,187.635987 L25.171875,187.635987 C25.3838268,187.882055 25.7207139,188.041524 26.0994475,188.041524 C26.4198679,188.041524 26.679558,188.26845 26.679558,188.548445 C26.679558,188.828439 26.4198679,189.055365 26.0994475,189.055365 C25.0623489,189.055365 24.1822125,188.457753 23.8858123,187.635987 L23.160221,187.635987 L23.160221,199.986159 L34.839779,199.986159 Z" id="Combined-Shape"></path>
        </g>
    </g>
</svg>