<?xml version="1.0" encoding="UTF-8"?>
<svg width="14px" height="16px" viewBox="0 0 14 16" version="1.1" xmlns="http://www.w3.org/2000/svg" xmlns:xlink="http://www.w3.org/1999/xlink">
    <!-- Generator: Sketch 52.5 (67469) - http://www.bohemiancoding.com/sketch -->
    <title>Combined Shape</title>
    <desc>Created with Sketch.</desc>
    <g id="Page-1" stroke="none" stroke-width="1" fill="none" fill-rule="evenodd">
        <g id="05.-Thông-tin-tài-khoản" transform="translate(-22.000000, -139.000000)" fill="#5F606D" fill-rule="nonzero">
            <path d="M31.9429941,145.875 C31.9429941,146.220188 31.6698042,146.5 31.3327867,146.5 L25.0476504,146.5 C24.7106328,146.5 24.437443,146.220188 24.437443,145.875 C24.437443,145.529812 24.7106328,145.25 25.0476504,145.25 L31.3327867,145.25 C31.6698042,145.25 31.9429941,145.529812 31.9429941,145.875 Z M25.0476504,147.75 L28.8648333,147.75 C29.2018509,147.75 29.4750407,148.029812 29.4750407,148.375 C29.4750407,148.720188 29.2018509,149 28.8648333,149 L25.0476504,149 C24.7106328,149 24.437443,148.720188 24.437443,148.375 C24.437443,148.029812 24.7106328,147.75 25.0476504,147.75 Z M26.4816378,153.75 C26.8186553,153.75 27.0918452,154.029812 27.0918452,154.375 C27.0918452,154.720188 26.8186553,155 26.4816378,155 L24.4408296,155 C23.0949562,155 22,153.8785 22,152.5 L22,141.5 C22,140.1215 23.0949562,139 24.4408296,139 L31.9429941,139 C33.2888676,139 34.3838237,140.1215 34.3838237,141.5 L34.3838237,145.34375 C34.3838237,145.688938 34.1106339,145.96875 33.7736163,145.96875 C33.4365988,145.96875 33.1634089,145.688938 33.1634089,145.34375 L33.1634089,141.5 C33.1634089,140.81075 32.6159308,140.25 31.9429941,140.25 L24.4408296,140.25 C23.7678929,140.25 23.2204148,140.81075 23.2204148,141.5 L23.2204148,152.5 C23.2204148,153.18925 23.7678929,153.75 24.4408296,153.75 L26.4816378,153.75 Z M35.4646536,148.049125 C36.1784437,148.78025 36.1784437,149.96975 35.4646841,150.700812 L32.1215713,154.118531 C32.047126,154.194656 31.9547406,154.24975 31.8533851,154.2785 L29.3904355,154.977281 C29.3366457,154.992562 29.2818491,155 29.2275711,155 C29.0653475,155 28.9071817,154.933656 28.7907542,154.811437 C28.6353343,154.648281 28.5789817,154.411437 28.6436637,154.193312 L29.3732582,151.733156 C29.4024871,151.634656 29.4549649,151.545094 29.5261151,151.472375 L32.8762453,148.048625 C33.5895473,147.318031 34.750894,147.318062 35.4646536,148.049125 Z M31.3729688,153.11775 L33.6201186,150.820437 L32.7569803,149.936375 L30.4964974,152.246531 L30.1338817,153.469313 L31.3729688,153.11775 Z M34.6021559,149.816563 C34.8396487,149.57325 34.8396487,149.17675 34.6017288,148.933063 C34.3638089,148.689375 33.9766933,148.689375 33.7387735,148.933063 L33.6209424,149.0535 L34.4839283,149.937406 L34.6021559,149.816563 Z M31.3327867,142.75 C31.6698042,142.75 31.9429941,143.029812 31.9429941,143.375 C31.9429941,143.720188 31.6698042,144 31.3327867,144 L25.0476504,144 C24.7106328,144 24.437443,143.720188 24.437443,143.375 C24.437443,143.029812 24.7106328,142.75 25.0476504,142.75 L31.3327867,142.75 Z" id="Combined-Shape"></path>
        </g>
    </g>
</svg>