<?xml version="1.0" encoding="UTF-8"?>
<svg width="18px" height="18px" viewBox="0 0 18 18" version="1.1" xmlns="http://www.w3.org/2000/svg" xmlns:xlink="http://www.w3.org/1999/xlink">
    <!-- Generator: Sketch 52.5 (67469) - http://www.bohemiancoding.com/sketch -->
    <title>Combined Shape</title>
    <desc>Created with Sketch.</desc>
    <g id="Page-1" stroke="none" stroke-width="1" fill="none" fill-rule="evenodd">
        <g id="05.-Thông-tin-tài-khoản" transform="translate(-20.000000, -375.000000)" fill="#5F606D" fill-rule="nonzero">
            <path d="M26.8849945,388.935745 C27.1757202,388.935745 27.4123383,388.699127 27.4123383,388.408401 C27.4123383,388.117538 27.1757202,387.881058 26.8849945,387.881058 C26.0126801,387.881058 25.3029633,387.171341 25.3029633,386.299026 C25.3029633,385.60936 25.7465362,385.021866 26.3632813,384.80571 L26.3632813,384.035156 C26.3632813,383.743881 26.59935,383.507812 26.890625,383.507812 C27.1819,383.507812 27.4179688,383.743881 27.4179688,384.035156 L27.4179688,384.809555 C28.0288086,385.02887 28.4670258,385.613617 28.4670258,386.299026 C28.4670258,386.590302 28.230957,386.82637 27.939682,386.82637 C27.648407,386.82637 27.4123383,386.590302 27.4123383,386.299026 C27.4123383,386.008163 27.1757202,385.771683 26.8849945,385.771683 C26.5942688,385.771683 26.3576508,386.008163 26.3576508,386.299026 C26.3576508,386.589752 26.5942688,386.82637 26.8849945,386.82637 C27.757309,386.82637 28.4670258,387.536087 28.4670258,388.408401 C28.4670258,389.093811 28.0288086,389.678558 27.4179688,389.897736 L27.4179688,390.363281 C27.4179688,390.654556 27.1819,390.890625 26.890625,390.890625 C26.59935,390.890625 26.3632813,390.654556 26.3632813,390.363281 L26.3632813,389.901581 C25.7465362,389.685425 25.3029633,389.097931 25.3029633,388.408401 C25.3029633,388.117126 25.539032,387.881058 25.830307,387.881058 C26.121582,387.881058 26.3576508,388.117126 26.3576508,388.408401 C26.3576508,388.699127 26.5942688,388.935745 26.8849945,388.935745 Z M22.1494751,392.138809 C20.723175,391.375122 20,390.068161 20,388.253906 C20,385.627625 21.4869995,383.202255 23.602829,381.925232 C23.352066,381.645218 23.1992188,381.275665 23.1992188,380.871094 C23.1992188,380.240891 23.5697326,379.695694 24.1043549,379.441498 L23.2251739,376.74559 C23.1728516,376.584915 23.200592,376.408997 23.2997437,376.272354 C23.3990326,376.135574 23.5576477,376.054688 23.7265625,376.054688 L25.3989563,376.054688 C25.6166229,375.440826 26.2030182,375 26.890625,375 C27.5780945,375 28.1642151,375.440826 28.382019,376.054688 L30.0546875,376.054688 C30.2236023,376.054688 30.3822174,376.135574 30.4815063,376.272354 C30.580658,376.408997 30.6083984,376.584915 30.5560761,376.74559 L29.6768951,379.441498 C30.2115174,379.695694 30.5820312,380.240891 30.5820312,380.871094 C30.5820312,381.275391 30.4293213,381.644669 30.1789703,381.924545 C30.8623199,382.336807 31.4824982,382.874313 32.0117645,383.515366 C32.0618896,383.510422 32.1127014,383.507812 32.1640625,383.507812 L36.4179688,383.507812 C37.2902832,383.507812 38,384.217529 38,385.089844 C38,385.49469 37.8470154,385.86438 37.5958404,386.144531 C37.846878,386.424683 38,386.794373 38,387.199219 C38,387.604065 37.8470154,387.973755 37.5958404,388.253906 C37.846878,388.534058 38,388.903748 38,389.308594 C38,389.71344 37.8470154,390.08313 37.5958404,390.363281 C37.846878,390.643433 38,391.013123 38,391.417969 C38,392.290283 37.2902832,393 36.4179688,393 L32.1640625,393 C31.6795654,393 31.2454681,392.780823 30.9550171,392.436676 C29.9382324,392.819824 28.6294861,393 26.890625,393 C24.7535095,393 23.246872,392.726303 22.1494751,392.138809 Z M36.9453125,387.199219 C36.9453125,386.908493 36.7086944,386.671875 36.4179688,386.671875 L32.1640625,386.671875 C31.8733368,386.671875 31.6367188,386.908493 31.6367188,387.199219 C31.6367188,387.489944 31.8733368,387.726562 32.1640625,387.726562 L36.4179688,387.726562 C36.7086944,387.726562 36.9453125,387.489944 36.9453125,387.199219 Z M36.9453125,389.308594 C36.9453125,389.017868 36.7086944,388.78125 36.4179688,388.78125 L32.1640625,388.78125 C31.8733368,388.78125 31.6367188,389.017868 31.6367188,389.308594 C31.6367188,389.599319 31.8733368,389.835938 32.1640625,389.835938 L36.4179688,389.835938 C36.7086944,389.835938 36.9453125,389.599319 36.9453125,389.308594 Z M36.4179688,391.945312 C36.7086944,391.945312 36.9453125,391.708694 36.9453125,391.417969 C36.9453125,391.127243 36.7086944,390.890625 36.4179688,390.890625 L32.1640625,390.890625 C31.8733368,390.890625 31.6367188,391.127243 31.6367188,391.417969 C31.6367188,391.708694 31.8733368,391.945312 32.1640625,391.945312 L36.4179688,391.945312 Z M36.9453125,385.089844 C36.9453125,384.799118 36.7086944,384.5625 36.4179688,384.5625 L32.1640625,384.5625 C31.8733368,384.5625 31.6367188,384.799118 31.6367188,385.089844 C31.6367188,385.380569 31.8733368,385.617188 32.1640625,385.617188 L36.4179688,385.617188 C36.7086944,385.617188 36.9453125,385.380569 36.9453125,385.089844 Z M28.9848938,381.398438 C28.9894257,381.3983 28.9939575,381.398438 28.9983521,381.398438 L29,381.398438 C29.2907257,381.398438 29.5273438,381.161819 29.5273438,380.871094 C29.5273438,380.580917 29.291687,380.344711 29.0016479,380.343887 L29.0001373,380.343887 C28.9989014,380.343887 28.9975281,380.34375 28.9962921,380.34375 L24.7848205,380.34375 C24.7835846,380.34375 24.7823486,380.343887 24.7811127,380.343887 L24.7796021,380.343887 C24.489563,380.344711 24.2539062,380.580917 24.2539062,380.871094 C24.2539062,381.161819 24.4905243,381.398438 24.78125,381.398438 L24.782486,381.398438 C24.7871552,381.398438 24.7918243,381.3983 24.7964935,381.398438 L28.9848938,381.398438 Z M25.8359375,377.109375 L24.4531708,377.109375 L25.1639862,379.289062 L28.6172638,379.289062 L29.3280792,377.109375 L28.4726562,377.109375 L28.4726562,377.636719 C28.4726562,377.927994 28.2365875,378.164062 27.9453125,378.164062 C27.6540375,378.164062 27.4179688,377.927994 27.4179688,377.636719 L27.4179688,376.582031 C27.4179688,376.291306 27.1813507,376.054688 26.890625,376.054688 C26.5998993,376.054688 26.3632812,376.291306 26.3632812,376.582031 C26.3632812,376.873306 26.1272125,377.109375 25.8359375,377.109375 Z M24.8841095,382.453125 C22.6246338,383.396301 21.0546875,385.766602 21.0546875,388.253906 C21.0546875,389.688309 21.5607452,390.627228 22.6472931,391.208954 C23.5855255,391.711304 24.93396,391.945312 26.890625,391.945312 C28.502594,391.945312 29.6907654,391.787109 30.5828552,391.450241 C30.5825806,391.439529 30.5820312,391.428818 30.5820312,391.417969 C30.5820312,391.013123 30.7351532,390.643433 30.9861908,390.363281 C30.7351532,390.08313 30.5820312,389.71344 30.5820312,389.308594 C30.5820312,388.903748 30.7351532,388.534058 30.9861908,388.253906 C30.7351532,387.973755 30.5820312,387.604065 30.5820312,387.199219 C30.5820312,386.794373 30.7351532,386.424683 30.9861908,386.144531 C30.7351532,385.86438 30.5820312,385.49469 30.5820312,385.089844 C30.5820312,384.66275 30.7524567,384.274933 31.0284882,383.989975 C30.4214935,383.311981 29.6936493,382.786697 28.8950806,382.453125 L24.8841095,382.453125 Z" id="Combined-Shape"></path>
        </g>
    </g>
</svg>