<?xml version="1.0" encoding="UTF-8"?>
<svg width="16px" height="16px" viewBox="0 0 16 16" version="1.1" xmlns="http://www.w3.org/2000/svg" xmlns:xlink="http://www.w3.org/1999/xlink">
    <!-- Generator: Sketch 52.5 (67469) - http://www.bohemiancoding.com/sketch -->
    <title>Combined Shape</title>
    <desc>Created with Sketch.</desc>
    <g id="Page-1" stroke="none" stroke-width="1" fill="none" fill-rule="evenodd">
        <g id="05.-Thông-tin-tài-khoản" transform="translate(-21.000000, -232.000000)" fill="#5F606D" fill-rule="nonzero">
            <path d="M35.75,244.875 C36.0951875,244.875 36.375,245.154812 36.375,245.5 C36.375,246.8785 35.2535,248 33.875,248 L24.125,248 C22.7465,248 21.625,246.8785 21.625,245.5 L21.625,238.5625 C21.625,238.217312 21.9048125,237.9375 22.25,237.9375 C22.5951875,237.9375 22.875,238.217312 22.875,238.5625 L22.875,245.5 C22.875,246.18925 23.43575,246.75 24.125,246.75 L33.875,246.75 C34.56425,246.75 35.125,246.18925 35.125,245.5 C35.125,245.154812 35.4048125,244.875 35.75,244.875 Z M35.125,232 C36.158875,232 37,232.841125 37,233.875 L37,235.75 C37,236.095188 36.7201875,236.375 36.375,236.375 L36.375,242.34375 C36.375,242.688938 36.0951875,242.96875 35.75,242.96875 C35.4048125,242.96875 35.125,242.688938 35.125,242.34375 L35.125,236.375 L21.625,236.375 C21.2798125,236.375 21,236.095188 21,235.75 L21,233.875 C21,232.841125 21.841125,232 22.875,232 L35.125,232 Z M35.75,235.125 L35.75,233.875 C35.75,233.530375 35.469625,233.25 35.125,233.25 L22.875,233.25 C22.530375,233.25 22.25,233.530375 22.25,233.875 L22.25,235.125 L35.75,235.125 Z M30.375,238.875 L27.5625,238.875 C27.2173125,238.875 26.9375,238.595188 26.9375,238.25 C26.9375,237.904812 27.2173125,237.625 27.5625,237.625 L30.375,237.625 C30.7201875,237.625 31,237.904812 31,238.25 C31,238.595188 30.7201875,238.875 30.375,238.875 Z" id="Combined-Shape"></path>
        </g>
    </g>
</svg>