<?xml version="1.0" encoding="UTF-8"?>
<svg width="16px" height="16px" viewBox="0 0 16 16" version="1.1" xmlns="http://www.w3.org/2000/svg" xmlns:xlink="http://www.w3.org/1999/xlink">
    <!-- Generator: Sketch 52.5 (67469) - http://www.bohemiancoding.com/sketch -->
    <title>Combined Shape</title>
    <desc>Created with Sketch.</desc>
    <g id="Page-1" stroke="none" stroke-width="1" fill="none" fill-rule="evenodd">
        <g id="05.-Thông-tin-tài-khoản" transform="translate(-21.000000, -280.000000)" fill="#5F606D" fill-rule="nonzero">
            <path d="M27.1322812,282.222553 C27.4761562,282.222553 27.7548437,282.502361 27.7548437,282.847547 C27.7548437,283.192734 27.476125,283.472542 27.1322812,283.472542 L25.8871562,283.472542 C25.5433125,283.472542 25.2645937,283.192734 25.2645937,282.847547 C25.2645937,282.502361 25.5433125,282.222553 25.8871562,282.222553 L27.1322812,282.222553 Z M26.5097187,293.785039 C26.165887,293.785039 25.8871562,293.505219 25.8871562,293.160045 C25.8871562,292.81487 26.165887,292.53505 26.5097187,292.53505 C26.8535505,292.53505 27.1322812,292.81487 27.1322812,293.160045 C27.1322812,293.505219 26.8535505,293.785039 26.5097187,293.785039 Z M32.0194688,282.821226 C34.7851875,282.936299 37,285.230757 37,288.035074 C37,288.770529 36.8504687,289.481859 36.5555625,290.149237 C36.4161563,290.464746 36.048375,290.606987 35.734,290.467099 C35.4197188,290.327148 35.2779687,289.957867 35.417375,289.642327 C35.6413437,289.135574 35.754875,288.594783 35.754875,288.035043 C35.754875,285.846653 33.9814375,284.066289 31.8015625,284.066289 C29.6216875,284.066289 27.84825,285.846653 27.84825,288.035043 C27.84825,290.223432 29.6217187,292.003796 31.8015625,292.003796 C32.4469375,292.003796 33.0870937,291.844363 33.65275,291.542815 C33.9564063,291.380935 34.3333125,291.496855 34.4945937,291.801697 C34.655875,292.10654 34.5404062,292.484918 34.2367187,292.646829 C33.55575,293.009867 32.7934375,293.215855 32.0194688,293.248608 L32.0194688,293.499992 C32.0194688,294.878512 30.9023125,296 29.5291875,296 L23.4902812,296 C22.117125,296 21,294.87848 21,293.499992 L21,282.500008 C21,281.121488 22.117125,280 23.4902812,280 L29.5291875,280 C30.9023438,280 32.0194688,281.12152 32.0194688,282.500008 L32.0194688,282.821226 Z M30.7743125,282.918856 L30.7743125,282.500008 C30.7743125,281.810764 30.21575,281.25002 29.5291875,281.25002 L23.4902812,281.25002 C22.8037188,281.25002 22.2451563,281.810764 22.2451563,282.500008 L22.2451563,293.500024 C22.2451563,294.189268 22.8037188,294.750012 23.4902812,294.750012 L29.5291875,294.750012 C30.21575,294.750012 30.7743125,294.189268 30.7743125,293.500024 L30.7743125,293.151292 C28.3982188,292.671237 26.603125,290.559772 26.603125,288.035074 C26.603125,285.510376 28.3982188,283.39888 30.7743125,282.918856 Z M31.8015625,291.160076 C31.4577187,291.160076 31.179,290.880237 31.179,290.535145 L31.179,290.472651 L30.8054687,290.472651 C30.461625,290.472651 30.1829062,290.192844 30.1829062,289.847657 C30.1829062,289.502471 30.461625,289.222663 30.8054687,289.222663 L32.0692187,289.222663 C32.1828437,289.222663 32.2685,289.140719 32.2685,289.032047 L32.2685,288.781509 C32.2685,288.674625 32.1828437,288.593999 32.0692187,288.593999 L31.6550312,288.593999 C30.8599375,288.593999 30.2130937,287.936723 30.2130937,287.128861 L30.2130937,287.102477 C30.2130937,286.473969 30.6171562,285.938385 31.179,285.741212 L31.179,285.566344 C31.179,285.221157 31.4577187,284.94135 31.8015625,284.94135 C32.1454062,284.94135 32.424125,285.221157 32.424125,285.566344 L32.424125,285.660084 C32.7679687,285.660084 33.0466875,285.939891 33.0466875,286.285078 C33.0466875,286.630265 32.7679687,286.910072 32.424125,286.910072 L31.655,286.910072 C31.5428125,286.910072 31.4582187,286.992769 31.4582187,287.102445 L31.4582187,287.128829 C31.4582187,287.243431 31.5501562,287.343948 31.655,287.343948 L32.0692187,287.343948 C32.8656562,287.343948 33.513625,287.988832 33.513625,288.781447 L33.513625,289.031984 C33.513625,289.704193 33.0495312,290.27027 32.424125,290.428448 L32.424125,290.535082 C32.424125,290.880269 32.1454062,291.160076 31.8015625,291.160076 Z" id="Combined-Shape"></path>
        </g>
    </g>
</svg>