<?xml version="1.0" encoding="UTF-8"?>
<svg width="17px" height="14px" viewBox="0 0 17 14" version="1.1" xmlns="http://www.w3.org/2000/svg" xmlns:xlink="http://www.w3.org/1999/xlink">
    <!-- Generator: Sketch 52.5 (67469) - http://www.bohemiancoding.com/sketch -->
    <title>Combined Shape</title>
    <desc>Created with Sketch.</desc>
    <g id="Page-1" stroke="none" stroke-width="1" fill="none" fill-rule="evenodd">
        <g id="05.-Thông-tin-tài-khoản" transform="translate(-20.000000, -92.000000)" fill="#5F606D" fill-rule="nonzero">
            <path d="M34.4481074,94.6437167 C34.6737227,94.877519 34.706959,95.2444755 34.5272969,95.5176977 C33.8499863,96.5470882 30.4443418,101.710345 29.9087422,102.265252 C29.520332,102.667569 29.010166,102.868762 28.5000332,102.868762 C27.9899004,102.868762 27.4797012,102.667569 27.0913242,102.265252 C26.3145703,101.460514 26.3145703,100.151193 27.0913242,99.3464553 C27.626957,98.7915833 32.6108789,95.2633599 33.6045156,94.5617122 C33.8682812,94.3755166 34.222459,94.4099832 34.4481074,94.6437167 Z M28.9695586,101.292308 C29.1751523,101.076771 30.1843281,99.6109061 31.3944492,97.8072884 C29.6534766,99.0609874 28.238459,100.106476 28.0303418,100.319537 C27.7715234,100.587771 27.7715566,101.024108 28.0304746,101.292308 C28.2893594,101.560577 28.7106738,101.560577 28.9695586,101.292308 Z M23.0623574,104.005681 C23.391998,103.83916 23.7895723,103.980914 23.950375,104.322382 C24.1111777,104.663884 23.9743145,105.075729 23.6446738,105.242318 L22.2833457,105.930276 C22.1900117,105.977435 22.090668,105.999966 21.9925859,105.999966 C21.776832,105.999966 21.5670215,105.89089 21.4401191,105.694306 C20.4979805,104.234426 20,102.543978 20,100.805854 C20,98.4537275 20.884166,96.2423919 22.4895703,94.5791519 C24.095041,92.9159464 26.2295703,92 28.5,92 C29.7171934,92 30.8927168,92.2611486 31.9939316,92.776119 C32.3282207,92.9324573 32.4768711,93.3399 32.3259629,93.6862178 C32.1750547,94.0324323 31.7816973,94.1865003 31.4475078,94.030162 C30.720791,93.6903111 29.9552598,93.4815849 29.1640957,93.4069759 L29.1640957,94.442214 C29.1640957,94.8221729 28.8667949,95.1301714 28.5000332,95.1301714 C28.1332715,95.1301714 27.8359707,94.8221729 27.8359707,94.442214 L27.8359707,93.4074919 C25.5283867,93.6279822 23.5339746,94.9858379 22.3812617,96.933445 L23.3086914,97.3943076 C23.6393945,97.5586262 23.7788477,97.9695775 23.6202695,98.3121459 C23.506084,98.5587786 23.2685156,98.7027336 23.0210527,98.7027336 C22.9247305,98.7027336 22.8269473,98.6809254 22.7343105,98.6349011 L21.7949609,98.168122 C21.493377,98.9882015 21.328125,99.8774207 21.328125,100.805854 C21.328125,102.073036 21.6427246,103.310912 22.2425723,104.419968 L23.0623574,104.005681 Z M36.2508047,97.186235 C36.7479219,98.3270402 37,99.5448622 37,100.805854 C37,102.543978 36.5020195,104.234426 35.5598477,105.694341 C35.4331113,105.890787 35.2232676,106 35.0074473,106 C34.911291,106 34.8140391,105.978364 34.7222988,105.933131 L33.3277676,105.245173 C32.9966328,105.081818 32.8560176,104.671279 33.0136992,104.328264 C33.1714141,103.985179 33.5676934,103.839573 33.8987617,104.002894 L34.7546387,104.425128 C35.3562461,103.314799 35.671875,102.074928 35.671875,100.805854 C35.671875,99.7413772 35.4594082,98.7140161 35.0403184,97.7523206 C34.8894102,97.4060373 35.0380605,96.9985946 35.3723164,96.8422563 C35.7067051,96.6858492 36.0999297,96.8399516 36.2508047,97.186235 Z" id="Combined-Shape"></path>
        </g>
    </g>
</svg>