<?xml version="1.0" encoding="UTF-8"?>
<svg width="16px" height="16px" viewBox="0 0 16 16" version="1.1" xmlns="http://www.w3.org/2000/svg" xmlns:xlink="http://www.w3.org/1999/xlink">
    <!-- Generator: Sketch 52.5 (67469) - http://www.bohemiancoding.com/sketch -->
    <title>Shape Copy</title>
    <desc>Created with Sketch.</desc>
    <g id="Page-1" stroke="none" stroke-width="1" fill="none" fill-rule="evenodd">
        <g id="05.-Thông-tin-tài-khoản" transform="translate(-21.000000, -423.000000)" fill="#5F606D" fill-rule="nonzero">
            <path d="M25.6937256,430.843262 C24.8433838,429.973999 24.375,428.831055 24.375,427.625 C24.375,425.074707 26.449707,423 29,423 C31.550293,423 33.625,425.074707 33.625,427.625 C33.625,429.801758 32.1131592,431.631958 30.0844727,432.121216 C29.8688965,432.496826 29.4641113,432.75 29,432.75 C28.3096924,432.75 27.75,432.190308 27.75,431.5 C27.75,430.809692 28.3096924,430.25 29,430.25 C29.4440918,430.25 29.8337402,430.481812 30.055542,430.830811 C31.4011231,430.386597 32.375,429.117554 32.375,427.625 C32.375,425.764038 30.8609619,424.25 29,424.25 C27.1390381,424.25 25.625,425.764038 25.625,427.625 C25.625,428.502319 25.9667969,429.334839 26.5872803,429.969238 C26.8286133,430.215942 26.8243408,430.611572 26.5776367,430.853027 C26.3308106,431.09436 25.9351807,431.090088 25.6937256,430.843262 Z M35.730835,433.156616 C35.2005615,432.690674 34.5574951,432.288086 33.8193359,431.960083 C33.5039062,431.819946 33.1346436,431.962036 32.9943848,432.277466 C32.8542481,432.592895 32.9963379,432.96228 33.3117676,433.102417 C33.9342041,433.379028 34.4705811,433.713135 34.9057617,434.095581 C35.4422608,434.567017 35.75,435.249634 35.75,435.96875 L35.75,437.125 C35.75,437.469605 35.4696045,437.75 35.125,437.75 L22.875,437.75 C22.5303955,437.75 22.25,437.469605 22.25,437.125 L22.25,435.96875 C22.25,435.249634 22.5577393,434.567017 23.0942383,434.095581 C23.618042,433.635254 24.564209,433.003052 26.0968018,432.60498 C26.4309082,432.518188 26.6313477,432.17688 26.5445557,431.842895 C26.4577637,431.508789 26.1165772,431.30835 25.7824707,431.395142 C24.0123291,431.85498 22.8948975,432.606812 22.269165,433.156616 C21.4625244,433.865234 21,434.890259 21,435.96875 L21,437.125 C21,438.158936 21.8410644,439 22.875,439 L35.125,439 C36.1589356,439 37,438.158936 37,437.125 L37,435.96875 C37,434.890259 36.5374756,433.865234 35.730835,433.156616 Z" id="Shape-Copy"></path>
        </g>
    </g>
</svg>